{"glyphs":{"0":{"ha":896,"x_min":63,"x_max":833,"o":"m 456 738 q 651 692 565 738 q 785 563 738 646 q 833 371 833 479 q 784 171 833 260 q 645 31 735 82 q 440 -19 556 -19 q 246 26 332 -19 q 111 156 160 72 q 63 349 63 239 q 112 547 63 458 q 250 687 161 636 q 456 738 339 738 m 443 713 q 354 669 393 713 q 294 545 315 626 q 272 353 272 464 q 323 91 272 176 q 453 6 374 6 q 541 49 503 6 q 601 174 579 93 q 624 367 624 256 q 573 628 624 543 q 443 713 522 713 z "},"1":{"ha":532,"x_min":56,"x_max":492,"o":"m 392 135 q 414 52 392 75 q 492 29 436 29 l 492 0 q 300 6 342 6 q 100 1 254 6 l 61 0 l 61 29 q 159 54 126 29 q 192 143 192 79 l 192 482 q 180 580 192 549 q 140 622 168 611 q 56 632 113 632 l 56 663 q 254 681 176 665 q 392 733 332 697 l 392 135 z "},"2":{"ha":726,"x_min":57,"x_max":669,"o":"m 382 738 q 551 691 489 738 q 614 561 614 644 q 581 456 614 504 q 504 369 549 407 q 382 276 460 332 q 242 165 282 207 l 542 165 q 598 171 579 165 q 624 189 617 176 q 635 228 631 201 l 664 228 q 669 -7 664 64 q 463 0 639 0 l 58 0 l 58 26 q 129 93 76 46 q 263 224 210 167 q 356 358 317 282 q 396 515 396 433 q 363 623 396 589 q 267 657 331 657 q 163 630 208 657 q 81 550 118 603 l 57 564 q 382 738 160 738 z "},"3":{"ha":678,"x_min":40,"x_max":629,"o":"m 342 738 q 513 694 446 738 q 579 578 579 651 q 503 436 579 499 q 297 349 426 374 q 536 298 443 354 q 629 138 629 242 q 542 -44 629 36 q 317 -167 454 -124 q 40 -210 181 -210 l 40 -182 q 220 -141 132 -179 q 365 -32 308 -103 q 422 136 422 39 q 383 271 422 218 q 276 329 343 324 q 238 313 257 319 q 206 307 219 307 q 179 326 179 307 q 192 349 179 342 q 224 357 204 357 q 247 355 232 357 q 272 351 261 353 q 379 538 379 426 q 347 630 379 600 q 256 660 315 660 q 153 632 200 660 q 75 551 107 604 l 50 564 q 162 690 93 643 q 342 738 231 738 z "},"4":{"ha":733,"x_min":11,"x_max":690,"o":"m 690 43 q 551 50 674 47 l 551 -196 l 390 -196 l 390 50 l 11 50 l 11 79 l 529 738 l 551 738 l 551 193 l 563 193 q 619 199 600 193 q 644 217 638 204 q 656 256 651 229 l 685 256 q 690 43 685 108 m 390 193 l 390 517 l 139 193 l 390 193 z "},"5":{"ha":638,"x_min":42,"x_max":592,"o":"m 535 771 q 540 538 535 608 q 347 544 511 544 l 133 544 l 111 307 q 321 363 192 363 q 523 301 454 363 q 592 143 592 240 q 511 -40 592 40 q 303 -162 431 -119 q 42 -206 176 -206 l 42 -181 q 208 -142 129 -179 q 336 -34 288 -106 q 385 135 385 38 q 344 269 385 222 q 225 315 303 315 q 158 306 188 315 q 100 275 129 296 l 81 288 l 125 722 q 200 717 153 717 l 429 717 q 485 728 469 717 q 506 771 501 740 l 535 771 z "},"6":{"ha":779,"x_min":65,"x_max":738,"o":"m 465 611 q 602 575 540 611 q 701 470 664 539 q 738 311 738 401 q 691 133 738 208 q 565 19 644 58 q 392 -19 486 -19 q 152 85 239 -19 q 65 376 65 189 q 152 704 65 569 q 366 911 239 839 q 619 1004 493 983 l 625 976 q 469 904 536 949 q 351 767 401 860 q 283 519 300 674 q 360 589 313 567 q 465 611 408 611 m 406 8 q 493 80 458 8 q 528 299 528 151 q 495 506 528 440 q 410 571 463 571 q 336 544 374 571 q 278 465 299 518 q 275 368 275 404 q 313 93 275 178 q 406 8 351 8 z "},"7":{"ha":632,"x_min":32,"x_max":631,"o":"m 631 688 q 563 554 614 649 q 472 379 507 454 q 412 208 438 304 q 386 8 386 113 l 389 -39 q 393 -104 393 -75 q 367 -176 393 -147 q 292 -206 340 -206 q 216 -172 242 -206 q 190 -83 190 -139 q 228 92 190 3 q 317 259 265 182 q 453 446 369 336 q 489 494 469 469 q 529 549 508 519 l 160 549 q 103 543 122 549 q 78 525 85 538 q 67 486 71 513 l 38 486 q 32 724 38 653 q 239 717 63 717 l 631 717 l 631 688 z "},"8":{"ha":779,"x_min":60,"x_max":722,"o":"m 482 583 q 612 467 568 510 q 689 367 656 425 q 722 243 722 310 q 678 107 722 167 q 557 14 635 47 q 382 -19 479 -19 q 221 8 294 -19 q 103 89 147 35 q 60 218 60 143 q 121 375 60 308 q 286 488 182 442 q 153 627 200 561 q 106 776 106 693 q 146 900 106 849 q 253 977 186 951 q 400 1003 319 1003 q 596 949 519 1003 q 672 808 672 896 q 624 687 672 740 q 482 583 576 633 m 389 978 q 316 947 343 978 q 289 863 289 915 q 333 733 289 793 q 460 601 376 674 q 499 692 486 639 q 511 797 511 746 q 478 930 511 882 q 389 978 446 978 m 389 6 q 492 47 454 6 q 529 156 529 88 q 499 271 529 218 q 426 364 468 324 q 307 469 385 404 q 232 243 232 390 q 269 72 232 138 q 389 6 306 6 z "},"9":{"ha":768,"x_min":40,"x_max":713,"o":"m 386 738 q 626 637 539 738 q 713 354 713 536 q 626 59 713 181 q 415 -128 540 -62 q 167 -211 290 -193 l 161 -183 q 308 -121 244 -158 q 420 -8 371 -83 q 490 192 469 68 q 414 128 461 149 q 313 107 367 107 q 176 144 238 107 q 77 249 114 181 q 40 408 40 317 q 87 585 40 511 q 213 699 133 660 q 386 738 292 738 m 368 147 q 440 172 403 147 q 497 247 476 196 q 503 361 503 293 q 464 628 503 546 q 371 710 425 710 q 285 638 319 710 q 250 419 250 567 q 283 213 250 279 q 368 147 315 147 z "},"\u0000":{"ha":0,"x_min":0,"x_max":0,"o":""},"\r":{"ha":324,"x_min":0,"x_max":0,"o":""}," ":{"ha":324,"x_min":0,"x_max":0,"o":""},"A":{"ha":926,"x_min":-21,"x_max":936,"o":"m 849 117 q 890 50 867 71 q 936 28 914 29 l 936 0 q 725 4 853 4 q 514 0 583 4 l 514 28 q 589 41 567 31 q 611 78 611 51 q 594 144 611 103 l 511 372 l 208 372 l 172 276 q 133 122 133 176 q 165 51 133 71 q 257 28 196 31 l 257 0 q 85 4 163 4 q -21 0 21 4 l -21 28 q 99 174 47 40 l 415 986 q 464 985 431 985 q 511 986 497 985 l 849 117 m 501 400 l 364 775 l 219 400 l 501 400 z "},"Á":{"ha":926,"x_min":-21,"x_max":936,"o":"m 849 117 q 890 50 867 71 q 936 28 914 29 l 936 0 q 725 4 853 4 q 514 0 583 4 l 514 28 q 589 41 567 31 q 611 78 611 51 q 594 144 611 103 l 511 372 l 208 372 l 172 276 q 133 122 133 176 q 165 51 133 71 q 257 28 196 31 l 257 0 q 85 4 163 4 q -21 0 21 4 l -21 28 q 99 174 47 40 l 415 986 q 464 985 431 985 q 511 986 497 985 l 849 117 m 501 400 l 364 775 l 219 400 l 501 400 m 586 1297 q 629 1308 606 1308 q 670 1297 651 1308 q 699 1267 689 1286 q 707 1235 707 1253 q 694 1195 707 1214 q 660 1164 682 1176 q 611 1144 639 1153 q 551 1128 583 1135 q 490 1111 542 1125 q 371 1072 438 1097 l 361 1089 q 499 1221 429 1146 q 547 1269 529 1253 q 586 1297 565 1285 z "},"Ă":{"ha":926,"x_min":-21,"x_max":936,"o":"m 849 117 q 890 50 867 71 q 936 28 914 29 l 936 0 q 725 4 853 4 q 514 0 583 4 l 514 28 q 589 41 567 31 q 611 78 611 51 q 594 144 611 103 l 511 372 l 208 372 l 172 276 q 133 122 133 176 q 165 51 133 71 q 257 28 196 31 l 257 0 q 85 4 163 4 q -21 0 21 4 l -21 28 q 99 174 47 40 l 415 986 q 464 985 431 985 q 511 986 497 985 l 849 117 m 501 400 l 364 775 l 219 400 l 501 400 m 764 1257 q 650 1126 729 1182 q 454 1071 571 1071 q 258 1126 338 1071 q 144 1257 179 1182 l 161 1271 q 280 1212 207 1236 q 454 1188 353 1188 q 628 1213 556 1188 q 747 1272 700 1238 l 764 1257 z "},"Ắ":{"ha":926,"x_min":-21,"x_max":936,"o":"m 849 117 q 890 50 867 71 q 936 28 914 29 l 936 0 q 725 4 853 4 q 514 0 583 4 l 514 28 q 589 41 567 31 q 611 78 611 51 q 594 144 611 103 l 511 372 l 208 372 l 172 276 q 133 122 133 176 q 165 51 133 71 q 257 28 196 31 l 257 0 q 85 4 163 4 q -21 0 21 4 l -21 28 q 99 174 47 40 l 415 986 q 464 985 431 985 q 511 986 497 985 l 849 117 m 501 400 l 364 775 l 219 400 l 501 400 m 764 1257 q 650 1126 729 1182 q 454 1071 571 1071 q 258 1126 338 1071 q 144 1257 179 1182 l 161 1271 q 280 1212 207 1236 q 454 1188 353 1188 q 628 1213 556 1188 q 747 1272 700 1238 l 764 1257 m 586 1506 q 629 1517 606 1517 q 670 1506 651 1517 q 699 1475 689 1494 q 707 1443 707 1461 q 694 1403 707 1422 q 660 1372 682 1385 q 611 1352 639 1361 q 551 1336 583 1343 q 490 1319 542 1333 q 371 1281 438 1306 l 361 1297 q 499 1429 429 1354 q 547 1477 529 1461 q 586 1506 565 1493 z "},"Ặ":{"ha":926,"x_min":-21,"x_max":936,"o":"m 849 117 q 890 50 867 71 q 936 28 914 29 l 936 0 q 725 4 853 4 q 514 0 583 4 l 514 28 q 589 41 567 31 q 611 78 611 51 q 594 144 611 103 l 511 372 l 208 372 l 172 276 q 133 122 133 176 q 165 51 133 71 q 257 28 196 31 l 257 0 q 85 4 163 4 q -21 0 21 4 l -21 28 q 99 174 47 40 l 415 986 q 464 985 431 985 q 511 986 497 985 l 849 117 m 501 400 l 364 775 l 219 400 l 501 400 m 764 1257 q 650 1126 729 1182 q 454 1071 571 1071 q 258 1126 338 1071 q 144 1257 179 1182 l 161 1271 q 280 1212 207 1236 q 454 1188 353 1188 q 628 1213 556 1188 q 747 1272 700 1238 l 764 1257 m 461 -260 q 386 -235 414 -260 q 358 -168 358 -211 q 386 -101 358 -126 q 464 -76 414 -76 q 540 -101 513 -76 q 567 -168 567 -125 q 538 -235 567 -211 q 461 -260 510 -260 z "},"Ằ":{"ha":926,"x_min":-21,"x_max":936,"o":"m 849 117 q 890 50 867 71 q 936 28 914 29 l 936 0 q 725 4 853 4 q 514 0 583 4 l 514 28 q 589 41 567 31 q 611 78 611 51 q 594 144 611 103 l 511 372 l 208 372 l 172 276 q 133 122 133 176 q 165 51 133 71 q 257 28 196 31 l 257 0 q 85 4 163 4 q -21 0 21 4 l -21 28 q 99 174 47 40 l 415 986 q 464 985 431 985 q 511 986 497 985 l 849 117 m 501 400 l 364 775 l 219 400 l 501 400 m 764 1257 q 650 1126 729 1182 q 454 1071 571 1071 q 258 1126 338 1071 q 144 1257 179 1182 l 161 1271 q 280 1212 207 1236 q 454 1188 353 1188 q 628 1213 556 1188 q 747 1272 700 1238 l 764 1257 m 331 1506 q 369 1477 351 1493 q 418 1429 388 1461 q 556 1297 488 1354 l 546 1281 q 427 1319 479 1306 q 365 1336 375 1333 q 306 1352 333 1343 q 257 1372 278 1361 q 222 1403 235 1385 q 210 1443 210 1422 q 218 1475 210 1461 q 247 1506 228 1494 q 288 1517 265 1517 q 331 1506 311 1517 z "},"Ẳ":{"ha":926,"x_min":-21,"x_max":936,"o":"m 849 117 q 890 50 867 71 q 936 28 914 29 l 936 0 q 725 4 853 4 q 514 0 583 4 l 514 28 q 589 41 567 31 q 611 78 611 51 q 594 144 611 103 l 511 372 l 208 372 l 172 276 q 133 122 133 176 q 165 51 133 71 q 257 28 196 31 l 257 0 q 85 4 163 4 q -21 0 21 4 l -21 28 q 99 174 47 40 l 415 986 q 464 985 431 985 q 511 986 497 985 l 849 117 m 501 400 l 364 775 l 219 400 l 501 400 m 764 1257 q 650 1126 729 1182 q 454 1071 571 1071 q 258 1126 338 1071 q 144 1257 179 1182 l 161 1271 q 280 1212 207 1236 q 454 1188 353 1188 q 628 1213 556 1188 q 747 1272 700 1238 l 764 1257 m 440 1343 q 532 1451 532 1382 q 502 1515 532 1493 q 426 1536 472 1536 q 361 1518 379 1536 q 406 1492 390 1511 q 421 1446 421 1474 q 399 1394 421 1414 q 346 1374 378 1374 q 292 1394 313 1374 q 272 1446 272 1414 q 288 1497 272 1475 q 328 1533 303 1519 q 463 1564 381 1564 q 604 1536 547 1564 q 661 1458 661 1508 q 608 1378 661 1411 q 468 1331 554 1344 l 468 1267 l 440 1267 l 440 1343 z "},"Ẵ":{"ha":926,"x_min":-21,"x_max":936,"o":"m 849 117 q 890 50 867 71 q 936 28 914 29 l 936 0 q 725 4 853 4 q 514 0 583 4 l 514 28 q 589 41 567 31 q 611 78 611 51 q 594 144 611 103 l 511 372 l 208 372 l 172 276 q 133 122 133 176 q 165 51 133 71 q 257 28 196 31 l 257 0 q 85 4 163 4 q -21 0 21 4 l -21 28 q 99 174 47 40 l 415 986 q 464 985 431 985 q 511 986 497 985 l 849 117 m 501 400 l 364 775 l 219 400 l 501 400 m 764 1257 q 650 1126 729 1182 q 454 1071 571 1071 q 258 1126 338 1071 q 144 1257 179 1182 l 161 1271 q 280 1212 207 1236 q 454 1188 353 1188 q 628 1213 556 1188 q 747 1272 700 1238 l 764 1257 m 340 1492 q 422 1478 386 1492 q 500 1439 457 1464 q 568 1404 539 1415 q 632 1393 597 1393 q 747 1468 706 1393 l 767 1461 q 699 1322 749 1369 q 582 1275 649 1275 q 502 1288 536 1275 q 424 1328 468 1301 q 353 1363 383 1351 q 289 1374 324 1374 q 174 1297 218 1374 l 154 1304 q 224 1444 174 1396 q 340 1492 275 1492 z "},"Ǎ":{"ha":926,"x_min":-21,"x_max":936,"o":"m 849 117 q 890 50 867 71 q 936 28 914 29 l 936 0 q 725 4 853 4 q 514 0 583 4 l 514 28 q 589 41 567 31 q 611 78 611 51 q 594 144 611 103 l 511 372 l 208 372 l 172 276 q 133 122 133 176 q 165 51 133 71 q 257 28 196 31 l 257 0 q 85 4 163 4 q -21 0 21 4 l -21 28 q 99 174 47 40 l 415 986 q 464 985 431 985 q 511 986 497 985 l 849 117 m 501 400 l 364 775 l 219 400 l 501 400 m 756 1282 q 591 1188 667 1246 q 471 1065 515 1129 l 446 1065 q 327 1186 403 1128 q 161 1282 251 1244 l 168 1303 q 347 1263 258 1288 q 486 1213 435 1238 q 602 1263 529 1238 q 749 1303 675 1288 l 756 1282 z "},"Â":{"ha":926,"x_min":-21,"x_max":936,"o":"m 849 117 q 890 50 867 71 q 936 28 914 29 l 936 0 q 725 4 853 4 q 514 0 583 4 l 514 28 q 589 41 567 31 q 611 78 611 51 q 594 144 611 103 l 511 372 l 208 372 l 172 276 q 133 122 133 176 q 165 51 133 71 q 257 28 196 31 l 257 0 q 85 4 163 4 q -21 0 21 4 l -21 28 q 99 174 47 40 l 415 986 q 464 985 431 985 q 511 986 497 985 l 849 117 m 501 400 l 364 775 l 219 400 l 501 400 m 475 1306 q 595 1185 519 1243 q 760 1089 671 1126 l 753 1068 q 574 1110 663 1085 q 435 1158 486 1135 q 319 1110 392 1135 q 172 1068 246 1085 l 165 1089 q 330 1185 254 1126 q 450 1306 406 1243 l 475 1306 z "},"Ấ":{"ha":926,"x_min":-21,"x_max":936,"o":"m 849 117 q 890 50 867 71 q 936 28 914 29 l 936 0 q 725 4 853 4 q 514 0 583 4 l 514 28 q 589 41 567 31 q 611 78 611 51 q 594 144 611 103 l 511 372 l 208 372 l 172 276 q 133 122 133 176 q 165 51 133 71 q 257 28 196 31 l 257 0 q 85 4 163 4 q -21 0 21 4 l -21 28 q 99 174 47 40 l 415 986 q 464 985 431 985 q 511 986 497 985 l 849 117 m 501 400 l 364 775 l 219 400 l 501 400 m 475 1306 q 595 1185 519 1243 q 760 1089 671 1126 l 753 1068 q 574 1110 663 1085 q 435 1158 486 1135 q 319 1110 392 1135 q 172 1068 246 1085 l 165 1089 q 330 1185 254 1126 q 450 1306 406 1243 l 475 1306 m 586 1603 q 629 1614 606 1614 q 670 1603 651 1614 q 699 1572 689 1592 q 707 1540 707 1558 q 694 1501 707 1519 q 660 1469 682 1482 q 611 1449 639 1458 q 551 1433 583 1440 q 490 1417 542 1431 q 371 1378 438 1403 l 361 1394 q 499 1526 429 1451 q 547 1574 529 1558 q 586 1603 565 1590 z "},"Ậ":{"ha":926,"x_min":-21,"x_max":936,"o":"m 849 117 q 890 50 867 71 q 936 28 914 29 l 936 0 q 725 4 853 4 q 514 0 583 4 l 514 28 q 589 41 567 31 q 611 78 611 51 q 594 144 611 103 l 511 372 l 208 372 l 172 276 q 133 122 133 176 q 165 51 133 71 q 257 28 196 31 l 257 0 q 85 4 163 4 q -21 0 21 4 l -21 28 q 99 174 47 40 l 415 986 q 464 985 431 985 q 511 986 497 985 l 849 117 m 501 400 l 364 775 l 219 400 l 501 400 m 475 1306 q 595 1185 519 1243 q 760 1089 671 1126 l 753 1068 q 574 1110 663 1085 q 435 1158 486 1135 q 319 1110 392 1135 q 172 1068 246 1085 l 165 1089 q 330 1185 254 1126 q 450 1306 406 1243 l 475 1306 m 461 -260 q 386 -235 414 -260 q 358 -168 358 -211 q 386 -101 358 -126 q 464 -76 414 -76 q 540 -101 513 -76 q 567 -168 567 -125 q 538 -235 567 -211 q 461 -260 510 -260 z "},"Ầ":{"ha":926,"x_min":-21,"x_max":936,"o":"m 849 117 q 890 50 867 71 q 936 28 914 29 l 936 0 q 725 4 853 4 q 514 0 583 4 l 514 28 q 589 41 567 31 q 611 78 611 51 q 594 144 611 103 l 511 372 l 208 372 l 172 276 q 133 122 133 176 q 165 51 133 71 q 257 28 196 31 l 257 0 q 85 4 163 4 q -21 0 21 4 l -21 28 q 99 174 47 40 l 415 986 q 464 985 431 985 q 511 986 497 985 l 849 117 m 501 400 l 364 775 l 219 400 l 501 400 m 475 1306 q 595 1185 519 1243 q 760 1089 671 1126 l 753 1068 q 574 1110 663 1085 q 435 1158 486 1135 q 319 1110 392 1135 q 172 1068 246 1085 l 165 1089 q 330 1185 254 1126 q 450 1306 406 1243 l 475 1306 m 331 1603 q 369 1574 351 1590 q 418 1526 388 1558 q 556 1394 488 1451 l 546 1378 q 427 1417 479 1403 q 365 1433 375 1431 q 306 1449 333 1440 q 257 1469 278 1458 q 222 1501 235 1482 q 210 1540 210 1519 q 218 1572 210 1558 q 247 1603 228 1592 q 288 1614 265 1614 q 331 1603 311 1614 z "},"Ẩ":{"ha":926,"x_min":-21,"x_max":936,"o":"m 849 117 q 890 50 867 71 q 936 28 914 29 l 936 0 q 725 4 853 4 q 514 0 583 4 l 514 28 q 589 41 567 31 q 611 78 611 51 q 594 144 611 103 l 511 372 l 208 372 l 172 276 q 133 122 133 176 q 165 51 133 71 q 257 28 196 31 l 257 0 q 85 4 163 4 q -21 0 21 4 l -21 28 q 99 174 47 40 l 415 986 q 464 985 431 985 q 511 986 497 985 l 849 117 m 501 400 l 364 775 l 219 400 l 501 400 m 475 1306 q 595 1185 519 1243 q 760 1089 671 1126 l 753 1068 q 574 1110 663 1085 q 435 1158 486 1135 q 319 1110 392 1135 q 172 1068 246 1085 l 165 1089 q 330 1185 254 1126 q 450 1306 406 1243 l 475 1306 m 696 1358 q 788 1467 788 1397 q 758 1530 788 1508 q 682 1551 728 1551 q 617 1533 635 1551 q 661 1508 646 1526 q 676 1461 676 1489 q 655 1409 676 1429 q 601 1389 633 1389 q 548 1409 568 1389 q 528 1461 528 1429 q 543 1513 528 1490 q 583 1549 558 1535 q 718 1579 636 1579 q 860 1551 803 1579 q 917 1474 917 1524 q 863 1393 917 1426 q 724 1346 810 1360 l 724 1282 l 696 1282 l 696 1358 z "},"Ẫ":{"ha":926,"x_min":-21,"x_max":936,"o":"m 849 117 q 890 50 867 71 q 936 28 914 29 l 936 0 q 725 4 853 4 q 514 0 583 4 l 514 28 q 589 41 567 31 q 611 78 611 51 q 594 144 611 103 l 511 372 l 208 372 l 172 276 q 133 122 133 176 q 165 51 133 71 q 257 28 196 31 l 257 0 q 85 4 163 4 q -21 0 21 4 l -21 28 q 99 174 47 40 l 415 986 q 464 985 431 985 q 511 986 497 985 l 849 117 m 501 400 l 364 775 l 219 400 l 501 400 m 475 1306 q 595 1185 519 1243 q 760 1089 671 1126 l 753 1068 q 574 1110 663 1085 q 435 1158 486 1135 q 319 1110 392 1135 q 172 1068 246 1085 l 165 1089 q 330 1185 254 1126 q 450 1306 406 1243 l 475 1306 m 340 1589 q 422 1575 386 1589 q 500 1536 457 1561 q 568 1501 539 1513 q 632 1490 597 1490 q 747 1565 706 1490 l 767 1558 q 699 1419 749 1467 q 582 1372 649 1372 q 502 1385 536 1372 q 424 1425 468 1399 q 353 1460 383 1449 q 289 1471 324 1471 q 174 1394 218 1471 l 154 1401 q 224 1541 174 1493 q 340 1589 275 1589 z "},"Ä":{"ha":926,"x_min":-21,"x_max":936,"o":"m 849 117 q 890 50 867 71 q 936 28 914 29 l 936 0 q 725 4 853 4 q 514 0 583 4 l 514 28 q 589 41 567 31 q 611 78 611 51 q 594 144 611 103 l 511 372 l 208 372 l 172 276 q 133 122 133 176 q 165 51 133 71 q 257 28 196 31 l 257 0 q 85 4 163 4 q -21 0 21 4 l -21 28 q 99 174 47 40 l 415 986 q 464 985 431 985 q 511 986 497 985 l 849 117 m 501 400 l 364 775 l 219 400 l 501 400 m 296 1274 q 369 1242 338 1274 q 401 1168 401 1210 q 369 1095 401 1126 q 296 1064 338 1064 q 222 1094 253 1064 q 192 1168 192 1125 q 223 1242 192 1210 q 296 1274 254 1274 m 629 1274 q 702 1242 671 1274 q 733 1168 733 1210 q 702 1094 733 1125 q 629 1064 671 1064 q 555 1094 586 1064 q 524 1168 524 1125 q 555 1242 524 1210 q 629 1274 586 1274 z "},"Ạ":{"ha":926,"x_min":-21,"x_max":936,"o":"m 849 117 q 890 50 867 71 q 936 28 914 29 l 936 0 q 725 4 853 4 q 514 0 583 4 l 514 28 q 589 41 567 31 q 611 78 611 51 q 594 144 611 103 l 511 372 l 208 372 l 172 276 q 133 122 133 176 q 165 51 133 71 q 257 28 196 31 l 257 0 q 85 4 163 4 q -21 0 21 4 l -21 28 q 99 174 47 40 l 415 986 q 464 985 431 985 q 511 986 497 985 l 849 117 m 501 400 l 364 775 l 219 400 l 501 400 m 461 -260 q 386 -235 414 -260 q 358 -168 358 -211 q 386 -101 358 -126 q 464 -76 414 -76 q 540 -101 513 -76 q 567 -168 567 -125 q 538 -235 567 -211 q 461 -260 510 -260 z "},"À":{"ha":926,"x_min":-21,"x_max":936,"o":"m 849 117 q 890 50 867 71 q 936 28 914 29 l 936 0 q 725 4 853 4 q 514 0 583 4 l 514 28 q 589 41 567 31 q 611 78 611 51 q 594 144 611 103 l 511 372 l 208 372 l 172 276 q 133 122 133 176 q 165 51 133 71 q 257 28 196 31 l 257 0 q 85 4 163 4 q -21 0 21 4 l -21 28 q 99 174 47 40 l 415 986 q 464 985 431 985 q 511 986 497 985 l 849 117 m 501 400 l 364 775 l 219 400 l 501 400 m 331 1297 q 369 1269 351 1285 q 418 1221 388 1253 q 556 1089 488 1146 l 546 1072 q 427 1111 479 1097 q 365 1128 375 1125 q 306 1144 333 1135 q 257 1164 278 1153 q 222 1195 235 1176 q 210 1235 210 1214 q 218 1267 210 1253 q 247 1297 228 1286 q 288 1308 265 1308 q 331 1297 311 1308 z "},"Ả":{"ha":926,"x_min":-21,"x_max":936,"o":"m 849 117 q 890 50 867 71 q 936 28 914 29 l 936 0 q 725 4 853 4 q 514 0 583 4 l 514 28 q 589 41 567 31 q 611 78 611 51 q 594 144 611 103 l 511 372 l 208 372 l 172 276 q 133 122 133 176 q 165 51 133 71 q 257 28 196 31 l 257 0 q 85 4 163 4 q -21 0 21 4 l -21 28 q 99 174 47 40 l 415 986 q 464 985 431 985 q 511 986 497 985 l 849 117 m 501 400 l 364 775 l 219 400 l 501 400 m 440 1135 q 532 1243 532 1174 q 502 1306 532 1285 q 426 1328 472 1328 q 361 1310 379 1328 q 406 1284 390 1303 q 421 1238 421 1265 q 399 1185 421 1206 q 346 1165 378 1165 q 292 1185 313 1165 q 272 1238 272 1206 q 288 1289 272 1267 q 328 1325 303 1311 q 463 1356 381 1356 q 604 1328 547 1356 q 661 1250 661 1300 q 608 1169 661 1203 q 468 1122 554 1136 l 468 1058 l 440 1058 l 440 1135 z "},"Ā":{"ha":926,"x_min":-21,"x_max":936,"o":"m 849 117 q 890 50 867 71 q 936 28 914 29 l 936 0 q 725 4 853 4 q 514 0 583 4 l 514 28 q 589 41 567 31 q 611 78 611 51 q 594 144 611 103 l 511 372 l 208 372 l 172 276 q 133 122 133 176 q 165 51 133 71 q 257 28 196 31 l 257 0 q 85 4 163 4 q -21 0 21 4 l -21 28 q 99 174 47 40 l 415 986 q 464 985 431 985 q 511 986 497 985 l 849 117 m 501 400 l 364 775 l 219 400 l 501 400 m 740 1138 l 185 1138 l 185 1172 l 740 1172 l 740 1138 z "},"Ą":{"ha":926,"x_min":-21,"x_max":936,"o":"m 849 117 q 890 50 867 71 q 936 28 914 29 l 936 0 q 725 4 853 4 q 514 0 583 4 l 514 28 q 589 41 567 31 q 611 78 611 51 q 594 144 611 103 l 511 372 l 208 372 l 172 276 q 133 122 133 176 q 165 51 133 71 q 257 28 196 31 l 257 0 q 85 4 163 4 q -21 0 21 4 l -21 28 q 99 174 47 40 l 415 986 q 464 985 431 985 q 511 986 497 985 l 849 117 m 501 400 l 364 775 l 219 400 l 501 400 m 919 4 q 805 -56 842 -19 q 768 -128 768 -92 q 826 -185 768 -185 q 874 -174 850 -185 q 915 -147 899 -164 l 933 -167 q 851 -239 897 -217 q 743 -261 806 -261 q 650 -235 683 -261 q 617 -165 617 -210 q 682 -65 617 -108 q 867 4 747 -21 l 919 4 z "},"Å":{"ha":926,"x_min":-21,"x_max":936,"o":"m 849 117 q 890 50 867 71 q 936 28 914 29 l 936 0 q 725 4 853 4 q 514 0 583 4 l 514 28 q 589 41 567 31 q 611 78 611 51 q 594 144 611 103 l 511 372 l 208 372 l 172 276 q 133 122 133 176 q 165 51 133 71 q 257 28 196 31 l 257 0 q 85 4 163 4 q -21 0 21 4 l -21 28 q 99 174 47 40 l 415 986 q 464 985 431 985 q 511 986 497 985 l 849 117 m 501 400 l 364 775 l 219 400 l 501 400 m 463 1301 q 569 1265 525 1301 q 614 1167 614 1228 q 569 1068 614 1106 q 463 1031 525 1031 q 356 1068 400 1031 q 313 1167 313 1106 q 356 1265 313 1228 q 463 1301 400 1301 m 463 1272 q 385 1243 419 1272 q 351 1165 351 1214 q 385 1088 351 1115 q 463 1060 419 1060 q 541 1088 507 1060 q 575 1165 575 1115 q 541 1243 575 1214 q 463 1272 507 1272 z "},"Ã":{"ha":926,"x_min":-21,"x_max":936,"o":"m 849 117 q 890 50 867 71 q 936 28 914 29 l 936 0 q 725 4 853 4 q 514 0 583 4 l 514 28 q 589 41 567 31 q 611 78 611 51 q 594 144 611 103 l 511 372 l 208 372 l 172 276 q 133 122 133 176 q 165 51 133 71 q 257 28 196 31 l 257 0 q 85 4 163 4 q -21 0 21 4 l -21 28 q 99 174 47 40 l 415 986 q 464 985 431 985 q 511 986 497 985 l 849 117 m 501 400 l 364 775 l 219 400 l 501 400 m 340 1283 q 422 1269 386 1283 q 500 1231 457 1256 q 568 1196 539 1207 q 632 1185 597 1185 q 747 1260 706 1185 l 767 1253 q 699 1114 749 1161 q 582 1067 649 1067 q 502 1080 536 1067 q 424 1119 468 1093 q 353 1154 383 1143 q 289 1165 324 1165 q 174 1089 218 1165 l 154 1096 q 224 1235 174 1188 q 340 1283 275 1283 z "},"Æ":{"ha":1235,"x_min":-19,"x_max":1172,"o":"m 1163 194 q 1172 0 1163 89 q 865 4 1081 4 q 465 0 600 4 l 465 28 q 526 39 507 31 q 551 71 544 47 q 558 147 558 94 l 558 481 l 326 481 l 129 144 q 104 76 104 101 q 128 42 104 53 q 200 28 151 31 l 200 0 q 74 4 158 4 q -19 0 14 4 l -19 28 q 26 49 4 29 q 76 117 49 68 l 549 918 q 519 946 540 939 q 454 956 499 953 l 454 983 q 585 981 535 981 l 639 1072 l 672 1072 l 618 981 q 865 979 717 979 q 1144 983 1061 979 q 1135 794 1135 878 q 1139 700 1135 733 l 1107 700 q 1047 895 1090 839 q 929 951 1004 951 l 883 951 q 816 944 838 951 q 787 913 794 936 q 779 836 779 889 l 779 508 l 853 508 q 921 535 896 508 q 953 588 946 561 q 974 672 961 615 l 1006 672 q 1001 554 1001 619 l 1001 494 q 1010 317 1001 432 l 978 317 q 941 438 965 396 q 853 481 917 481 l 779 481 l 779 147 q 787 71 779 94 q 816 40 794 47 q 883 32 838 32 l 951 32 q 1074 96 1028 32 q 1135 311 1119 160 l 1167 311 q 1163 194 1163 265 m 558 508 l 558 836 q 557 875 558 864 l 342 508 l 558 508 z "},"B":{"ha":933,"x_min":47,"x_max":892,"o":"m 542 517 q 807 433 722 503 q 892 269 892 364 q 790 70 892 140 q 508 0 689 0 q 440 1 468 0 q 261 4 349 4 q 47 0 118 4 l 47 28 q 115 39 93 31 q 144 71 136 47 q 151 147 151 94 l 151 836 q 144 913 151 889 q 115 944 136 936 q 47 956 93 953 l 47 983 q 258 979 118 979 l 413 981 q 476 982 440 982 q 731 922 643 982 q 819 764 819 863 q 749 614 819 683 q 542 519 679 544 l 542 517 m 458 956 q 403 946 421 956 q 379 911 386 936 q 372 836 372 886 l 372 522 l 432 522 q 558 584 522 522 q 594 749 594 646 q 562 904 594 853 q 458 956 529 956 m 468 32 q 661 275 661 32 q 606 442 661 385 q 431 499 550 499 l 372 499 l 372 147 q 379 74 372 97 q 406 41 386 50 q 468 32 426 32 z "},"C":{"ha":979,"x_min":60,"x_max":901,"o":"m 551 1003 q 693 979 635 1003 q 807 913 751 956 q 833 900 822 900 q 869 983 861 900 l 901 983 q 896 647 896 889 l 864 647 q 831 804 851 750 q 760 899 810 858 q 679 949 725 932 q 583 967 633 967 q 375 830 443 967 q 307 489 307 693 q 378 150 307 286 q 589 14 449 14 q 683 31 636 14 q 761 82 729 49 q 833 179 813 121 q 864 350 853 238 l 896 350 q 901 0 896 99 l 869 0 q 858 63 865 44 q 836 82 850 82 q 807 71 825 82 q 688 3 744 26 q 550 -19 631 -19 q 292 40 403 -19 q 121 213 182 100 q 60 483 60 326 q 122 754 60 636 q 297 938 185 872 q 551 1003 408 1003 z "},"Ć":{"ha":979,"x_min":60,"x_max":901,"o":"m 551 1003 q 693 979 635 1003 q 807 913 751 956 q 833 900 822 900 q 869 983 861 900 l 901 983 q 896 647 896 889 l 864 647 q 831 804 851 750 q 760 899 810 858 q 679 949 725 932 q 583 967 633 967 q 375 830 443 967 q 307 489 307 693 q 378 150 307 286 q 589 14 449 14 q 683 31 636 14 q 761 82 729 49 q 833 179 813 121 q 864 350 853 238 l 896 350 q 901 0 896 99 l 869 0 q 858 63 865 44 q 836 82 850 82 q 807 71 825 82 q 688 3 744 26 q 550 -19 631 -19 q 292 40 403 -19 q 121 213 182 100 q 60 483 60 326 q 122 754 60 636 q 297 938 185 872 q 551 1003 408 1003 m 650 1297 q 693 1308 669 1308 q 734 1297 715 1308 q 763 1267 753 1286 q 771 1235 771 1253 q 758 1195 771 1214 q 724 1164 746 1176 q 675 1144 703 1153 q 615 1128 647 1135 q 553 1111 606 1125 q 435 1072 501 1097 l 425 1089 q 563 1221 493 1146 q 611 1269 593 1253 q 650 1297 629 1285 z "},"Č":{"ha":979,"x_min":60,"x_max":901,"o":"m 551 1003 q 693 979 635 1003 q 807 913 751 956 q 833 900 822 900 q 869 983 861 900 l 901 983 q 896 647 896 889 l 864 647 q 831 804 851 750 q 760 899 810 858 q 679 949 725 932 q 583 967 633 967 q 375 830 443 967 q 307 489 307 693 q 378 150 307 286 q 589 14 449 14 q 683 31 636 14 q 761 82 729 49 q 833 179 813 121 q 864 350 853 238 l 896 350 q 901 0 896 99 l 869 0 q 858 63 865 44 q 836 82 850 82 q 807 71 825 82 q 688 3 744 26 q 550 -19 631 -19 q 292 40 403 -19 q 121 213 182 100 q 60 483 60 326 q 122 754 60 636 q 297 938 185 872 q 551 1003 408 1003 m 819 1282 q 655 1188 731 1246 q 535 1065 579 1129 l 510 1065 q 391 1186 467 1128 q 225 1282 315 1244 l 232 1303 q 410 1263 322 1288 q 550 1213 499 1238 q 666 1263 593 1238 q 813 1303 739 1288 l 819 1282 z "},"Ç":{"ha":979,"x_min":60,"x_max":901,"o":"m 551 1003 q 693 979 635 1003 q 807 913 751 956 q 833 900 822 900 q 869 983 861 900 l 901 983 q 896 647 896 889 l 864 647 q 831 804 851 750 q 760 899 810 858 q 679 949 725 932 q 583 967 633 967 q 375 830 443 967 q 307 489 307 693 q 378 150 307 286 q 589 14 449 14 q 683 31 636 14 q 761 82 729 49 q 833 179 813 121 q 864 350 853 238 l 896 350 q 901 0 896 99 l 869 0 q 858 63 865 44 q 836 82 850 82 q 807 71 825 82 q 688 3 744 26 q 550 -19 631 -19 q 292 40 403 -19 q 121 213 182 100 q 60 483 60 326 q 122 754 60 636 q 297 938 185 872 q 551 1003 408 1003 m 543 -90 q 650 -74 590 -74 q 727 -94 700 -74 q 754 -149 754 -114 q 692 -233 754 -204 q 535 -261 629 -261 q 406 -244 456 -261 l 413 -219 q 482 -225 463 -225 q 571 -211 533 -225 q 608 -168 608 -197 q 544 -132 608 -132 q 490 -142 511 -132 l 536 7 l 574 7 l 543 -90 z "},"Ĉ":{"ha":979,"x_min":60,"x_max":901,"o":"m 551 1003 q 693 979 635 1003 q 807 913 751 956 q 833 900 822 900 q 869 983 861 900 l 901 983 q 896 647 896 889 l 864 647 q 831 804 851 750 q 760 899 810 858 q 679 949 725 932 q 583 967 633 967 q 375 830 443 967 q 307 489 307 693 q 378 150 307 286 q 589 14 449 14 q 683 31 636 14 q 761 82 729 49 q 833 179 813 121 q 864 350 853 238 l 896 350 q 901 0 896 99 l 869 0 q 858 63 865 44 q 836 82 850 82 q 807 71 825 82 q 688 3 744 26 q 550 -19 631 -19 q 292 40 403 -19 q 121 213 182 100 q 60 483 60 326 q 122 754 60 636 q 297 938 185 872 q 551 1003 408 1003 m 539 1306 q 659 1185 583 1243 q 824 1089 735 1126 l 817 1068 q 638 1110 726 1085 q 499 1158 550 1135 q 383 1110 456 1135 q 236 1068 310 1085 l 229 1089 q 394 1185 318 1126 q 514 1306 469 1243 l 539 1306 z "},"Ċ":{"ha":979,"x_min":60,"x_max":901,"o":"m 551 1003 q 693 979 635 1003 q 807 913 751 956 q 833 900 822 900 q 869 983 861 900 l 901 983 q 896 647 896 889 l 864 647 q 831 804 851 750 q 760 899 810 858 q 679 949 725 932 q 583 967 633 967 q 375 830 443 967 q 307 489 307 693 q 378 150 307 286 q 589 14 449 14 q 683 31 636 14 q 761 82 729 49 q 833 179 813 121 q 864 350 853 238 l 896 350 q 901 0 896 99 l 869 0 q 858 63 865 44 q 836 82 850 82 q 807 71 825 82 q 688 3 744 26 q 550 -19 631 -19 q 292 40 403 -19 q 121 213 182 100 q 60 483 60 326 q 122 754 60 636 q 297 938 185 872 q 551 1003 408 1003 m 528 1276 q 614 1248 582 1276 q 646 1169 646 1219 q 614 1091 646 1119 q 528 1063 582 1063 q 441 1091 472 1063 q 410 1169 410 1119 q 441 1248 410 1219 q 528 1276 472 1276 z "},"D":{"ha":1078,"x_min":47,"x_max":1017,"o":"m 476 983 q 882 860 747 983 q 1017 503 1017 738 q 951 238 1017 351 q 760 63 885 125 q 464 0 636 0 l 378 1 q 261 4 297 4 q 47 0 118 4 l 47 28 q 115 39 93 31 q 144 71 136 47 q 151 147 151 94 l 151 836 q 144 913 151 889 q 115 944 136 936 q 47 956 93 953 l 47 983 q 215 979 106 979 l 258 979 l 314 981 q 476 983 428 983 m 475 958 q 410 949 432 958 q 381 914 389 939 q 372 839 372 889 l 372 144 q 381 69 372 94 q 410 35 389 44 q 476 25 432 25 q 715 142 644 25 q 786 497 786 260 q 713 847 786 735 q 475 958 640 958 z "},"Ð":{"ha":1078,"x_min":11,"x_max":1017,"o":"m 476 983 q 882 860 747 983 q 1017 503 1017 738 q 951 238 1017 351 q 760 63 885 125 q 464 0 636 0 l 378 1 q 261 4 297 4 q 47 0 118 4 l 47 28 q 115 39 93 31 q 144 71 136 47 q 151 147 151 94 l 151 836 q 144 913 151 889 q 115 944 136 936 q 47 956 93 953 l 47 983 q 215 979 106 979 l 258 979 l 314 981 q 476 983 428 983 m 475 958 q 410 949 432 958 q 381 914 389 939 q 372 839 372 889 l 372 144 q 381 69 372 94 q 410 35 389 44 q 476 25 432 25 q 715 142 644 25 q 786 497 786 260 q 713 847 786 735 q 475 958 640 958 m 544 481 l 11 481 l 11 508 l 544 508 l 544 481 z "},"Ď":{"ha":1078,"x_min":47,"x_max":1017,"o":"m 476 983 q 882 860 747 983 q 1017 503 1017 738 q 951 238 1017 351 q 760 63 885 125 q 464 0 636 0 l 378 1 q 261 4 297 4 q 47 0 118 4 l 47 28 q 115 39 93 31 q 144 71 136 47 q 151 147 151 94 l 151 836 q 144 913 151 889 q 115 944 136 936 q 47 956 93 953 l 47 983 q 215 979 106 979 l 258 979 l 314 981 q 476 983 428 983 m 475 958 q 410 949 432 958 q 381 914 389 939 q 372 839 372 889 l 372 144 q 381 69 372 94 q 410 35 389 44 q 476 25 432 25 q 715 142 644 25 q 786 497 786 260 q 713 847 786 735 q 475 958 640 958 m 769 1282 q 605 1188 681 1246 q 485 1065 529 1129 l 460 1065 q 341 1186 417 1128 q 175 1282 265 1244 l 182 1303 q 360 1263 272 1288 q 500 1213 449 1238 q 616 1263 543 1238 q 763 1303 689 1288 l 769 1282 z "},"Đ":{"ha":1078,"x_min":11,"x_max":1017,"o":"m 476 983 q 882 860 747 983 q 1017 503 1017 738 q 951 238 1017 351 q 760 63 885 125 q 464 0 636 0 l 378 1 q 261 4 297 4 q 47 0 118 4 l 47 28 q 115 39 93 31 q 144 71 136 47 q 151 147 151 94 l 151 836 q 144 913 151 889 q 115 944 136 936 q 47 956 93 953 l 47 983 q 215 979 106 979 l 258 979 l 314 981 q 476 983 428 983 m 475 958 q 410 949 432 958 q 381 914 389 939 q 372 839 372 889 l 372 144 q 381 69 372 94 q 410 35 389 44 q 476 25 432 25 q 715 142 644 25 q 786 497 786 260 q 713 847 786 735 q 475 958 640 958 m 544 481 l 11 481 l 11 508 l 544 508 l 544 481 z "},"E":{"ha":881,"x_min":47,"x_max":818,"o":"m 808 211 q 818 0 808 83 q 500 4 724 4 q 47 0 197 4 l 47 28 q 115 39 93 31 q 144 71 136 47 q 151 147 151 94 l 151 836 q 144 913 151 889 q 115 944 136 936 q 47 956 93 953 l 47 983 q 500 979 197 979 q 790 983 704 979 q 781 778 781 868 q 785 683 781 717 l 753 683 q 678 892 732 832 q 525 951 624 951 l 468 951 q 406 944 425 951 q 379 917 386 938 q 372 853 372 897 l 372 508 l 417 508 q 528 563 490 508 q 582 692 567 617 l 614 692 q 610 561 610 633 l 610 494 q 618 297 610 424 l 586 297 q 417 481 557 481 l 372 481 l 372 131 q 379 66 372 86 q 406 39 386 46 q 468 32 425 32 l 536 32 q 695 99 635 32 q 781 328 756 167 l 813 328 q 808 211 808 282 z "},"É":{"ha":881,"x_min":47,"x_max":818,"o":"m 808 211 q 818 0 808 83 q 500 4 724 4 q 47 0 197 4 l 47 28 q 115 39 93 31 q 144 71 136 47 q 151 147 151 94 l 151 836 q 144 913 151 889 q 115 944 136 936 q 47 956 93 953 l 47 983 q 500 979 197 979 q 790 983 704 979 q 781 778 781 868 q 785 683 781 717 l 753 683 q 678 892 732 832 q 525 951 624 951 l 468 951 q 406 944 425 951 q 379 917 386 938 q 372 853 372 897 l 372 508 l 417 508 q 528 563 490 508 q 582 692 567 617 l 614 692 q 610 561 610 633 l 610 494 q 618 297 610 424 l 586 297 q 417 481 557 481 l 372 481 l 372 131 q 379 66 372 86 q 406 39 386 46 q 468 32 425 32 l 536 32 q 695 99 635 32 q 781 328 756 167 l 813 328 q 808 211 808 282 m 560 1297 q 603 1308 579 1308 q 644 1297 625 1308 q 672 1267 663 1286 q 681 1235 681 1253 q 668 1195 681 1214 q 633 1164 656 1176 q 585 1144 613 1153 q 525 1128 557 1135 q 463 1111 515 1125 q 344 1072 411 1097 l 335 1089 q 472 1221 403 1146 q 521 1269 503 1253 q 560 1297 539 1285 z "},"Ĕ":{"ha":881,"x_min":47,"x_max":818,"o":"m 808 211 q 818 0 808 83 q 500 4 724 4 q 47 0 197 4 l 47 28 q 115 39 93 31 q 144 71 136 47 q 151 147 151 94 l 151 836 q 144 913 151 889 q 115 944 136 936 q 47 956 93 953 l 47 983 q 500 979 197 979 q 790 983 704 979 q 781 778 781 868 q 785 683 781 717 l 753 683 q 678 892 732 832 q 525 951 624 951 l 468 951 q 406 944 425 951 q 379 917 386 938 q 372 853 372 897 l 372 508 l 417 508 q 528 563 490 508 q 582 692 567 617 l 614 692 q 610 561 610 633 l 610 494 q 618 297 610 424 l 586 297 q 417 481 557 481 l 372 481 l 372 131 q 379 66 372 86 q 406 39 386 46 q 468 32 425 32 l 536 32 q 695 99 635 32 q 781 328 756 167 l 813 328 q 808 211 808 282 m 738 1257 q 624 1126 703 1182 q 428 1071 544 1071 q 232 1126 311 1071 q 118 1257 153 1182 l 135 1271 q 253 1212 181 1236 q 428 1188 326 1188 q 601 1213 529 1188 q 721 1272 674 1238 l 738 1257 z "},"Ě":{"ha":881,"x_min":47,"x_max":818,"o":"m 808 211 q 818 0 808 83 q 500 4 724 4 q 47 0 197 4 l 47 28 q 115 39 93 31 q 144 71 136 47 q 151 147 151 94 l 151 836 q 144 913 151 889 q 115 944 136 936 q 47 956 93 953 l 47 983 q 500 979 197 979 q 790 983 704 979 q 781 778 781 868 q 785 683 781 717 l 753 683 q 678 892 732 832 q 525 951 624 951 l 468 951 q 406 944 425 951 q 379 917 386 938 q 372 853 372 897 l 372 508 l 417 508 q 528 563 490 508 q 582 692 567 617 l 614 692 q 610 561 610 633 l 610 494 q 618 297 610 424 l 586 297 q 417 481 557 481 l 372 481 l 372 131 q 379 66 372 86 q 406 39 386 46 q 468 32 425 32 l 536 32 q 695 99 635 32 q 781 328 756 167 l 813 328 q 808 211 808 282 m 729 1282 q 565 1188 640 1246 q 444 1065 489 1129 l 419 1065 q 301 1186 376 1128 q 135 1282 225 1244 l 142 1303 q 320 1263 232 1288 q 460 1213 408 1238 q 576 1263 503 1238 q 722 1303 649 1288 l 729 1282 z "},"Ê":{"ha":881,"x_min":47,"x_max":818,"o":"m 808 211 q 818 0 808 83 q 500 4 724 4 q 47 0 197 4 l 47 28 q 115 39 93 31 q 144 71 136 47 q 151 147 151 94 l 151 836 q 144 913 151 889 q 115 944 136 936 q 47 956 93 953 l 47 983 q 500 979 197 979 q 790 983 704 979 q 781 778 781 868 q 785 683 781 717 l 753 683 q 678 892 732 832 q 525 951 624 951 l 468 951 q 406 944 425 951 q 379 917 386 938 q 372 853 372 897 l 372 508 l 417 508 q 528 563 490 508 q 582 692 567 617 l 614 692 q 610 561 610 633 l 610 494 q 618 297 610 424 l 586 297 q 417 481 557 481 l 372 481 l 372 131 q 379 66 372 86 q 406 39 386 46 q 468 32 425 32 l 536 32 q 695 99 635 32 q 781 328 756 167 l 813 328 q 808 211 808 282 m 449 1306 q 569 1185 493 1243 q 733 1089 644 1126 l 726 1068 q 548 1110 636 1085 q 408 1158 460 1135 q 292 1110 365 1135 q 146 1068 219 1085 l 139 1089 q 303 1185 228 1126 q 424 1306 379 1243 l 449 1306 z "},"Ế":{"ha":881,"x_min":47,"x_max":818,"o":"m 808 211 q 818 0 808 83 q 500 4 724 4 q 47 0 197 4 l 47 28 q 115 39 93 31 q 144 71 136 47 q 151 147 151 94 l 151 836 q 144 913 151 889 q 115 944 136 936 q 47 956 93 953 l 47 983 q 500 979 197 979 q 790 983 704 979 q 781 778 781 868 q 785 683 781 717 l 753 683 q 678 892 732 832 q 525 951 624 951 l 468 951 q 406 944 425 951 q 379 917 386 938 q 372 853 372 897 l 372 508 l 417 508 q 528 563 490 508 q 582 692 567 617 l 614 692 q 610 561 610 633 l 610 494 q 618 297 610 424 l 586 297 q 417 481 557 481 l 372 481 l 372 131 q 379 66 372 86 q 406 39 386 46 q 468 32 425 32 l 536 32 q 695 99 635 32 q 781 328 756 167 l 813 328 q 808 211 808 282 m 449 1306 q 569 1185 493 1243 q 733 1089 644 1126 l 726 1068 q 548 1110 636 1085 q 408 1158 460 1135 q 292 1110 365 1135 q 146 1068 219 1085 l 139 1089 q 303 1185 228 1126 q 424 1306 379 1243 l 449 1306 m 560 1603 q 603 1614 579 1614 q 644 1603 625 1614 q 672 1572 663 1592 q 681 1540 681 1558 q 668 1501 681 1519 q 633 1469 656 1482 q 585 1449 613 1458 q 525 1433 557 1440 q 463 1417 515 1431 q 344 1378 411 1403 l 335 1394 q 472 1526 403 1451 q 521 1574 503 1558 q 560 1603 539 1590 z "},"Ệ":{"ha":881,"x_min":47,"x_max":818,"o":"m 808 211 q 818 0 808 83 q 500 4 724 4 q 47 0 197 4 l 47 28 q 115 39 93 31 q 144 71 136 47 q 151 147 151 94 l 151 836 q 144 913 151 889 q 115 944 136 936 q 47 956 93 953 l 47 983 q 500 979 197 979 q 790 983 704 979 q 781 778 781 868 q 785 683 781 717 l 753 683 q 678 892 732 832 q 525 951 624 951 l 468 951 q 406 944 425 951 q 379 917 386 938 q 372 853 372 897 l 372 508 l 417 508 q 528 563 490 508 q 582 692 567 617 l 614 692 q 610 561 610 633 l 610 494 q 618 297 610 424 l 586 297 q 417 481 557 481 l 372 481 l 372 131 q 379 66 372 86 q 406 39 386 46 q 468 32 425 32 l 536 32 q 695 99 635 32 q 781 328 756 167 l 813 328 q 808 211 808 282 m 449 1404 q 553 1252 486 1326 q 697 1132 619 1178 l 686 1113 q 530 1160 606 1132 q 408 1218 454 1189 q 310 1160 371 1189 q 186 1113 250 1131 l 175 1132 q 319 1251 253 1178 q 424 1404 385 1324 l 449 1404 m 449 -260 q 374 -235 401 -260 q 346 -168 346 -211 q 374 -101 346 -126 q 451 -76 401 -76 q 527 -101 500 -76 q 554 -168 554 -125 q 526 -235 554 -211 q 449 -260 497 -260 z "},"Ề":{"ha":881,"x_min":47,"x_max":818,"o":"m 808 211 q 818 0 808 83 q 500 4 724 4 q 47 0 197 4 l 47 28 q 115 39 93 31 q 144 71 136 47 q 151 147 151 94 l 151 836 q 144 913 151 889 q 115 944 136 936 q 47 956 93 953 l 47 983 q 500 979 197 979 q 790 983 704 979 q 781 778 781 868 q 785 683 781 717 l 753 683 q 678 892 732 832 q 525 951 624 951 l 468 951 q 406 944 425 951 q 379 917 386 938 q 372 853 372 897 l 372 508 l 417 508 q 528 563 490 508 q 582 692 567 617 l 614 692 q 610 561 610 633 l 610 494 q 618 297 610 424 l 586 297 q 417 481 557 481 l 372 481 l 372 131 q 379 66 372 86 q 406 39 386 46 q 468 32 425 32 l 536 32 q 695 99 635 32 q 781 328 756 167 l 813 328 q 808 211 808 282 m 449 1306 q 569 1185 493 1243 q 733 1089 644 1126 l 726 1068 q 548 1110 636 1085 q 408 1158 460 1135 q 292 1110 365 1135 q 146 1068 219 1085 l 139 1089 q 303 1185 228 1126 q 424 1306 379 1243 l 449 1306 m 304 1603 q 343 1574 325 1590 q 392 1526 361 1558 q 529 1394 461 1451 l 519 1378 q 401 1417 453 1403 q 339 1433 349 1431 q 279 1449 307 1440 q 231 1469 251 1458 q 196 1501 208 1482 q 183 1540 183 1519 q 192 1572 183 1558 q 220 1603 201 1592 q 261 1614 239 1614 q 304 1603 285 1614 z "},"Ể":{"ha":881,"x_min":47,"x_max":890,"o":"m 808 211 q 818 0 808 83 q 500 4 724 4 q 47 0 197 4 l 47 28 q 115 39 93 31 q 144 71 136 47 q 151 147 151 94 l 151 836 q 144 913 151 889 q 115 944 136 936 q 47 956 93 953 l 47 983 q 500 979 197 979 q 790 983 704 979 q 781 778 781 868 q 785 683 781 717 l 753 683 q 678 892 732 832 q 525 951 624 951 l 468 951 q 406 944 425 951 q 379 917 386 938 q 372 853 372 897 l 372 508 l 417 508 q 528 563 490 508 q 582 692 567 617 l 614 692 q 610 561 610 633 l 610 494 q 618 297 610 424 l 586 297 q 417 481 557 481 l 372 481 l 372 131 q 379 66 372 86 q 406 39 386 46 q 468 32 425 32 l 536 32 q 695 99 635 32 q 781 328 756 167 l 813 328 q 808 211 808 282 m 449 1306 q 569 1185 493 1243 q 733 1089 644 1126 l 726 1068 q 548 1110 636 1085 q 408 1158 460 1135 q 292 1110 365 1135 q 146 1068 219 1085 l 139 1089 q 303 1185 228 1126 q 424 1306 379 1243 l 449 1306 m 669 1358 q 761 1467 761 1397 q 731 1530 761 1508 q 656 1551 701 1551 q 590 1533 608 1551 q 635 1508 619 1526 q 650 1461 650 1489 q 628 1409 650 1429 q 575 1389 607 1389 q 522 1409 542 1389 q 501 1461 501 1429 q 517 1513 501 1490 q 557 1549 532 1535 q 692 1579 610 1579 q 833 1551 776 1579 q 890 1474 890 1524 q 837 1393 890 1426 q 697 1346 783 1360 l 697 1282 l 669 1282 l 669 1358 z "},"Ễ":{"ha":881,"x_min":47,"x_max":818,"o":"m 808 211 q 818 0 808 83 q 500 4 724 4 q 47 0 197 4 l 47 28 q 115 39 93 31 q 144 71 136 47 q 151 147 151 94 l 151 836 q 144 913 151 889 q 115 944 136 936 q 47 956 93 953 l 47 983 q 500 979 197 979 q 790 983 704 979 q 781 778 781 868 q 785 683 781 717 l 753 683 q 678 892 732 832 q 525 951 624 951 l 468 951 q 406 944 425 951 q 379 917 386 938 q 372 853 372 897 l 372 508 l 417 508 q 528 563 490 508 q 582 692 567 617 l 614 692 q 610 561 610 633 l 610 494 q 618 297 610 424 l 586 297 q 417 481 557 481 l 372 481 l 372 131 q 379 66 372 86 q 406 39 386 46 q 468 32 425 32 l 536 32 q 695 99 635 32 q 781 328 756 167 l 813 328 q 808 211 808 282 m 449 1306 q 569 1185 493 1243 q 733 1089 644 1126 l 726 1068 q 548 1110 636 1085 q 408 1158 460 1135 q 292 1110 365 1135 q 146 1068 219 1085 l 139 1089 q 303 1185 228 1126 q 424 1306 379 1243 l 449 1306 m 314 1589 q 395 1575 360 1589 q 474 1536 431 1561 q 542 1501 513 1513 q 606 1490 571 1490 q 721 1565 679 1490 l 740 1558 q 672 1419 722 1467 q 556 1372 622 1372 q 476 1385 510 1372 q 397 1425 442 1399 q 327 1460 357 1449 q 263 1471 297 1471 q 147 1394 192 1471 l 128 1401 q 198 1541 147 1493 q 314 1589 249 1589 z "},"Ë":{"ha":881,"x_min":47,"x_max":818,"o":"m 808 211 q 818 0 808 83 q 500 4 724 4 q 47 0 197 4 l 47 28 q 115 39 93 31 q 144 71 136 47 q 151 147 151 94 l 151 836 q 144 913 151 889 q 115 944 136 936 q 47 956 93 953 l 47 983 q 500 979 197 979 q 790 983 704 979 q 781 778 781 868 q 785 683 781 717 l 753 683 q 678 892 732 832 q 525 951 624 951 l 468 951 q 406 944 425 951 q 379 917 386 938 q 372 853 372 897 l 372 508 l 417 508 q 528 563 490 508 q 582 692 567 617 l 614 692 q 610 561 610 633 l 610 494 q 618 297 610 424 l 586 297 q 417 481 557 481 l 372 481 l 372 131 q 379 66 372 86 q 406 39 386 46 q 468 32 425 32 l 536 32 q 695 99 635 32 q 781 328 756 167 l 813 328 q 808 211 808 282 m 269 1274 q 343 1242 311 1274 q 375 1168 375 1210 q 343 1095 375 1126 q 269 1064 311 1064 q 196 1094 226 1064 q 165 1168 165 1125 q 197 1242 165 1210 q 269 1274 228 1274 m 603 1274 q 676 1242 644 1274 q 707 1168 707 1210 q 676 1094 707 1125 q 603 1064 644 1064 q 528 1094 560 1064 q 497 1168 497 1125 q 528 1242 497 1210 q 603 1274 560 1274 z "},"Ė":{"ha":881,"x_min":47,"x_max":818,"o":"m 808 211 q 818 0 808 83 q 500 4 724 4 q 47 0 197 4 l 47 28 q 115 39 93 31 q 144 71 136 47 q 151 147 151 94 l 151 836 q 144 913 151 889 q 115 944 136 936 q 47 956 93 953 l 47 983 q 500 979 197 979 q 790 983 704 979 q 781 778 781 868 q 785 683 781 717 l 753 683 q 678 892 732 832 q 525 951 624 951 l 468 951 q 406 944 425 951 q 379 917 386 938 q 372 853 372 897 l 372 508 l 417 508 q 528 563 490 508 q 582 692 567 617 l 614 692 q 610 561 610 633 l 610 494 q 618 297 610 424 l 586 297 q 417 481 557 481 l 372 481 l 372 131 q 379 66 372 86 q 406 39 386 46 q 468 32 425 32 l 536 32 q 695 99 635 32 q 781 328 756 167 l 813 328 q 808 211 808 282 m 438 1276 q 524 1248 492 1276 q 556 1169 556 1219 q 524 1091 556 1119 q 438 1063 492 1063 q 351 1091 382 1063 q 319 1169 319 1119 q 351 1248 319 1219 q 438 1276 382 1276 z "},"Ẹ":{"ha":881,"x_min":47,"x_max":818,"o":"m 808 211 q 818 0 808 83 q 500 4 724 4 q 47 0 197 4 l 47 28 q 115 39 93 31 q 144 71 136 47 q 151 147 151 94 l 151 836 q 144 913 151 889 q 115 944 136 936 q 47 956 93 953 l 47 983 q 500 979 197 979 q 790 983 704 979 q 781 778 781 868 q 785 683 781 717 l 753 683 q 678 892 732 832 q 525 951 624 951 l 468 951 q 406 944 425 951 q 379 917 386 938 q 372 853 372 897 l 372 508 l 417 508 q 528 563 490 508 q 582 692 567 617 l 614 692 q 610 561 610 633 l 610 494 q 618 297 610 424 l 586 297 q 417 481 557 481 l 372 481 l 372 131 q 379 66 372 86 q 406 39 386 46 q 468 32 425 32 l 536 32 q 695 99 635 32 q 781 328 756 167 l 813 328 q 808 211 808 282 m 449 -260 q 374 -235 401 -260 q 346 -168 346 -211 q 374 -101 346 -126 q 451 -76 401 -76 q 527 -101 500 -76 q 554 -168 554 -125 q 526 -235 554 -211 q 449 -260 497 -260 z "},"È":{"ha":881,"x_min":47,"x_max":818,"o":"m 808 211 q 818 0 808 83 q 500 4 724 4 q 47 0 197 4 l 47 28 q 115 39 93 31 q 144 71 136 47 q 151 147 151 94 l 151 836 q 144 913 151 889 q 115 944 136 936 q 47 956 93 953 l 47 983 q 500 979 197 979 q 790 983 704 979 q 781 778 781 868 q 785 683 781 717 l 753 683 q 678 892 732 832 q 525 951 624 951 l 468 951 q 406 944 425 951 q 379 917 386 938 q 372 853 372 897 l 372 508 l 417 508 q 528 563 490 508 q 582 692 567 617 l 614 692 q 610 561 610 633 l 610 494 q 618 297 610 424 l 586 297 q 417 481 557 481 l 372 481 l 372 131 q 379 66 372 86 q 406 39 386 46 q 468 32 425 32 l 536 32 q 695 99 635 32 q 781 328 756 167 l 813 328 q 808 211 808 282 m 304 1297 q 343 1269 325 1285 q 392 1221 361 1253 q 529 1089 461 1146 l 519 1072 q 401 1111 453 1097 q 339 1128 349 1125 q 279 1144 307 1135 q 231 1164 251 1153 q 196 1195 208 1176 q 183 1235 183 1214 q 192 1267 183 1253 q 220 1297 201 1286 q 261 1308 239 1308 q 304 1297 285 1308 z "},"Ẻ":{"ha":881,"x_min":47,"x_max":818,"o":"m 808 211 q 818 0 808 83 q 500 4 724 4 q 47 0 197 4 l 47 28 q 115 39 93 31 q 144 71 136 47 q 151 147 151 94 l 151 836 q 144 913 151 889 q 115 944 136 936 q 47 956 93 953 l 47 983 q 500 979 197 979 q 790 983 704 979 q 781 778 781 868 q 785 683 781 717 l 753 683 q 678 892 732 832 q 525 951 624 951 l 468 951 q 406 944 425 951 q 379 917 386 938 q 372 853 372 897 l 372 508 l 417 508 q 528 563 490 508 q 582 692 567 617 l 614 692 q 610 561 610 633 l 610 494 q 618 297 610 424 l 586 297 q 417 481 557 481 l 372 481 l 372 131 q 379 66 372 86 q 406 39 386 46 q 468 32 425 32 l 536 32 q 695 99 635 32 q 781 328 756 167 l 813 328 q 808 211 808 282 m 414 1135 q 506 1243 506 1174 q 476 1306 506 1285 q 400 1328 446 1328 q 335 1310 353 1328 q 379 1284 364 1303 q 394 1238 394 1265 q 373 1185 394 1206 q 319 1165 351 1165 q 266 1185 286 1165 q 246 1238 246 1206 q 261 1289 246 1267 q 301 1325 276 1311 q 436 1356 354 1356 q 578 1328 521 1356 q 635 1250 635 1300 q 581 1169 635 1203 q 442 1122 528 1136 l 442 1058 l 414 1058 l 414 1135 z "},"Ē":{"ha":881,"x_min":47,"x_max":818,"o":"m 808 211 q 818 0 808 83 q 500 4 724 4 q 47 0 197 4 l 47 28 q 115 39 93 31 q 144 71 136 47 q 151 147 151 94 l 151 836 q 144 913 151 889 q 115 944 136 936 q 47 956 93 953 l 47 983 q 500 979 197 979 q 790 983 704 979 q 781 778 781 868 q 785 683 781 717 l 753 683 q 678 892 732 832 q 525 951 624 951 l 468 951 q 406 944 425 951 q 379 917 386 938 q 372 853 372 897 l 372 508 l 417 508 q 528 563 490 508 q 582 692 567 617 l 614 692 q 610 561 610 633 l 610 494 q 618 297 610 424 l 586 297 q 417 481 557 481 l 372 481 l 372 131 q 379 66 372 86 q 406 39 386 46 q 468 32 425 32 l 536 32 q 695 99 635 32 q 781 328 756 167 l 813 328 q 808 211 808 282 m 714 1138 l 158 1138 l 158 1172 l 714 1172 l 714 1138 z "},"Ę":{"ha":881,"x_min":47,"x_max":828,"o":"m 808 211 q 818 0 808 83 q 500 4 724 4 q 47 0 197 4 l 47 28 q 115 39 93 31 q 144 71 136 47 q 151 147 151 94 l 151 836 q 144 913 151 889 q 115 944 136 936 q 47 956 93 953 l 47 983 q 500 979 197 979 q 790 983 704 979 q 781 778 781 868 q 785 683 781 717 l 753 683 q 678 892 732 832 q 525 951 624 951 l 468 951 q 406 944 425 951 q 379 917 386 938 q 372 853 372 897 l 372 508 l 417 508 q 528 563 490 508 q 582 692 567 617 l 614 692 q 610 561 610 633 l 610 494 q 618 297 610 424 l 586 297 q 417 481 557 481 l 372 481 l 372 131 q 379 66 372 86 q 406 39 386 46 q 468 32 425 32 l 536 32 q 695 99 635 32 q 781 328 756 167 l 813 328 q 808 211 808 282 m 814 4 q 699 -56 736 -19 q 663 -128 663 -92 q 721 -185 663 -185 q 769 -174 744 -185 q 810 -147 793 -164 l 828 -167 q 746 -239 792 -217 q 638 -261 700 -261 q 544 -235 578 -261 q 511 -165 511 -210 q 576 -65 511 -108 q 761 4 642 -21 l 814 4 z "},"Ẽ":{"ha":881,"x_min":47,"x_max":818,"o":"m 808 211 q 818 0 808 83 q 500 4 724 4 q 47 0 197 4 l 47 28 q 115 39 93 31 q 144 71 136 47 q 151 147 151 94 l 151 836 q 144 913 151 889 q 115 944 136 936 q 47 956 93 953 l 47 983 q 500 979 197 979 q 790 983 704 979 q 781 778 781 868 q 785 683 781 717 l 753 683 q 678 892 732 832 q 525 951 624 951 l 468 951 q 406 944 425 951 q 379 917 386 938 q 372 853 372 897 l 372 508 l 417 508 q 528 563 490 508 q 582 692 567 617 l 614 692 q 610 561 610 633 l 610 494 q 618 297 610 424 l 586 297 q 417 481 557 481 l 372 481 l 372 131 q 379 66 372 86 q 406 39 386 46 q 468 32 425 32 l 536 32 q 695 99 635 32 q 781 328 756 167 l 813 328 q 808 211 808 282 m 314 1283 q 395 1269 360 1283 q 474 1231 431 1256 q 542 1196 513 1207 q 606 1185 571 1185 q 721 1260 679 1185 l 740 1253 q 672 1114 722 1161 q 556 1067 622 1067 q 476 1080 510 1067 q 397 1119 442 1093 q 327 1154 357 1143 q 263 1165 297 1165 q 147 1089 192 1165 l 128 1096 q 198 1235 147 1188 q 314 1283 249 1283 z "},"Ʒ":{"ha":836,"x_min":54,"x_max":786,"o":"m 556 533 q 786 271 786 444 q 738 123 786 189 q 601 19 690 57 q 396 -19 513 -19 q 260 -4 321 -19 q 164 32 200 11 q 118 51 132 51 q 97 37 104 51 q 86 -10 90 22 l 54 -10 q 60 365 60 78 l 92 365 q 167 115 100 214 q 361 17 235 17 q 524 88 469 17 q 579 264 579 160 q 515 444 579 376 q 333 533 450 511 l 333 561 l 539 951 l 381 951 q 194 886 267 951 q 103 667 121 821 l 71 667 q 75 767 75 707 q 65 983 75 865 q 378 979 157 979 q 774 983 651 979 l 774 956 l 556 533 z "},"Ǯ":{"ha":836,"x_min":54,"x_max":786,"o":"m 556 533 q 786 271 786 444 q 738 123 786 189 q 601 19 690 57 q 396 -19 513 -19 q 260 -4 321 -19 q 164 32 200 11 q 118 51 132 51 q 97 37 104 51 q 86 -10 90 22 l 54 -10 q 60 365 60 78 l 92 365 q 167 115 100 214 q 361 17 235 17 q 524 88 469 17 q 579 264 579 160 q 515 444 579 376 q 333 533 450 511 l 333 561 l 539 951 l 381 951 q 194 886 267 951 q 103 667 121 821 l 71 667 q 75 767 75 707 q 65 983 75 865 q 378 979 157 979 q 774 983 651 979 l 774 956 l 556 533 m 713 1282 q 548 1188 624 1246 q 428 1065 472 1129 l 403 1065 q 284 1186 360 1128 q 118 1282 208 1244 l 125 1303 q 303 1263 215 1288 q 443 1213 392 1238 q 559 1263 486 1238 q 706 1303 632 1288 l 713 1282 z "},"F":{"ha":822,"x_min":47,"x_max":790,"o":"m 790 983 q 781 772 781 865 q 785 667 781 707 l 753 667 q 669 888 725 824 q 514 951 614 951 l 468 951 q 406 944 425 951 q 379 917 386 938 q 372 853 372 897 l 372 503 l 421 503 q 533 557 494 503 q 586 686 571 611 l 618 686 q 614 556 614 628 l 614 489 q 622 292 614 418 l 590 292 q 421 475 561 475 l 372 475 l 372 156 q 384 74 372 100 q 426 40 396 49 q 521 31 456 32 l 521 0 q 267 4 350 4 q 92 1 197 4 l 47 0 l 47 28 q 115 39 93 31 q 144 71 136 47 q 151 147 151 94 l 151 836 q 144 913 151 889 q 115 944 136 936 q 47 956 93 953 l 47 983 q 500 979 197 979 q 790 983 704 979 z "},"G":{"ha":1021,"x_min":60,"x_max":989,"o":"m 563 1003 q 708 979 649 1003 q 824 913 767 956 q 851 900 840 900 q 874 920 865 900 q 886 983 882 940 l 918 983 q 913 647 913 889 l 881 647 q 848 800 869 742 q 776 899 826 858 q 694 949 743 931 q 594 967 646 967 q 433 901 497 967 q 338 726 368 835 q 307 489 307 618 q 574 8 307 8 q 672 36 635 8 q 698 65 690 49 q 706 108 706 82 l 706 244 q 694 340 706 310 q 655 381 683 369 q 565 394 626 392 l 565 422 q 803 418 651 418 q 989 422 926 418 l 989 394 q 949 383 961 392 q 931 351 936 375 q 926 275 926 328 l 926 0 l 899 0 q 887 54 897 29 q 858 79 876 79 q 783 50 835 79 q 556 -19 663 -19 q 188 112 315 -19 q 60 481 60 243 q 124 754 60 636 q 303 938 189 872 q 563 1003 417 1003 z "},"Ǵ":{"ha":1021,"x_min":60,"x_max":989,"o":"m 563 1003 q 708 979 649 1003 q 824 913 767 956 q 851 900 840 900 q 874 920 865 900 q 886 983 882 940 l 918 983 q 913 647 913 889 l 881 647 q 848 800 869 742 q 776 899 826 858 q 694 949 743 931 q 594 967 646 967 q 433 901 497 967 q 338 726 368 835 q 307 489 307 618 q 574 8 307 8 q 672 36 635 8 q 698 65 690 49 q 706 108 706 82 l 706 244 q 694 340 706 310 q 655 381 683 369 q 565 394 626 392 l 565 422 q 803 418 651 418 q 989 422 926 418 l 989 394 q 949 383 961 392 q 931 351 936 375 q 926 275 926 328 l 926 0 l 899 0 q 887 54 897 29 q 858 79 876 79 q 783 50 835 79 q 556 -19 663 -19 q 188 112 315 -19 q 60 481 60 243 q 124 754 60 636 q 303 938 189 872 q 563 1003 417 1003 m 660 1297 q 703 1308 679 1308 q 744 1297 725 1308 q 772 1267 763 1286 q 781 1235 781 1253 q 768 1195 781 1214 q 733 1164 756 1176 q 685 1144 713 1153 q 625 1128 657 1135 q 563 1111 615 1125 q 444 1072 511 1097 l 435 1089 q 572 1221 503 1146 q 621 1269 603 1253 q 660 1297 639 1285 z "},"Ğ":{"ha":1021,"x_min":60,"x_max":989,"o":"m 563 1003 q 708 979 649 1003 q 824 913 767 956 q 851 900 840 900 q 874 920 865 900 q 886 983 882 940 l 918 983 q 913 647 913 889 l 881 647 q 848 800 869 742 q 776 899 826 858 q 694 949 743 931 q 594 967 646 967 q 433 901 497 967 q 338 726 368 835 q 307 489 307 618 q 574 8 307 8 q 672 36 635 8 q 698 65 690 49 q 706 108 706 82 l 706 244 q 694 340 706 310 q 655 381 683 369 q 565 394 626 392 l 565 422 q 803 418 651 418 q 989 422 926 418 l 989 394 q 949 383 961 392 q 931 351 936 375 q 926 275 926 328 l 926 0 l 899 0 q 887 54 897 29 q 858 79 876 79 q 783 50 835 79 q 556 -19 663 -19 q 188 112 315 -19 q 60 481 60 243 q 124 754 60 636 q 303 938 189 872 q 563 1003 417 1003 m 838 1257 q 724 1126 803 1182 q 528 1071 644 1071 q 332 1126 411 1071 q 218 1257 253 1182 l 235 1271 q 353 1212 281 1236 q 528 1188 426 1188 q 701 1213 629 1188 q 821 1272 774 1238 l 838 1257 z "},"Ǧ":{"ha":1021,"x_min":60,"x_max":989,"o":"m 563 1003 q 708 979 649 1003 q 824 913 767 956 q 851 900 840 900 q 874 920 865 900 q 886 983 882 940 l 918 983 q 913 647 913 889 l 881 647 q 848 800 869 742 q 776 899 826 858 q 694 949 743 931 q 594 967 646 967 q 433 901 497 967 q 338 726 368 835 q 307 489 307 618 q 574 8 307 8 q 672 36 635 8 q 698 65 690 49 q 706 108 706 82 l 706 244 q 694 340 706 310 q 655 381 683 369 q 565 394 626 392 l 565 422 q 803 418 651 418 q 989 422 926 418 l 989 394 q 949 383 961 392 q 931 351 936 375 q 926 275 926 328 l 926 0 l 899 0 q 887 54 897 29 q 858 79 876 79 q 783 50 835 79 q 556 -19 663 -19 q 188 112 315 -19 q 60 481 60 243 q 124 754 60 636 q 303 938 189 872 q 563 1003 417 1003 m 829 1282 q 665 1188 740 1246 q 544 1065 589 1129 l 519 1065 q 401 1186 476 1128 q 235 1282 325 1244 l 242 1303 q 420 1263 332 1288 q 560 1213 508 1238 q 676 1263 603 1238 q 822 1303 749 1288 l 829 1282 z "},"Ĝ":{"ha":1021,"x_min":60,"x_max":989,"o":"m 563 1003 q 708 979 649 1003 q 824 913 767 956 q 851 900 840 900 q 874 920 865 900 q 886 983 882 940 l 918 983 q 913 647 913 889 l 881 647 q 848 800 869 742 q 776 899 826 858 q 694 949 743 931 q 594 967 646 967 q 433 901 497 967 q 338 726 368 835 q 307 489 307 618 q 574 8 307 8 q 672 36 635 8 q 698 65 690 49 q 706 108 706 82 l 706 244 q 694 340 706 310 q 655 381 683 369 q 565 394 626 392 l 565 422 q 803 418 651 418 q 989 422 926 418 l 989 394 q 949 383 961 392 q 931 351 936 375 q 926 275 926 328 l 926 0 l 899 0 q 887 54 897 29 q 858 79 876 79 q 783 50 835 79 q 556 -19 663 -19 q 188 112 315 -19 q 60 481 60 243 q 124 754 60 636 q 303 938 189 872 q 563 1003 417 1003 m 549 1306 q 669 1185 593 1243 q 833 1089 744 1126 l 826 1068 q 648 1110 736 1085 q 508 1158 560 1135 q 392 1110 465 1135 q 246 1068 319 1085 l 239 1089 q 403 1185 328 1126 q 524 1306 479 1243 l 549 1306 z "},"Ģ":{"ha":1021,"x_min":60,"x_max":989,"o":"m 563 1003 q 708 979 649 1003 q 824 913 767 956 q 851 900 840 900 q 874 920 865 900 q 886 983 882 940 l 918 983 q 913 647 913 889 l 881 647 q 848 800 869 742 q 776 899 826 858 q 694 949 743 931 q 594 967 646 967 q 433 901 497 967 q 338 726 368 835 q 307 489 307 618 q 574 8 307 8 q 672 36 635 8 q 698 65 690 49 q 706 108 706 82 l 706 244 q 694 340 706 310 q 655 381 683 369 q 565 394 626 392 l 565 422 q 803 418 651 418 q 989 422 926 418 l 989 394 q 949 383 961 392 q 931 351 936 375 q 926 275 926 328 l 926 0 l 899 0 q 887 54 897 29 q 858 79 876 79 q 783 50 835 79 q 556 -19 663 -19 q 188 112 315 -19 q 60 481 60 243 q 124 754 60 636 q 303 938 189 872 q 563 1003 417 1003 m 553 -76 q 635 -106 603 -76 q 667 -183 667 -135 q 628 -287 667 -247 q 508 -337 589 -326 l 503 -308 q 614 -232 606 -293 q 546 -254 589 -254 q 474 -231 500 -254 q 447 -167 447 -208 q 476 -100 447 -124 q 553 -76 504 -76 z "},"Ġ":{"ha":1021,"x_min":60,"x_max":989,"o":"m 563 1003 q 708 979 649 1003 q 824 913 767 956 q 851 900 840 900 q 874 920 865 900 q 886 983 882 940 l 918 983 q 913 647 913 889 l 881 647 q 848 800 869 742 q 776 899 826 858 q 694 949 743 931 q 594 967 646 967 q 433 901 497 967 q 338 726 368 835 q 307 489 307 618 q 574 8 307 8 q 672 36 635 8 q 698 65 690 49 q 706 108 706 82 l 706 244 q 694 340 706 310 q 655 381 683 369 q 565 394 626 392 l 565 422 q 803 418 651 418 q 989 422 926 418 l 989 394 q 949 383 961 392 q 931 351 936 375 q 926 275 926 328 l 926 0 l 899 0 q 887 54 897 29 q 858 79 876 79 q 783 50 835 79 q 556 -19 663 -19 q 188 112 315 -19 q 60 481 60 243 q 124 754 60 636 q 303 938 189 872 q 563 1003 417 1003 m 538 1276 q 624 1248 592 1276 q 656 1169 656 1219 q 624 1091 656 1119 q 538 1063 592 1063 q 451 1091 482 1063 q 419 1169 419 1119 q 451 1248 419 1219 q 538 1276 482 1276 z "},"Ǥ":{"ha":1021,"x_min":60,"x_max":1021,"o":"m 1021 242 l 926 242 l 926 0 l 899 0 q 887 54 897 29 q 858 79 876 79 q 783 50 835 79 q 556 -19 663 -19 q 188 112 315 -19 q 60 481 60 243 q 124 754 60 636 q 303 938 189 872 q 563 1003 417 1003 q 708 979 649 1003 q 824 913 767 956 q 851 900 840 900 q 874 920 865 900 q 886 983 882 940 l 918 983 q 913 647 913 889 l 881 647 q 848 800 869 742 q 776 899 826 858 q 694 949 743 931 q 594 967 646 967 q 433 901 497 967 q 338 726 368 835 q 307 489 307 618 q 574 8 307 8 q 672 36 635 8 q 698 65 690 49 q 706 108 706 82 l 706 242 l 553 242 l 553 269 l 706 269 l 706 281 q 694 376 706 346 q 655 417 683 406 q 565 431 626 428 l 565 458 q 803 454 651 454 q 989 458 926 454 l 989 431 q 949 419 961 428 q 931 388 936 411 q 926 311 926 364 l 926 269 l 1021 269 l 1021 242 z "},"H":{"ha":1111,"x_min":47,"x_max":1065,"o":"m 1065 956 q 997 944 1018 953 q 969 913 976 936 q 961 836 961 889 l 961 147 q 969 71 961 94 q 997 39 976 47 q 1065 28 1018 31 l 1065 0 q 854 4 997 4 q 636 0 714 4 l 636 28 q 703 39 682 31 q 733 71 725 47 q 740 147 740 94 l 740 481 l 372 481 l 372 147 q 380 71 372 94 q 408 39 388 47 q 476 28 429 31 l 476 0 q 267 4 401 4 q 47 0 118 4 l 47 28 q 115 39 93 31 q 144 71 136 47 q 151 147 151 94 l 151 836 q 144 913 151 889 q 115 944 136 936 q 47 956 93 953 l 47 983 q 267 979 118 979 q 476 983 401 979 l 476 956 q 408 944 429 953 q 380 913 388 936 q 372 836 372 889 l 372 508 l 740 508 l 740 836 q 733 913 740 889 q 703 944 725 936 q 636 956 682 953 l 636 983 q 854 979 714 979 q 1065 983 997 979 l 1065 956 z "},"Ħ":{"ha":1111,"x_min":47,"x_max":1065,"o":"m 1065 956 q 997 944 1018 953 q 969 913 976 936 q 961 836 961 889 l 961 147 q 969 71 961 94 q 997 39 976 47 q 1065 28 1018 31 l 1065 0 q 854 4 997 4 q 636 0 714 4 l 636 28 q 703 39 682 31 q 733 71 725 47 q 740 147 740 94 l 740 481 l 372 481 l 372 147 q 380 71 372 94 q 408 39 388 47 q 476 28 429 31 l 476 0 q 267 4 401 4 q 47 0 118 4 l 47 28 q 115 39 93 31 q 144 71 136 47 q 151 147 151 94 l 151 836 q 144 913 151 889 q 115 944 136 936 q 47 956 93 953 l 47 983 q 267 979 118 979 q 476 983 401 979 l 476 956 q 408 944 429 953 q 380 913 388 936 q 372 836 372 889 l 372 508 l 740 508 l 740 836 q 733 913 740 889 q 703 944 725 936 q 636 956 682 953 l 636 983 q 854 979 714 979 q 1065 983 997 979 l 1065 956 m 1065 713 l 47 713 l 47 740 l 1065 740 l 1065 713 z "},"Ȟ":{"ha":1111,"x_min":47,"x_max":1065,"o":"m 1065 956 q 997 944 1018 953 q 969 913 976 936 q 961 836 961 889 l 961 147 q 969 71 961 94 q 997 39 976 47 q 1065 28 1018 31 l 1065 0 q 854 4 997 4 q 636 0 714 4 l 636 28 q 703 39 682 31 q 733 71 725 47 q 740 147 740 94 l 740 481 l 372 481 l 372 147 q 380 71 372 94 q 408 39 388 47 q 476 28 429 31 l 476 0 q 267 4 401 4 q 47 0 118 4 l 47 28 q 115 39 93 31 q 144 71 136 47 q 151 147 151 94 l 151 836 q 144 913 151 889 q 115 944 136 936 q 47 956 93 953 l 47 983 q 267 979 118 979 q 476 983 401 979 l 476 956 q 408 944 429 953 q 380 913 388 936 q 372 836 372 889 l 372 508 l 740 508 l 740 836 q 733 913 740 889 q 703 944 725 936 q 636 956 682 953 l 636 983 q 854 979 714 979 q 1065 983 997 979 l 1065 956 m 853 1282 q 688 1188 764 1246 q 568 1065 613 1129 l 543 1065 q 424 1186 500 1128 q 258 1282 349 1244 l 265 1303 q 444 1263 356 1288 q 583 1213 532 1238 q 699 1263 626 1238 q 846 1303 772 1288 l 853 1282 z "},"Ĥ":{"ha":1111,"x_min":47,"x_max":1065,"o":"m 1065 956 q 997 944 1018 953 q 969 913 976 936 q 961 836 961 889 l 961 147 q 969 71 961 94 q 997 39 976 47 q 1065 28 1018 31 l 1065 0 q 854 4 997 4 q 636 0 714 4 l 636 28 q 703 39 682 31 q 733 71 725 47 q 740 147 740 94 l 740 481 l 372 481 l 372 147 q 380 71 372 94 q 408 39 388 47 q 476 28 429 31 l 476 0 q 267 4 401 4 q 47 0 118 4 l 47 28 q 115 39 93 31 q 144 71 136 47 q 151 147 151 94 l 151 836 q 144 913 151 889 q 115 944 136 936 q 47 956 93 953 l 47 983 q 267 979 118 979 q 476 983 401 979 l 476 956 q 408 944 429 953 q 380 913 388 936 q 372 836 372 889 l 372 508 l 740 508 l 740 836 q 733 913 740 889 q 703 944 725 936 q 636 956 682 953 l 636 983 q 854 979 714 979 q 1065 983 997 979 l 1065 956 m 572 1306 q 692 1185 617 1243 q 857 1089 768 1126 l 850 1068 q 672 1110 760 1085 q 532 1158 583 1135 q 416 1110 489 1135 q 269 1068 343 1085 l 263 1089 q 427 1185 351 1126 q 547 1306 503 1243 l 572 1306 z "},"I":{"ha":522,"x_min":47,"x_max":476,"o":"m 476 956 q 408 944 429 953 q 380 913 388 936 q 372 836 372 889 l 372 147 q 380 71 372 94 q 408 39 388 47 q 476 28 429 31 l 476 0 q 267 4 401 4 q 47 0 118 4 l 47 28 q 115 39 93 31 q 144 71 136 47 q 151 147 151 94 l 151 836 q 144 913 151 889 q 115 944 136 936 q 47 956 93 953 l 47 983 q 267 979 118 979 q 476 983 401 979 l 476 956 z "},"Ĳ":{"ha":1025,"x_min":47,"x_max":986,"o":"m 476 956 q 408 944 429 953 q 380 913 388 936 q 372 836 372 889 l 372 147 q 380 71 372 94 q 408 39 388 47 q 476 28 429 31 l 476 0 q 267 4 401 4 q 47 0 118 4 l 47 28 q 115 39 93 31 q 144 71 136 47 q 151 147 151 94 l 151 836 q 144 913 151 889 q 115 944 136 936 q 47 956 93 953 l 47 983 q 267 979 118 979 q 476 983 401 979 l 476 956 m 486 -233 q 583 -199 544 -228 q 641 -105 621 -171 q 661 75 661 -39 l 661 836 q 653 913 661 889 q 624 944 646 936 q 557 956 603 953 l 557 983 q 767 979 626 979 q 986 983 910 979 l 986 956 q 918 944 939 953 q 890 913 897 936 q 882 836 882 889 l 882 328 l 882 243 q 858 -35 882 47 q 734 -199 829 -136 q 486 -261 639 -261 l 486 -233 z "},"Í":{"ha":522,"x_min":47,"x_max":511,"o":"m 476 956 q 408 944 429 953 q 380 913 388 936 q 372 836 372 889 l 372 147 q 380 71 372 94 q 408 39 388 47 q 476 28 429 31 l 476 0 q 267 4 401 4 q 47 0 118 4 l 47 28 q 115 39 93 31 q 144 71 136 47 q 151 147 151 94 l 151 836 q 144 913 151 889 q 115 944 136 936 q 47 956 93 953 l 47 983 q 267 979 118 979 q 476 983 401 979 l 476 956 m 390 1297 q 433 1308 410 1308 q 474 1297 456 1308 q 503 1267 493 1286 q 511 1235 511 1253 q 499 1195 511 1214 q 464 1164 486 1176 q 415 1144 443 1153 q 356 1128 388 1135 q 294 1111 346 1125 q 175 1072 242 1097 l 165 1089 q 303 1221 233 1146 q 351 1269 333 1253 q 390 1297 369 1285 z "},"Ĭ":{"ha":522,"x_min":-51,"x_max":568,"o":"m 476 956 q 408 944 429 953 q 380 913 388 936 q 372 836 372 889 l 372 147 q 380 71 372 94 q 408 39 388 47 q 476 28 429 31 l 476 0 q 267 4 401 4 q 47 0 118 4 l 47 28 q 115 39 93 31 q 144 71 136 47 q 151 147 151 94 l 151 836 q 144 913 151 889 q 115 944 136 936 q 47 956 93 953 l 47 983 q 267 979 118 979 q 476 983 401 979 l 476 956 m 568 1257 q 454 1126 533 1182 q 258 1071 375 1071 q 63 1126 142 1071 q -51 1257 -17 1182 l -35 1271 q 84 1212 11 1236 q 258 1188 157 1188 q 432 1213 360 1188 q 551 1272 504 1238 l 568 1257 z "},"Î":{"ha":522,"x_min":-31,"x_max":564,"o":"m 476 956 q 408 944 429 953 q 380 913 388 936 q 372 836 372 889 l 372 147 q 380 71 372 94 q 408 39 388 47 q 476 28 429 31 l 476 0 q 267 4 401 4 q 47 0 118 4 l 47 28 q 115 39 93 31 q 144 71 136 47 q 151 147 151 94 l 151 836 q 144 913 151 889 q 115 944 136 936 q 47 956 93 953 l 47 983 q 267 979 118 979 q 476 983 401 979 l 476 956 m 279 1306 q 399 1185 324 1243 q 564 1089 475 1126 l 557 1068 q 378 1110 467 1085 q 239 1158 290 1135 q 123 1110 196 1135 q -24 1068 50 1085 l -31 1089 q 134 1185 58 1126 q 254 1306 210 1243 l 279 1306 z "},"Ï":{"ha":522,"x_min":-4,"x_max":538,"o":"m 476 956 q 408 944 429 953 q 380 913 388 936 q 372 836 372 889 l 372 147 q 380 71 372 94 q 408 39 388 47 q 476 28 429 31 l 476 0 q 267 4 401 4 q 47 0 118 4 l 47 28 q 115 39 93 31 q 144 71 136 47 q 151 147 151 94 l 151 836 q 144 913 151 889 q 115 944 136 936 q 47 956 93 953 l 47 983 q 267 979 118 979 q 476 983 401 979 l 476 956 m 100 1274 q 174 1242 142 1274 q 206 1168 206 1210 q 174 1095 206 1126 q 100 1064 142 1064 q 26 1094 57 1064 q -4 1168 -4 1125 q 27 1242 -4 1210 q 100 1274 58 1274 m 433 1274 q 506 1242 475 1274 q 538 1168 538 1210 q 506 1094 538 1125 q 433 1064 475 1064 q 359 1094 390 1064 q 328 1168 328 1125 q 359 1242 328 1210 q 433 1274 390 1274 z "},"İ":{"ha":522,"x_min":47,"x_max":476,"o":"m 476 956 q 408 944 429 953 q 380 913 388 936 q 372 836 372 889 l 372 147 q 380 71 372 94 q 408 39 388 47 q 476 28 429 31 l 476 0 q 267 4 401 4 q 47 0 118 4 l 47 28 q 115 39 93 31 q 144 71 136 47 q 151 147 151 94 l 151 836 q 144 913 151 889 q 115 944 136 936 q 47 956 93 953 l 47 983 q 267 979 118 979 q 476 983 401 979 l 476 956 m 267 1342 q 359 1313 325 1342 q 393 1235 393 1285 q 359 1156 393 1185 q 267 1128 325 1128 q 174 1156 208 1128 q 140 1235 140 1185 q 174 1313 140 1285 q 267 1342 208 1342 z "},"Ị":{"ha":522,"x_min":47,"x_max":476,"o":"m 476 956 q 408 944 429 953 q 380 913 388 936 q 372 836 372 889 l 372 147 q 380 71 372 94 q 408 39 388 47 q 476 28 429 31 l 476 0 q 267 4 401 4 q 47 0 118 4 l 47 28 q 115 39 93 31 q 144 71 136 47 q 151 147 151 94 l 151 836 q 144 913 151 889 q 115 944 136 936 q 47 956 93 953 l 47 983 q 267 979 118 979 q 476 983 401 979 l 476 956 m 264 -260 q 189 -235 217 -260 q 161 -168 161 -211 q 189 -101 161 -126 q 267 -76 217 -76 q 342 -101 315 -76 q 369 -168 369 -125 q 341 -235 369 -211 q 264 -260 313 -260 z "},"Ì":{"ha":522,"x_min":14,"x_max":476,"o":"m 476 956 q 408 944 429 953 q 380 913 388 936 q 372 836 372 889 l 372 147 q 380 71 372 94 q 408 39 388 47 q 476 28 429 31 l 476 0 q 267 4 401 4 q 47 0 118 4 l 47 28 q 115 39 93 31 q 144 71 136 47 q 151 147 151 94 l 151 836 q 144 913 151 889 q 115 944 136 936 q 47 956 93 953 l 47 983 q 267 979 118 979 q 476 983 401 979 l 476 956 m 135 1297 q 174 1269 156 1285 q 222 1221 192 1253 q 360 1089 292 1146 l 350 1072 q 231 1111 283 1097 q 169 1128 179 1125 q 110 1144 138 1135 q 61 1164 82 1153 q 26 1195 39 1176 q 14 1235 14 1214 q 22 1267 14 1253 q 51 1297 32 1286 q 92 1308 69 1308 q 135 1297 115 1308 z "},"Ỉ":{"ha":522,"x_min":47,"x_max":476,"o":"m 476 956 q 408 944 429 953 q 380 913 388 936 q 372 836 372 889 l 372 147 q 380 71 372 94 q 408 39 388 47 q 476 28 429 31 l 476 0 q 267 4 401 4 q 47 0 118 4 l 47 28 q 115 39 93 31 q 144 71 136 47 q 151 147 151 94 l 151 836 q 144 913 151 889 q 115 944 136 936 q 47 956 93 953 l 47 983 q 267 979 118 979 q 476 983 401 979 l 476 956 m 244 1135 q 336 1243 336 1174 q 306 1306 336 1285 q 231 1328 276 1328 q 165 1310 183 1328 q 210 1284 194 1303 q 225 1238 225 1265 q 203 1185 225 1206 q 150 1165 182 1165 q 97 1185 117 1165 q 76 1238 76 1206 q 92 1289 76 1267 q 132 1325 107 1311 q 267 1356 185 1356 q 408 1328 351 1356 q 465 1250 465 1300 q 412 1169 465 1203 q 272 1122 358 1136 l 272 1058 l 244 1058 l 244 1135 z "},"Ī":{"ha":522,"x_min":-11,"x_max":544,"o":"m 476 956 q 408 944 429 953 q 380 913 388 936 q 372 836 372 889 l 372 147 q 380 71 372 94 q 408 39 388 47 q 476 28 429 31 l 476 0 q 267 4 401 4 q 47 0 118 4 l 47 28 q 115 39 93 31 q 144 71 136 47 q 151 147 151 94 l 151 836 q 144 913 151 889 q 115 944 136 936 q 47 956 93 953 l 47 983 q 267 979 118 979 q 476 983 401 979 l 476 956 m 544 1138 l -11 1138 l -11 1172 l 544 1172 l 544 1138 z "},"Į":{"ha":522,"x_min":47,"x_max":476,"o":"m 476 956 q 408 944 429 953 q 380 913 388 936 q 372 836 372 889 l 372 147 q 380 71 372 94 q 408 39 388 47 q 476 28 429 31 l 476 0 q 267 4 401 4 q 47 0 118 4 l 47 28 q 115 39 93 31 q 144 71 136 47 q 151 147 151 94 l 151 836 q 144 913 151 889 q 115 944 136 936 q 47 956 93 953 l 47 983 q 267 979 118 979 q 476 983 401 979 l 476 956 m 460 4 q 345 -56 382 -19 q 308 -128 308 -92 q 367 -185 308 -185 q 415 -174 390 -185 q 456 -147 439 -164 l 474 -167 q 392 -239 438 -217 q 283 -261 346 -261 q 190 -235 224 -261 q 157 -165 157 -210 q 222 -65 157 -108 q 407 4 288 -21 l 460 4 z "},"Ĩ":{"ha":522,"x_min":-42,"x_max":571,"o":"m 476 956 q 408 944 429 953 q 380 913 388 936 q 372 836 372 889 l 372 147 q 380 71 372 94 q 408 39 388 47 q 476 28 429 31 l 476 0 q 267 4 401 4 q 47 0 118 4 l 47 28 q 115 39 93 31 q 144 71 136 47 q 151 147 151 94 l 151 836 q 144 913 151 889 q 115 944 136 936 q 47 956 93 953 l 47 983 q 267 979 118 979 q 476 983 401 979 l 476 956 m 144 1283 q 226 1269 190 1283 q 304 1231 261 1256 q 372 1196 343 1207 q 436 1185 401 1185 q 551 1260 510 1185 l 571 1253 q 503 1114 553 1161 q 386 1067 453 1067 q 306 1080 340 1067 q 228 1119 272 1093 q 158 1154 188 1143 q 93 1165 128 1165 q -22 1089 22 1165 l -42 1096 q 28 1235 -22 1188 q 144 1283 79 1283 z "},"J":{"ha":506,"x_min":-32,"x_max":468,"o":"m -32 -233 q 65 -199 26 -228 q 123 -105 103 -171 q 143 75 143 -39 l 143 836 q 135 913 143 889 q 106 944 128 936 q 39 956 85 953 l 39 983 q 249 979 108 979 q 468 983 392 979 l 468 956 q 400 944 421 953 q 372 913 379 936 q 364 836 364 889 l 364 328 l 364 243 q 340 -35 364 47 q 216 -199 311 -136 q -32 -261 121 -261 l -32 -233 z "},"Ĵ":{"ha":506,"x_min":-47,"x_max":547,"o":"m -32 -233 q 65 -199 26 -228 q 123 -105 103 -171 q 143 75 143 -39 l 143 836 q 135 913 143 889 q 106 944 128 936 q 39 956 85 953 l 39 983 q 249 979 108 979 q 468 983 392 979 l 468 956 q 400 944 421 953 q 372 913 379 936 q 364 836 364 889 l 364 328 l 364 243 q 340 -35 364 47 q 216 -199 311 -136 q -32 -261 121 -261 l -32 -233 m 263 1306 q 383 1185 307 1243 q 547 1089 458 1126 l 540 1068 q 362 1110 450 1085 q 222 1158 274 1135 q 106 1110 179 1135 q -40 1068 33 1085 l -47 1089 q 117 1185 42 1126 q 238 1306 193 1243 l 263 1306 z "},"K":{"ha":992,"x_min":47,"x_max":1006,"o":"m 906 113 q 949 61 926 81 q 1006 28 971 42 l 1006 0 q 789 4 908 4 q 613 0 697 4 l 613 28 q 669 36 651 31 q 686 56 686 42 q 671 90 686 67 l 469 417 q 423 476 442 461 q 372 494 404 492 l 372 147 q 380 71 372 94 q 408 39 388 47 q 476 28 429 31 l 476 0 q 267 4 401 4 q 47 0 118 4 l 47 28 q 115 39 93 31 q 144 71 136 47 q 151 147 151 94 l 151 836 q 144 913 151 889 q 115 944 136 936 q 47 956 93 953 l 47 983 q 267 979 118 979 q 476 983 401 979 l 476 956 q 408 944 429 953 q 380 913 388 936 q 372 836 372 889 l 372 524 q 474 557 428 526 q 578 654 519 588 l 660 753 q 724 882 724 826 q 697 935 724 915 q 621 957 669 954 l 621 983 q 826 979 722 979 q 957 983 907 979 l 957 957 q 756 824 846 931 l 582 617 l 906 113 z "},"Ǩ":{"ha":992,"x_min":47,"x_max":1006,"o":"m 906 113 q 949 61 926 81 q 1006 28 971 42 l 1006 0 q 789 4 908 4 q 613 0 697 4 l 613 28 q 669 36 651 31 q 686 56 686 42 q 671 90 686 67 l 469 417 q 423 476 442 461 q 372 494 404 492 l 372 147 q 380 71 372 94 q 408 39 388 47 q 476 28 429 31 l 476 0 q 267 4 401 4 q 47 0 118 4 l 47 28 q 115 39 93 31 q 144 71 136 47 q 151 147 151 94 l 151 836 q 144 913 151 889 q 115 944 136 936 q 47 956 93 953 l 47 983 q 267 979 118 979 q 476 983 401 979 l 476 956 q 408 944 429 953 q 380 913 388 936 q 372 836 372 889 l 372 524 q 474 557 428 526 q 578 654 519 588 l 660 753 q 724 882 724 826 q 697 935 724 915 q 621 957 669 954 l 621 983 q 826 979 722 979 q 957 983 907 979 l 957 957 q 756 824 846 931 l 582 617 l 906 113 m 844 1282 q 680 1188 756 1246 q 560 1065 604 1129 l 535 1065 q 416 1186 492 1128 q 250 1282 340 1244 l 257 1303 q 435 1263 347 1288 q 575 1213 524 1238 q 691 1263 618 1238 q 838 1303 764 1288 l 844 1282 z "},"Ķ":{"ha":992,"x_min":47,"x_max":1006,"o":"m 906 113 q 949 61 926 81 q 1006 28 971 42 l 1006 0 q 789 4 908 4 q 613 0 697 4 l 613 28 q 669 36 651 31 q 686 56 686 42 q 671 90 686 67 l 469 417 q 423 476 442 461 q 372 494 404 492 l 372 147 q 380 71 372 94 q 408 39 388 47 q 476 28 429 31 l 476 0 q 267 4 401 4 q 47 0 118 4 l 47 28 q 115 39 93 31 q 144 71 136 47 q 151 147 151 94 l 151 836 q 144 913 151 889 q 115 944 136 936 q 47 956 93 953 l 47 983 q 267 979 118 979 q 476 983 401 979 l 476 956 q 408 944 429 953 q 380 913 388 936 q 372 836 372 889 l 372 524 q 474 557 428 526 q 578 654 519 588 l 660 753 q 724 882 724 826 q 697 935 724 915 q 621 957 669 954 l 621 983 q 826 979 722 979 q 957 983 907 979 l 957 957 q 756 824 846 931 l 582 617 l 906 113 m 547 -76 q 629 -106 597 -76 q 661 -183 661 -135 q 622 -287 661 -247 q 503 -337 583 -326 l 497 -308 q 608 -232 600 -293 q 540 -254 583 -254 q 468 -231 494 -254 q 442 -167 442 -208 q 470 -100 442 -124 q 547 -76 499 -76 z "},"L":{"ha":849,"x_min":47,"x_max":818,"o":"m 485 956 q 412 944 435 953 q 381 913 389 936 q 372 836 372 889 l 372 131 q 379 66 372 86 q 403 39 386 46 q 460 32 421 32 l 528 32 q 691 117 622 32 q 781 342 760 201 l 813 342 q 808 219 808 294 q 818 0 808 86 q 500 4 724 4 q 47 0 197 4 l 47 28 q 115 39 93 31 q 144 71 136 47 q 151 147 151 94 l 151 836 q 144 913 151 889 q 115 944 136 936 q 47 956 93 953 l 47 983 q 267 979 118 979 q 485 983 408 979 l 485 956 z "},"Ĺ":{"ha":849,"x_min":47,"x_max":818,"o":"m 485 956 q 412 944 435 953 q 381 913 389 936 q 372 836 372 889 l 372 131 q 379 66 372 86 q 403 39 386 46 q 460 32 421 32 l 528 32 q 691 117 622 32 q 781 342 760 201 l 813 342 q 808 219 808 294 q 818 0 808 86 q 500 4 724 4 q 47 0 197 4 l 47 28 q 115 39 93 31 q 144 71 136 47 q 151 147 151 94 l 151 836 q 144 913 151 889 q 115 944 136 936 q 47 956 93 953 l 47 983 q 267 979 118 979 q 485 983 408 979 l 485 956 m 390 1297 q 433 1308 410 1308 q 474 1297 456 1308 q 503 1267 493 1286 q 511 1235 511 1253 q 499 1195 511 1214 q 464 1164 486 1176 q 415 1144 443 1153 q 356 1128 388 1135 q 294 1111 346 1125 q 175 1072 242 1097 l 165 1089 q 303 1221 233 1146 q 351 1269 333 1253 q 390 1297 369 1285 z "},"Ľ":{"ha":849,"x_min":47,"x_max":818,"o":"m 485 956 q 412 944 435 953 q 381 913 389 936 q 372 836 372 889 l 372 131 q 379 66 372 86 q 403 39 386 46 q 460 32 421 32 l 528 32 q 691 117 622 32 q 781 342 760 201 l 813 342 q 808 219 808 294 q 818 0 808 86 q 500 4 724 4 q 47 0 197 4 l 47 28 q 115 39 93 31 q 144 71 136 47 q 151 147 151 94 l 151 836 q 144 913 151 889 q 115 944 136 936 q 47 956 93 953 l 47 983 q 267 979 118 979 q 485 983 408 979 l 485 956 m 757 992 q 764 942 764 975 q 728 844 764 901 q 601 664 693 788 l 582 669 q 610 899 610 847 q 601 941 610 928 q 568 954 593 954 l 568 983 q 642 981 596 981 q 757 992 699 981 z "},"Ļ":{"ha":849,"x_min":47,"x_max":818,"o":"m 485 956 q 412 944 435 953 q 381 913 389 936 q 372 836 372 889 l 372 131 q 379 66 372 86 q 403 39 386 46 q 460 32 421 32 l 528 32 q 691 117 622 32 q 781 342 760 201 l 813 342 q 808 219 808 294 q 818 0 808 86 q 500 4 724 4 q 47 0 197 4 l 47 28 q 115 39 93 31 q 144 71 136 47 q 151 147 151 94 l 151 836 q 144 913 151 889 q 115 944 136 936 q 47 956 93 953 l 47 983 q 267 979 118 979 q 485 983 408 979 l 485 956 m 486 -76 q 568 -106 536 -76 q 600 -183 600 -135 q 561 -287 600 -247 q 442 -337 522 -326 l 436 -308 q 547 -232 539 -293 q 479 -254 522 -254 q 407 -231 433 -254 q 381 -167 381 -208 q 409 -100 381 -124 q 486 -76 438 -76 z "},"Ŀ":{"ha":849,"x_min":47,"x_max":818,"o":"m 485 956 q 412 944 435 953 q 381 913 389 936 q 372 836 372 889 l 372 131 q 379 66 372 86 q 403 39 386 46 q 460 32 421 32 l 528 32 q 691 117 622 32 q 781 342 760 201 l 813 342 q 808 219 808 294 q 818 0 808 86 q 500 4 724 4 q 47 0 197 4 l 47 28 q 115 39 93 31 q 144 71 136 47 q 151 147 151 94 l 151 836 q 144 913 151 889 q 115 944 136 936 q 47 956 93 953 l 47 983 q 267 979 118 979 q 485 983 408 979 l 485 956 m 685 713 q 771 684 739 713 q 803 606 803 656 q 771 527 803 556 q 685 499 739 499 q 599 527 631 499 q 567 606 567 556 q 599 684 567 656 q 685 713 631 713 z "},"Ł":{"ha":849,"x_min":33,"x_max":818,"o":"m 485 956 q 412 944 435 953 q 381 913 389 936 q 372 836 372 889 l 372 131 q 379 66 372 86 q 403 39 386 46 q 460 32 421 32 l 528 32 q 691 117 622 32 q 781 342 760 201 l 813 342 q 808 219 808 294 q 818 0 808 86 q 500 4 724 4 q 47 0 197 4 l 47 28 q 115 39 93 31 q 144 71 136 47 q 151 147 151 94 l 151 836 q 144 913 151 889 q 115 944 136 936 q 47 956 93 953 l 47 983 q 267 979 118 979 q 485 983 408 979 l 485 956 m 643 657 l 643 625 l 249 396 l 249 410 l 33 285 l 33 317 l 249 442 l 249 428 l 643 657 z "},"M":{"ha":1288,"x_min":49,"x_max":1242,"o":"m 1242 956 q 1174 944 1194 953 q 1145 913 1153 936 q 1138 836 1138 889 l 1138 147 q 1145 71 1138 94 q 1174 39 1153 47 q 1242 28 1196 31 l 1242 0 q 1024 4 1165 4 q 804 0 875 4 l 804 28 q 877 39 854 31 q 908 71 900 47 q 917 147 917 94 l 917 874 l 582 -1 l 560 -1 l 185 893 l 185 228 q 193 108 185 146 q 229 52 201 69 q 319 28 257 35 l 319 0 q 169 4 265 4 q 49 0 93 4 l 49 28 q 116 51 94 35 q 145 104 138 68 q 153 211 153 140 l 153 836 q 145 913 153 889 q 116 944 138 936 q 49 956 94 953 l 49 983 q 169 979 93 979 q 389 983 297 979 l 669 307 l 925 979 l 1024 979 q 1242 983 1165 979 l 1242 956 z "},"N":{"ha":1003,"x_min":49,"x_max":963,"o":"m 963 956 q 895 932 917 949 q 866 879 874 915 q 858 772 858 843 l 858 -3 l 825 -1 l 788 -3 l 185 761 l 185 228 q 193 108 185 146 q 229 52 201 69 q 319 28 257 35 l 319 0 q 169 4 265 4 q 49 0 93 4 l 49 28 q 116 51 94 35 q 145 104 138 68 q 153 211 153 140 l 153 836 q 145 913 153 889 q 116 944 138 936 q 49 956 94 953 l 49 983 q 169 979 93 979 q 289 983 239 979 l 826 321 l 826 756 q 818 876 826 838 q 782 931 810 914 q 692 956 754 949 l 692 983 q 842 979 746 979 q 963 983 919 979 l 963 956 z "},"Ń":{"ha":1003,"x_min":49,"x_max":963,"o":"m 963 956 q 895 932 917 949 q 866 879 874 915 q 858 772 858 843 l 858 -3 l 825 -1 l 788 -3 l 185 761 l 185 228 q 193 108 185 146 q 229 52 201 69 q 319 28 257 35 l 319 0 q 169 4 265 4 q 49 0 93 4 l 49 28 q 116 51 94 35 q 145 104 138 68 q 153 211 153 140 l 153 836 q 145 913 153 889 q 116 944 138 936 q 49 956 94 953 l 49 983 q 169 979 93 979 q 289 983 239 979 l 826 321 l 826 756 q 818 876 826 838 q 782 931 810 914 q 692 956 754 949 l 692 983 q 842 979 746 979 q 963 983 919 979 l 963 956 m 650 1297 q 693 1308 669 1308 q 734 1297 715 1308 q 763 1267 753 1286 q 771 1235 771 1253 q 758 1195 771 1214 q 724 1164 746 1176 q 675 1144 703 1153 q 615 1128 647 1135 q 553 1111 606 1125 q 435 1072 501 1097 l 425 1089 q 563 1221 493 1146 q 611 1269 593 1253 q 650 1297 629 1285 z "},"Ň":{"ha":1003,"x_min":49,"x_max":963,"o":"m 963 956 q 895 932 917 949 q 866 879 874 915 q 858 772 858 843 l 858 -3 l 825 -1 l 788 -3 l 185 761 l 185 228 q 193 108 185 146 q 229 52 201 69 q 319 28 257 35 l 319 0 q 169 4 265 4 q 49 0 93 4 l 49 28 q 116 51 94 35 q 145 104 138 68 q 153 211 153 140 l 153 836 q 145 913 153 889 q 116 944 138 936 q 49 956 94 953 l 49 983 q 169 979 93 979 q 289 983 239 979 l 826 321 l 826 756 q 818 876 826 838 q 782 931 810 914 q 692 956 754 949 l 692 983 q 842 979 746 979 q 963 983 919 979 l 963 956 m 819 1282 q 655 1188 731 1246 q 535 1065 579 1129 l 510 1065 q 391 1186 467 1128 q 225 1282 315 1244 l 232 1303 q 410 1263 322 1288 q 550 1213 499 1238 q 666 1263 593 1238 q 813 1303 739 1288 l 819 1282 z "},"Ņ":{"ha":1003,"x_min":49,"x_max":963,"o":"m 963 956 q 895 932 917 949 q 866 879 874 915 q 858 772 858 843 l 858 -3 l 825 -1 l 788 -3 l 185 761 l 185 228 q 193 108 185 146 q 229 52 201 69 q 319 28 257 35 l 319 0 q 169 4 265 4 q 49 0 93 4 l 49 28 q 116 51 94 35 q 145 104 138 68 q 153 211 153 140 l 153 836 q 145 913 153 889 q 116 944 138 936 q 49 956 94 953 l 49 983 q 169 979 93 979 q 289 983 239 979 l 826 321 l 826 756 q 818 876 826 838 q 782 931 810 914 q 692 956 754 949 l 692 983 q 842 979 746 979 q 963 983 919 979 l 963 956 m 511 -76 q 593 -106 561 -76 q 625 -183 625 -135 q 586 -287 625 -247 q 467 -337 547 -326 l 461 -308 q 572 -232 564 -293 q 504 -254 547 -254 q 432 -231 458 -254 q 406 -167 406 -208 q 434 -100 406 -124 q 511 -76 463 -76 z "},"Ŋ":{"ha":999,"x_min":47,"x_max":961,"o":"m 840 979 q 961 983 918 979 l 961 956 q 893 944 914 953 q 865 913 872 936 q 857 836 857 889 l 857 89 q 833 -126 857 -50 q 765 -232 808 -203 q 656 -261 722 -261 q 539 -233 583 -261 q 494 -150 494 -206 q 524 -82 494 -107 q 601 -57 554 -57 q 676 -81 647 -57 q 704 -143 704 -104 q 688 -197 704 -172 q 642 -233 672 -221 q 669 -235 650 -235 q 780 -176 743 -235 q 824 -1 817 -118 q 785 -3 800 -1 l 183 761 l 183 147 q 192 71 183 94 q 223 39 200 47 q 296 28 246 31 l 296 0 q 168 4 246 4 q 47 0 89 4 l 47 28 q 115 39 93 31 q 144 71 136 47 q 151 147 151 94 l 151 836 q 144 913 151 889 q 115 944 136 936 q 47 956 93 953 l 47 983 q 168 979 89 979 q 296 983 243 979 l 825 332 l 825 836 q 817 913 825 889 q 785 944 808 936 q 713 956 763 953 l 713 983 q 840 979 763 979 z "},"Ñ":{"ha":1003,"x_min":49,"x_max":963,"o":"m 963 956 q 895 932 917 949 q 866 879 874 915 q 858 772 858 843 l 858 -3 l 825 -1 l 788 -3 l 185 761 l 185 228 q 193 108 185 146 q 229 52 201 69 q 319 28 257 35 l 319 0 q 169 4 265 4 q 49 0 93 4 l 49 28 q 116 51 94 35 q 145 104 138 68 q 153 211 153 140 l 153 836 q 145 913 153 889 q 116 944 138 936 q 49 956 94 953 l 49 983 q 169 979 93 979 q 289 983 239 979 l 826 321 l 826 756 q 818 876 826 838 q 782 931 810 914 q 692 956 754 949 l 692 983 q 842 979 746 979 q 963 983 919 979 l 963 956 m 404 1283 q 485 1269 450 1283 q 564 1231 521 1256 q 632 1196 603 1207 q 696 1185 661 1185 q 811 1260 769 1185 l 831 1253 q 763 1114 813 1161 q 646 1067 713 1067 q 566 1080 600 1067 q 488 1119 532 1093 q 417 1154 447 1143 q 353 1165 388 1165 q 238 1089 282 1165 l 218 1096 q 288 1235 238 1188 q 404 1283 339 1283 z "},"O":{"ha":1101,"x_min":60,"x_max":1042,"o":"m 551 1003 q 809 943 699 1003 q 981 770 919 883 q 1042 500 1042 657 q 979 229 1042 347 q 805 46 917 111 q 550 -19 693 -19 q 292 40 403 -19 q 121 213 182 100 q 60 483 60 326 q 122 754 60 636 q 297 938 185 872 q 551 1003 408 1003 m 546 978 q 411 916 469 978 q 322 743 353 854 q 290 489 290 632 q 326 235 290 344 q 422 65 361 125 q 556 6 482 6 q 690 67 632 6 q 780 240 749 129 q 811 494 811 351 q 776 749 811 639 q 680 918 740 858 q 546 978 619 978 z "},"Ó":{"ha":1101,"x_min":60,"x_max":1042,"o":"m 551 1003 q 809 943 699 1003 q 981 770 919 883 q 1042 500 1042 657 q 979 229 1042 347 q 805 46 917 111 q 550 -19 693 -19 q 292 40 403 -19 q 121 213 182 100 q 60 483 60 326 q 122 754 60 636 q 297 938 185 872 q 551 1003 408 1003 m 546 978 q 411 916 469 978 q 322 743 353 854 q 290 489 290 632 q 326 235 290 344 q 422 65 361 125 q 556 6 482 6 q 690 67 632 6 q 780 240 749 129 q 811 494 811 351 q 776 749 811 639 q 680 918 740 858 q 546 978 619 978 m 672 1297 q 715 1308 692 1308 q 756 1297 738 1308 q 785 1267 775 1286 q 793 1235 793 1253 q 781 1195 793 1214 q 746 1164 768 1176 q 697 1144 725 1153 q 638 1128 669 1135 q 576 1111 628 1125 q 457 1072 524 1097 l 447 1089 q 585 1221 515 1146 q 633 1269 615 1253 q 672 1297 651 1285 z "},"Ŏ":{"ha":1101,"x_min":60,"x_max":1042,"o":"m 551 1003 q 809 943 699 1003 q 981 770 919 883 q 1042 500 1042 657 q 979 229 1042 347 q 805 46 917 111 q 550 -19 693 -19 q 292 40 403 -19 q 121 213 182 100 q 60 483 60 326 q 122 754 60 636 q 297 938 185 872 q 551 1003 408 1003 m 546 978 q 411 916 469 978 q 322 743 353 854 q 290 489 290 632 q 326 235 290 344 q 422 65 361 125 q 556 6 482 6 q 690 67 632 6 q 780 240 749 129 q 811 494 811 351 q 776 749 811 639 q 680 918 740 858 q 546 978 619 978 m 850 1257 q 736 1126 815 1182 q 540 1071 657 1071 q 344 1126 424 1071 q 231 1257 265 1182 l 247 1271 q 366 1212 293 1236 q 540 1188 439 1188 q 714 1213 642 1188 q 833 1272 786 1238 l 850 1257 z "},"Ô":{"ha":1101,"x_min":60,"x_max":1042,"o":"m 551 1003 q 809 943 699 1003 q 981 770 919 883 q 1042 500 1042 657 q 979 229 1042 347 q 805 46 917 111 q 550 -19 693 -19 q 292 40 403 -19 q 121 213 182 100 q 60 483 60 326 q 122 754 60 636 q 297 938 185 872 q 551 1003 408 1003 m 546 978 q 411 916 469 978 q 322 743 353 854 q 290 489 290 632 q 326 235 290 344 q 422 65 361 125 q 556 6 482 6 q 690 67 632 6 q 780 240 749 129 q 811 494 811 351 q 776 749 811 639 q 680 918 740 858 q 546 978 619 978 m 561 1306 q 681 1185 606 1243 q 846 1089 757 1126 l 839 1068 q 660 1110 749 1085 q 521 1158 572 1135 q 405 1110 478 1135 q 258 1068 332 1085 l 251 1089 q 416 1185 340 1126 q 536 1306 492 1243 l 561 1306 z "},"Ố":{"ha":1101,"x_min":60,"x_max":1042,"o":"m 551 1003 q 809 943 699 1003 q 981 770 919 883 q 1042 500 1042 657 q 979 229 1042 347 q 805 46 917 111 q 550 -19 693 -19 q 292 40 403 -19 q 121 213 182 100 q 60 483 60 326 q 122 754 60 636 q 297 938 185 872 q 551 1003 408 1003 m 546 978 q 411 916 469 978 q 322 743 353 854 q 290 489 290 632 q 326 235 290 344 q 422 65 361 125 q 556 6 482 6 q 690 67 632 6 q 780 240 749 129 q 811 494 811 351 q 776 749 811 639 q 680 918 740 858 q 546 978 619 978 m 561 1306 q 681 1185 606 1243 q 846 1089 757 1126 l 839 1068 q 660 1110 749 1085 q 521 1158 572 1135 q 405 1110 478 1135 q 258 1068 332 1085 l 251 1089 q 416 1185 340 1126 q 536 1306 492 1243 l 561 1306 m 672 1603 q 715 1614 692 1614 q 756 1603 738 1614 q 785 1572 775 1592 q 793 1540 793 1558 q 781 1501 793 1519 q 746 1469 768 1482 q 697 1449 725 1458 q 638 1433 669 1440 q 576 1417 628 1431 q 457 1378 524 1403 l 447 1394 q 585 1526 515 1451 q 633 1574 615 1558 q 672 1603 651 1590 z "},"Ộ":{"ha":1101,"x_min":60,"x_max":1042,"o":"m 551 1003 q 809 943 699 1003 q 981 770 919 883 q 1042 500 1042 657 q 979 229 1042 347 q 805 46 917 111 q 550 -19 693 -19 q 292 40 403 -19 q 121 213 182 100 q 60 483 60 326 q 122 754 60 636 q 297 938 185 872 q 551 1003 408 1003 m 546 978 q 411 916 469 978 q 322 743 353 854 q 290 489 290 632 q 326 235 290 344 q 422 65 361 125 q 556 6 482 6 q 690 67 632 6 q 780 240 749 129 q 811 494 811 351 q 776 749 811 639 q 680 918 740 858 q 546 978 619 978 m 561 1306 q 681 1185 606 1243 q 846 1089 757 1126 l 839 1068 q 660 1110 749 1085 q 521 1158 572 1135 q 405 1110 478 1135 q 258 1068 332 1085 l 251 1089 q 416 1185 340 1126 q 536 1306 492 1243 l 561 1306 m 550 -260 q 475 -235 503 -260 q 447 -168 447 -211 q 475 -101 447 -126 q 553 -76 503 -76 q 628 -101 601 -76 q 656 -168 656 -125 q 627 -235 656 -211 q 550 -260 599 -260 z "},"Ồ":{"ha":1101,"x_min":60,"x_max":1042,"o":"m 551 1003 q 809 943 699 1003 q 981 770 919 883 q 1042 500 1042 657 q 979 229 1042 347 q 805 46 917 111 q 550 -19 693 -19 q 292 40 403 -19 q 121 213 182 100 q 60 483 60 326 q 122 754 60 636 q 297 938 185 872 q 551 1003 408 1003 m 546 978 q 411 916 469 978 q 322 743 353 854 q 290 489 290 632 q 326 235 290 344 q 422 65 361 125 q 556 6 482 6 q 690 67 632 6 q 780 240 749 129 q 811 494 811 351 q 776 749 811 639 q 680 918 740 858 q 546 978 619 978 m 561 1306 q 681 1185 606 1243 q 846 1089 757 1126 l 839 1068 q 660 1110 749 1085 q 521 1158 572 1135 q 405 1110 478 1135 q 258 1068 332 1085 l 251 1089 q 416 1185 340 1126 q 536 1306 492 1243 l 561 1306 m 417 1603 q 456 1574 438 1590 q 504 1526 474 1558 q 642 1394 574 1451 l 632 1378 q 513 1417 565 1403 q 451 1433 461 1431 q 392 1449 419 1440 q 343 1469 364 1458 q 308 1501 321 1482 q 296 1540 296 1519 q 304 1572 296 1558 q 333 1603 314 1592 q 374 1614 351 1614 q 417 1603 397 1614 z "},"Ổ":{"ha":1101,"x_min":60,"x_max":1042,"o":"m 551 1003 q 809 943 699 1003 q 981 770 919 883 q 1042 500 1042 657 q 979 229 1042 347 q 805 46 917 111 q 550 -19 693 -19 q 292 40 403 -19 q 121 213 182 100 q 60 483 60 326 q 122 754 60 636 q 297 938 185 872 q 551 1003 408 1003 m 546 978 q 411 916 469 978 q 322 743 353 854 q 290 489 290 632 q 326 235 290 344 q 422 65 361 125 q 556 6 482 6 q 690 67 632 6 q 780 240 749 129 q 811 494 811 351 q 776 749 811 639 q 680 918 740 858 q 546 978 619 978 m 561 1306 q 681 1185 606 1243 q 846 1089 757 1126 l 839 1068 q 660 1110 749 1085 q 521 1158 572 1135 q 405 1110 478 1135 q 258 1068 332 1085 l 251 1089 q 416 1185 340 1126 q 536 1306 492 1243 l 561 1306 m 782 1358 q 874 1467 874 1397 q 844 1530 874 1508 q 768 1551 814 1551 q 703 1533 721 1551 q 747 1508 732 1526 q 763 1461 763 1489 q 741 1409 763 1429 q 688 1389 719 1389 q 634 1409 654 1389 q 614 1461 614 1429 q 629 1513 614 1490 q 669 1549 644 1535 q 804 1579 722 1579 q 946 1551 889 1579 q 1003 1474 1003 1524 q 949 1393 1003 1426 q 810 1346 896 1360 l 810 1282 l 782 1282 l 782 1358 z "},"Ỗ":{"ha":1101,"x_min":60,"x_max":1042,"o":"m 551 1003 q 809 943 699 1003 q 981 770 919 883 q 1042 500 1042 657 q 979 229 1042 347 q 805 46 917 111 q 550 -19 693 -19 q 292 40 403 -19 q 121 213 182 100 q 60 483 60 326 q 122 754 60 636 q 297 938 185 872 q 551 1003 408 1003 m 546 978 q 411 916 469 978 q 322 743 353 854 q 290 489 290 632 q 326 235 290 344 q 422 65 361 125 q 556 6 482 6 q 690 67 632 6 q 780 240 749 129 q 811 494 811 351 q 776 749 811 639 q 680 918 740 858 q 546 978 619 978 m 561 1306 q 681 1185 606 1243 q 846 1089 757 1126 l 839 1068 q 660 1110 749 1085 q 521 1158 572 1135 q 405 1110 478 1135 q 258 1068 332 1085 l 251 1089 q 416 1185 340 1126 q 536 1306 492 1243 l 561 1306 m 426 1589 q 508 1575 472 1589 q 586 1536 543 1561 q 654 1501 625 1513 q 718 1490 683 1490 q 833 1565 792 1490 l 853 1558 q 785 1419 835 1467 q 668 1372 735 1372 q 588 1385 622 1372 q 510 1425 554 1399 q 440 1460 469 1449 q 375 1471 410 1471 q 260 1394 304 1471 l 240 1401 q 310 1541 260 1493 q 426 1589 361 1589 z "},"Ö":{"ha":1101,"x_min":60,"x_max":1042,"o":"m 551 1003 q 809 943 699 1003 q 981 770 919 883 q 1042 500 1042 657 q 979 229 1042 347 q 805 46 917 111 q 550 -19 693 -19 q 292 40 403 -19 q 121 213 182 100 q 60 483 60 326 q 122 754 60 636 q 297 938 185 872 q 551 1003 408 1003 m 546 978 q 411 916 469 978 q 322 743 353 854 q 290 489 290 632 q 326 235 290 344 q 422 65 361 125 q 556 6 482 6 q 690 67 632 6 q 780 240 749 129 q 811 494 811 351 q 776 749 811 639 q 680 918 740 858 q 546 978 619 978 m 382 1274 q 456 1242 424 1274 q 488 1168 488 1210 q 456 1095 488 1126 q 382 1064 424 1064 q 308 1094 339 1064 q 278 1168 278 1125 q 309 1242 278 1210 q 382 1274 340 1274 m 715 1274 q 788 1242 757 1274 q 819 1168 819 1210 q 788 1094 819 1125 q 715 1064 757 1064 q 641 1094 672 1064 q 610 1168 610 1125 q 641 1242 610 1210 q 715 1274 672 1274 z "},"Ọ":{"ha":1101,"x_min":60,"x_max":1042,"o":"m 551 1003 q 809 943 699 1003 q 981 770 919 883 q 1042 500 1042 657 q 979 229 1042 347 q 805 46 917 111 q 550 -19 693 -19 q 292 40 403 -19 q 121 213 182 100 q 60 483 60 326 q 122 754 60 636 q 297 938 185 872 q 551 1003 408 1003 m 546 978 q 411 916 469 978 q 322 743 353 854 q 290 489 290 632 q 326 235 290 344 q 422 65 361 125 q 556 6 482 6 q 690 67 632 6 q 780 240 749 129 q 811 494 811 351 q 776 749 811 639 q 680 918 740 858 q 546 978 619 978 m 550 -260 q 475 -235 503 -260 q 447 -168 447 -211 q 475 -101 447 -126 q 553 -76 503 -76 q 628 -101 601 -76 q 656 -168 656 -125 q 627 -235 656 -211 q 550 -260 599 -260 z "},"Ò":{"ha":1101,"x_min":60,"x_max":1042,"o":"m 551 1003 q 809 943 699 1003 q 981 770 919 883 q 1042 500 1042 657 q 979 229 1042 347 q 805 46 917 111 q 550 -19 693 -19 q 292 40 403 -19 q 121 213 182 100 q 60 483 60 326 q 122 754 60 636 q 297 938 185 872 q 551 1003 408 1003 m 546 978 q 411 916 469 978 q 322 743 353 854 q 290 489 290 632 q 326 235 290 344 q 422 65 361 125 q 556 6 482 6 q 690 67 632 6 q 780 240 749 129 q 811 494 811 351 q 776 749 811 639 q 680 918 740 858 q 546 978 619 978 m 417 1297 q 456 1269 438 1285 q 504 1221 474 1253 q 642 1089 574 1146 l 632 1072 q 513 1111 565 1097 q 451 1128 461 1125 q 392 1144 419 1135 q 343 1164 364 1153 q 308 1195 321 1176 q 296 1235 296 1214 q 304 1267 296 1253 q 333 1297 314 1286 q 374 1308 351 1308 q 417 1297 397 1308 z "},"Ỏ":{"ha":1101,"x_min":60,"x_max":1042,"o":"m 551 1003 q 809 943 699 1003 q 981 770 919 883 q 1042 500 1042 657 q 979 229 1042 347 q 805 46 917 111 q 550 -19 693 -19 q 292 40 403 -19 q 121 213 182 100 q 60 483 60 326 q 122 754 60 636 q 297 938 185 872 q 551 1003 408 1003 m 546 978 q 411 916 469 978 q 322 743 353 854 q 290 489 290 632 q 326 235 290 344 q 422 65 361 125 q 556 6 482 6 q 690 67 632 6 q 780 240 749 129 q 811 494 811 351 q 776 749 811 639 q 680 918 740 858 q 546 978 619 978 m 526 1135 q 618 1243 618 1174 q 588 1306 618 1285 q 513 1328 558 1328 q 447 1310 465 1328 q 492 1284 476 1303 q 507 1238 507 1265 q 485 1185 507 1206 q 432 1165 464 1165 q 378 1185 399 1165 q 358 1238 358 1206 q 374 1289 358 1267 q 414 1325 389 1311 q 549 1356 467 1356 q 690 1328 633 1356 q 747 1250 747 1300 q 694 1169 747 1203 q 554 1122 640 1136 l 554 1058 l 526 1058 l 526 1135 z "},"Ơ":{"ha":1101,"x_min":60,"x_max":1053,"o":"m 801 947 q 978 774 915 889 q 1042 500 1042 660 q 979 229 1042 347 q 805 46 917 111 q 550 -19 693 -19 q 292 40 403 -19 q 121 213 182 100 q 60 483 60 326 q 122 754 60 636 q 297 938 185 872 q 551 1003 408 1003 q 742 972 658 1003 q 928 1006 853 974 q 878 1052 897 1025 q 858 1114 858 1079 q 885 1183 858 1156 q 954 1210 913 1210 q 1025 1183 997 1210 q 1053 1111 1053 1156 q 1030 1042 1053 1074 q 964 989 1007 1011 q 801 947 906 957 m 556 6 q 690 67 632 6 q 780 240 749 129 q 811 494 811 351 q 776 749 811 639 q 680 918 740 858 q 546 978 619 978 q 411 916 469 978 q 322 743 353 854 q 290 489 290 632 q 326 235 290 344 q 422 65 361 125 q 556 6 482 6 z "},"Ớ":{"ha":1101,"x_min":60,"x_max":1053,"o":"m 801 947 q 978 774 915 889 q 1042 500 1042 660 q 979 229 1042 347 q 805 46 917 111 q 550 -19 693 -19 q 292 40 403 -19 q 121 213 182 100 q 60 483 60 326 q 122 754 60 636 q 297 938 185 872 q 551 1003 408 1003 q 742 972 658 1003 q 928 1006 853 974 q 878 1052 897 1025 q 858 1114 858 1079 q 885 1183 858 1156 q 954 1210 913 1210 q 1025 1183 997 1210 q 1053 1111 1053 1156 q 1030 1042 1053 1074 q 964 989 1007 1011 q 801 947 906 957 m 556 6 q 690 67 632 6 q 780 240 749 129 q 811 494 811 351 q 776 749 811 639 q 680 918 740 858 q 546 978 619 978 q 411 916 469 978 q 322 743 353 854 q 290 489 290 632 q 326 235 290 344 q 422 65 361 125 q 556 6 482 6 m 672 1297 q 715 1308 692 1308 q 756 1297 738 1308 q 785 1267 775 1286 q 793 1235 793 1253 q 781 1195 793 1214 q 746 1164 768 1176 q 697 1144 725 1153 q 638 1128 669 1135 q 576 1111 628 1125 q 457 1072 524 1097 l 447 1089 q 585 1221 515 1146 q 633 1269 615 1253 q 672 1297 651 1285 z "},"Ợ":{"ha":1101,"x_min":60,"x_max":1053,"o":"m 801 947 q 978 774 915 889 q 1042 500 1042 660 q 979 229 1042 347 q 805 46 917 111 q 550 -19 693 -19 q 292 40 403 -19 q 121 213 182 100 q 60 483 60 326 q 122 754 60 636 q 297 938 185 872 q 551 1003 408 1003 q 742 972 658 1003 q 928 1006 853 974 q 878 1052 897 1025 q 858 1114 858 1079 q 885 1183 858 1156 q 954 1210 913 1210 q 1025 1183 997 1210 q 1053 1111 1053 1156 q 1030 1042 1053 1074 q 964 989 1007 1011 q 801 947 906 957 m 556 6 q 690 67 632 6 q 780 240 749 129 q 811 494 811 351 q 776 749 811 639 q 680 918 740 858 q 546 978 619 978 q 411 916 469 978 q 322 743 353 854 q 290 489 290 632 q 326 235 290 344 q 422 65 361 125 q 556 6 482 6 m 550 -260 q 475 -235 503 -260 q 447 -168 447 -211 q 475 -101 447 -126 q 553 -76 503 -76 q 628 -101 601 -76 q 656 -168 656 -125 q 627 -235 656 -211 q 550 -260 599 -260 z "},"Ờ":{"ha":1101,"x_min":60,"x_max":1053,"o":"m 801 947 q 978 774 915 889 q 1042 500 1042 660 q 979 229 1042 347 q 805 46 917 111 q 550 -19 693 -19 q 292 40 403 -19 q 121 213 182 100 q 60 483 60 326 q 122 754 60 636 q 297 938 185 872 q 551 1003 408 1003 q 742 972 658 1003 q 928 1006 853 974 q 878 1052 897 1025 q 858 1114 858 1079 q 885 1183 858 1156 q 954 1210 913 1210 q 1025 1183 997 1210 q 1053 1111 1053 1156 q 1030 1042 1053 1074 q 964 989 1007 1011 q 801 947 906 957 m 556 6 q 690 67 632 6 q 780 240 749 129 q 811 494 811 351 q 776 749 811 639 q 680 918 740 858 q 546 978 619 978 q 411 916 469 978 q 322 743 353 854 q 290 489 290 632 q 326 235 290 344 q 422 65 361 125 q 556 6 482 6 m 417 1297 q 456 1269 438 1285 q 504 1221 474 1253 q 642 1089 574 1146 l 632 1072 q 513 1111 565 1097 q 451 1128 461 1125 q 392 1144 419 1135 q 343 1164 364 1153 q 308 1195 321 1176 q 296 1235 296 1214 q 304 1267 296 1253 q 333 1297 314 1286 q 374 1308 351 1308 q 417 1297 397 1308 z "},"Ở":{"ha":1101,"x_min":60,"x_max":1053,"o":"m 801 947 q 978 774 915 889 q 1042 500 1042 660 q 979 229 1042 347 q 805 46 917 111 q 550 -19 693 -19 q 292 40 403 -19 q 121 213 182 100 q 60 483 60 326 q 122 754 60 636 q 297 938 185 872 q 551 1003 408 1003 q 742 972 658 1003 q 928 1006 853 974 q 878 1052 897 1025 q 858 1114 858 1079 q 885 1183 858 1156 q 954 1210 913 1210 q 1025 1183 997 1210 q 1053 1111 1053 1156 q 1030 1042 1053 1074 q 964 989 1007 1011 q 801 947 906 957 m 556 6 q 690 67 632 6 q 780 240 749 129 q 811 494 811 351 q 776 749 811 639 q 680 918 740 858 q 546 978 619 978 q 411 916 469 978 q 322 743 353 854 q 290 489 290 632 q 326 235 290 344 q 422 65 361 125 q 556 6 482 6 m 526 1135 q 618 1243 618 1174 q 588 1306 618 1285 q 513 1328 558 1328 q 447 1310 465 1328 q 492 1284 476 1303 q 507 1238 507 1265 q 485 1185 507 1206 q 432 1165 464 1165 q 378 1185 399 1165 q 358 1238 358 1206 q 374 1289 358 1267 q 414 1325 389 1311 q 549 1356 467 1356 q 690 1328 633 1356 q 747 1250 747 1300 q 694 1169 747 1203 q 554 1122 640 1136 l 554 1058 l 526 1058 l 526 1135 z "},"Ỡ":{"ha":1101,"x_min":60,"x_max":1053,"o":"m 801 947 q 978 774 915 889 q 1042 500 1042 660 q 979 229 1042 347 q 805 46 917 111 q 550 -19 693 -19 q 292 40 403 -19 q 121 213 182 100 q 60 483 60 326 q 122 754 60 636 q 297 938 185 872 q 551 1003 408 1003 q 742 972 658 1003 q 928 1006 853 974 q 878 1052 897 1025 q 858 1114 858 1079 q 885 1183 858 1156 q 954 1210 913 1210 q 1025 1183 997 1210 q 1053 1111 1053 1156 q 1030 1042 1053 1074 q 964 989 1007 1011 q 801 947 906 957 m 556 6 q 690 67 632 6 q 780 240 749 129 q 811 494 811 351 q 776 749 811 639 q 680 918 740 858 q 546 978 619 978 q 411 916 469 978 q 322 743 353 854 q 290 489 290 632 q 326 235 290 344 q 422 65 361 125 q 556 6 482 6 m 426 1283 q 508 1269 472 1283 q 586 1231 543 1256 q 654 1196 625 1207 q 718 1185 683 1185 q 833 1260 792 1185 l 853 1253 q 785 1114 835 1161 q 668 1067 735 1067 q 588 1080 622 1067 q 510 1119 554 1093 q 440 1154 469 1143 q 375 1165 410 1165 q 260 1089 304 1165 l 240 1096 q 310 1235 260 1188 q 426 1283 361 1283 z "},"Ő":{"ha":1101,"x_min":60,"x_max":1042,"o":"m 551 1003 q 809 943 699 1003 q 981 770 919 883 q 1042 500 1042 657 q 979 229 1042 347 q 805 46 917 111 q 550 -19 693 -19 q 292 40 403 -19 q 121 213 182 100 q 60 483 60 326 q 122 754 60 636 q 297 938 185 872 q 551 1003 408 1003 m 546 978 q 411 916 469 978 q 322 743 353 854 q 290 489 290 632 q 326 235 290 344 q 422 65 361 125 q 556 6 482 6 q 690 67 632 6 q 780 240 749 129 q 811 494 811 351 q 776 749 811 639 q 680 918 740 858 q 546 978 619 978 m 488 1299 q 539 1317 511 1317 q 601 1283 576 1317 q 617 1242 617 1261 q 578 1175 617 1206 q 517 1144 554 1158 q 471 1126 479 1129 q 339 1072 390 1097 l 325 1088 q 415 1208 361 1128 q 453 1264 438 1243 q 488 1299 469 1285 m 781 1299 q 832 1317 804 1317 q 894 1283 869 1317 q 910 1242 910 1261 q 871 1175 910 1206 q 810 1144 847 1158 q 764 1126 772 1129 q 632 1072 683 1097 l 618 1088 q 708 1208 654 1128 q 747 1264 731 1243 q 781 1299 763 1285 z "},"Ō":{"ha":1101,"x_min":60,"x_max":1042,"o":"m 551 1003 q 809 943 699 1003 q 981 770 919 883 q 1042 500 1042 657 q 979 229 1042 347 q 805 46 917 111 q 550 -19 693 -19 q 292 40 403 -19 q 121 213 182 100 q 60 483 60 326 q 122 754 60 636 q 297 938 185 872 q 551 1003 408 1003 m 546 978 q 411 916 469 978 q 322 743 353 854 q 290 489 290 632 q 326 235 290 344 q 422 65 361 125 q 556 6 482 6 q 690 67 632 6 q 780 240 749 129 q 811 494 811 351 q 776 749 811 639 q 680 918 740 858 q 546 978 619 978 m 826 1138 l 271 1138 l 271 1172 l 826 1172 l 826 1138 z "},"Ø":{"ha":1101,"x_min":60,"x_max":1042,"o":"m 849 918 q 991 748 940 854 q 1042 500 1042 642 q 979 229 1042 347 q 805 46 917 111 q 550 -19 693 -19 q 268 54 386 -19 l 153 -110 l 124 -90 l 239 74 q 106 243 153 139 q 60 483 60 347 q 122 754 60 636 q 297 938 185 872 q 551 1003 408 1003 q 821 936 704 1003 l 921 1082 l 947 1064 l 849 918 m 546 978 q 411 916 469 978 q 322 743 353 854 q 290 489 290 632 q 339 197 290 321 l 742 831 q 655 940 706 901 q 546 978 604 978 m 556 6 q 690 67 632 6 q 780 240 749 129 q 811 494 811 351 q 758 796 811 671 l 356 160 q 444 46 392 86 q 556 6 496 6 z "},"Ǿ":{"ha":1101,"x_min":60,"x_max":1042,"o":"m 746 1164 q 697 1144 725 1153 q 638 1128 669 1135 q 576 1111 628 1125 q 457 1072 524 1097 l 447 1089 q 585 1221 515 1146 q 633 1269 615 1253 q 672 1297 651 1285 q 715 1308 692 1308 q 756 1298 738 1308 q 785 1267 775 1288 q 793 1235 793 1253 q 781 1195 793 1214 q 746 1164 768 1176 m 849 918 q 991 748 940 854 q 1042 500 1042 642 q 979 229 1042 347 q 805 46 917 111 q 550 -19 693 -19 q 268 54 386 -19 l 153 -110 l 124 -90 l 239 74 q 106 243 153 139 q 60 483 60 347 q 122 754 60 636 q 297 938 185 872 q 551 1003 408 1003 q 821 936 704 1003 l 921 1082 l 947 1064 l 849 918 m 546 978 q 411 916 469 978 q 322 743 353 854 q 290 489 290 632 q 339 197 290 321 l 742 831 q 655 940 706 901 q 546 978 604 978 m 556 6 q 690 67 632 6 q 780 240 749 129 q 811 494 811 351 q 758 796 811 671 l 356 160 q 444 46 392 86 q 556 6 496 6 z "},"Õ":{"ha":1101,"x_min":60,"x_max":1042,"o":"m 551 1003 q 809 943 699 1003 q 981 770 919 883 q 1042 500 1042 657 q 979 229 1042 347 q 805 46 917 111 q 550 -19 693 -19 q 292 40 403 -19 q 121 213 182 100 q 60 483 60 326 q 122 754 60 636 q 297 938 185 872 q 551 1003 408 1003 m 546 978 q 411 916 469 978 q 322 743 353 854 q 290 489 290 632 q 326 235 290 344 q 422 65 361 125 q 556 6 482 6 q 690 67 632 6 q 780 240 749 129 q 811 494 811 351 q 776 749 811 639 q 680 918 740 858 q 546 978 619 978 m 426 1283 q 508 1269 472 1283 q 586 1231 543 1256 q 654 1196 625 1207 q 718 1185 683 1185 q 833 1260 792 1185 l 853 1253 q 785 1114 835 1161 q 668 1067 735 1067 q 588 1080 622 1067 q 510 1119 554 1093 q 440 1154 469 1143 q 375 1165 410 1165 q 260 1089 304 1165 l 240 1096 q 310 1235 260 1188 q 426 1283 361 1283 z "},"Œ":{"ha":1382,"x_min":60,"x_max":1319,"o":"m 1310 194 q 1319 0 1310 89 q 1013 4 1229 4 q 660 3 793 4 q 542 -19 604 -19 q 288 40 397 -19 q 119 213 179 100 q 60 483 60 326 q 122 754 60 636 q 293 938 183 872 q 543 1003 403 1003 q 664 981 604 1003 q 1013 979 797 979 q 1292 983 1210 979 q 1282 794 1282 878 q 1286 700 1282 733 l 1254 700 q 1191 895 1236 839 q 1060 951 1146 951 l 1031 951 q 964 944 985 951 q 935 912 943 936 q 926 836 926 888 l 926 508 l 983 508 q 1058 535 1032 508 q 1092 585 1085 561 q 1115 672 1100 608 l 1147 672 q 1143 554 1143 619 l 1143 494 q 1151 317 1143 432 l 1119 317 q 1099 402 1110 369 q 1060 458 1088 435 q 983 481 1033 481 l 926 481 l 926 147 q 935 72 926 96 q 964 40 943 47 q 1031 32 985 32 l 1071 32 q 1213 96 1160 32 q 1282 311 1267 160 l 1314 311 q 1310 194 1310 265 m 706 844 q 655 947 706 915 q 538 978 604 978 q 407 916 463 978 q 321 743 351 854 q 290 489 290 632 q 324 235 290 344 q 417 65 358 125 q 547 6 475 6 q 656 38 606 6 q 706 131 706 69 l 706 844 z "},"P":{"ha":890,"x_min":47,"x_max":861,"o":"m 372 397 l 372 156 q 384 74 372 100 q 426 40 396 49 q 521 31 456 32 l 521 0 q 267 4 350 4 q 92 1 197 4 l 47 0 l 47 28 q 115 39 93 31 q 144 71 136 47 q 151 147 151 94 l 151 836 q 144 913 151 889 q 115 944 136 936 q 47 956 93 953 l 47 983 q 258 979 118 979 l 413 981 q 476 982 440 982 q 763 908 664 982 q 861 708 861 833 q 822 562 861 632 q 691 444 783 492 q 446 397 599 397 l 372 397 m 458 956 q 403 946 421 956 q 379 911 386 936 q 372 836 372 886 l 372 425 l 432 425 q 588 497 544 425 q 631 693 631 569 q 591 892 631 828 q 458 956 551 956 z "},"Þ":{"ha":863,"x_min":47,"x_max":835,"o":"m 372 203 l 372 147 q 380 71 372 94 q 408 39 388 47 q 476 28 429 31 l 476 0 q 267 4 401 4 q 47 0 118 4 l 47 28 q 115 39 93 31 q 144 71 136 47 q 151 147 151 94 l 151 836 q 144 913 151 889 q 115 944 136 936 q 47 956 93 953 l 47 983 q 267 979 118 979 q 476 983 401 979 l 476 956 q 408 944 429 953 q 380 913 388 936 q 372 836 372 889 l 372 786 q 450 788 407 788 q 738 719 642 788 q 835 521 835 650 q 740 293 835 383 q 419 203 644 203 l 372 203 m 372 761 l 372 231 l 406 231 q 561 305 518 231 q 604 508 604 379 q 560 699 604 636 q 415 761 517 761 l 372 761 z "},"Q":{"ha":1101,"x_min":60,"x_max":1086,"o":"m 1086 10 q 990 -207 1063 -147 q 913 -247 960 -232 q 811 -261 867 -261 q 663 -237 736 -261 q 483 -167 590 -214 q 426 -142 457 -156 q 356 -114 394 -129 l 322 -104 q 265 -126 296 -118 q 206 -133 233 -133 q 158 -124 176 -133 q 140 -97 140 -115 q 217 -60 140 -60 q 322 -79 268 -60 q 422 -42 369 -65 q 451 -30 432 -37 q 486 -17 471 -22 q 260 59 357 -4 q 112 231 164 122 q 60 483 60 339 q 122 754 60 636 q 297 938 185 872 q 551 1003 408 1003 q 809 943 699 1003 q 981 770 919 883 q 1042 500 1042 657 q 983 237 1042 353 q 819 54 925 121 q 579 -18 714 -12 q 519 -31 546 -22 q 457 -54 493 -39 q 371 -86 413 -74 l 483 -96 q 738 -111 660 -111 q 842 -104 789 -111 q 978 -67 928 -94 q 1061 17 1028 -40 l 1086 10 m 290 489 q 326 235 290 344 q 422 65 361 125 q 556 6 482 6 q 690 67 632 6 q 780 240 749 129 q 811 494 811 351 q 776 749 811 639 q 680 918 740 858 q 546 978 619 978 q 411 916 469 978 q 322 743 353 854 q 290 489 290 632 z "},"R":{"ha":961,"x_min":47,"x_max":989,"o":"m 989 61 q 908 -1 951 18 q 804 -19 865 -19 q 677 15 724 -19 q 617 131 631 49 l 592 269 q 548 419 574 371 q 463 467 522 467 l 372 467 l 372 147 q 380 71 372 94 q 408 39 388 47 q 476 28 429 31 l 476 0 q 267 4 401 4 q 47 0 118 4 l 47 28 q 115 39 93 31 q 144 71 136 47 q 151 147 151 94 l 151 836 q 144 913 151 889 q 115 944 136 936 q 47 956 93 953 l 47 983 q 258 979 118 979 l 413 981 q 476 982 440 982 q 765 919 668 982 q 861 740 861 857 q 789 567 861 642 q 550 472 717 492 q 736 418 675 461 q 815 289 797 375 l 847 146 q 873 68 858 90 q 914 46 888 46 q 942 54 931 47 q 969 78 954 61 l 989 61 m 458 956 q 403 946 421 956 q 379 911 386 936 q 372 836 372 886 l 372 494 l 432 494 q 588 555 546 494 q 631 725 631 615 q 590 897 631 839 q 458 956 550 956 z "},"Ŕ":{"ha":961,"x_min":47,"x_max":989,"o":"m 989 61 q 908 -1 951 18 q 804 -19 865 -19 q 677 15 724 -19 q 617 131 631 49 l 592 269 q 548 419 574 371 q 463 467 522 467 l 372 467 l 372 147 q 380 71 372 94 q 408 39 388 47 q 476 28 429 31 l 476 0 q 267 4 401 4 q 47 0 118 4 l 47 28 q 115 39 93 31 q 144 71 136 47 q 151 147 151 94 l 151 836 q 144 913 151 889 q 115 944 136 936 q 47 956 93 953 l 47 983 q 258 979 118 979 l 413 981 q 476 982 440 982 q 765 919 668 982 q 861 740 861 857 q 789 567 861 642 q 550 472 717 492 q 736 418 675 461 q 815 289 797 375 l 847 146 q 873 68 858 90 q 914 46 888 46 q 942 54 931 47 q 969 78 954 61 l 989 61 m 458 956 q 403 946 421 956 q 379 911 386 936 q 372 836 372 886 l 372 494 l 432 494 q 588 555 546 494 q 631 725 631 615 q 590 897 631 839 q 458 956 550 956 m 574 1297 q 617 1308 593 1308 q 658 1297 639 1308 q 686 1267 676 1286 q 694 1235 694 1253 q 682 1195 694 1214 q 647 1164 669 1176 q 599 1144 626 1153 q 539 1128 571 1135 q 477 1111 529 1125 q 358 1072 425 1097 l 349 1089 q 486 1221 417 1146 q 535 1269 517 1253 q 574 1297 553 1285 z "},"Ř":{"ha":961,"x_min":47,"x_max":989,"o":"m 989 61 q 908 -1 951 18 q 804 -19 865 -19 q 677 15 724 -19 q 617 131 631 49 l 592 269 q 548 419 574 371 q 463 467 522 467 l 372 467 l 372 147 q 380 71 372 94 q 408 39 388 47 q 476 28 429 31 l 476 0 q 267 4 401 4 q 47 0 118 4 l 47 28 q 115 39 93 31 q 144 71 136 47 q 151 147 151 94 l 151 836 q 144 913 151 889 q 115 944 136 936 q 47 956 93 953 l 47 983 q 258 979 118 979 l 413 981 q 476 982 440 982 q 765 919 668 982 q 861 740 861 857 q 789 567 861 642 q 550 472 717 492 q 736 418 675 461 q 815 289 797 375 l 847 146 q 873 68 858 90 q 914 46 888 46 q 942 54 931 47 q 969 78 954 61 l 989 61 m 458 956 q 403 946 421 956 q 379 911 386 936 q 372 836 372 886 l 372 494 l 432 494 q 588 555 546 494 q 631 725 631 615 q 590 897 631 839 q 458 956 550 956 m 743 1282 q 578 1188 654 1246 q 458 1065 503 1129 l 433 1065 q 315 1186 390 1128 q 149 1282 239 1244 l 156 1303 q 334 1263 246 1288 q 474 1213 422 1238 q 590 1263 517 1238 q 736 1303 663 1288 l 743 1282 z "},"Ŗ":{"ha":961,"x_min":47,"x_max":989,"o":"m 989 61 q 908 -1 951 18 q 804 -19 865 -19 q 677 15 724 -19 q 617 131 631 49 l 592 269 q 548 419 574 371 q 463 467 522 467 l 372 467 l 372 147 q 380 71 372 94 q 408 39 388 47 q 476 28 429 31 l 476 0 q 267 4 401 4 q 47 0 118 4 l 47 28 q 115 39 93 31 q 144 71 136 47 q 151 147 151 94 l 151 836 q 144 913 151 889 q 115 944 136 936 q 47 956 93 953 l 47 983 q 258 979 118 979 l 413 981 q 476 982 440 982 q 765 919 668 982 q 861 740 861 857 q 789 567 861 642 q 550 472 717 492 q 736 418 675 461 q 815 289 797 375 l 847 146 q 873 68 858 90 q 914 46 888 46 q 942 54 931 47 q 969 78 954 61 l 989 61 m 458 956 q 403 946 421 956 q 379 911 386 936 q 372 836 372 886 l 372 494 l 432 494 q 588 555 546 494 q 631 725 631 615 q 590 897 631 839 q 458 956 550 956 m 501 -76 q 583 -106 551 -76 q 615 -183 615 -135 q 576 -287 615 -247 q 457 -337 538 -326 l 451 -308 q 563 -232 554 -293 q 494 -254 538 -254 q 422 -231 449 -254 q 396 -167 396 -208 q 424 -100 396 -124 q 501 -76 453 -76 z "},"S":{"ha":811,"x_min":76,"x_max":754,"o":"m 394 1001 q 510 988 467 1001 q 597 947 553 974 q 624 933 613 939 q 644 928 636 928 q 664 942 657 928 q 675 989 671 957 l 707 989 q 700 672 700 896 l 668 672 q 634 815 663 747 q 553 926 606 883 q 432 968 501 968 q 322 930 364 968 q 279 826 279 892 q 300 742 279 778 q 358 676 321 706 q 474 594 396 646 l 518 564 q 647 469 600 510 q 724 376 694 429 q 754 251 754 322 q 708 102 754 163 q 584 11 663 42 q 410 -19 506 -19 q 281 -6 332 -19 q 186 32 229 8 q 139 51 156 51 q 119 37 126 51 q 108 -10 113 22 l 76 -10 q 82 365 82 78 l 114 365 q 183 113 124 210 q 367 17 243 17 q 490 57 442 17 q 539 172 539 97 q 489 306 539 250 q 331 431 439 361 q 197 525 247 485 q 115 620 147 565 q 83 747 83 675 q 126 888 83 831 q 239 974 168 946 q 394 1001 310 1001 z "},"Ś":{"ha":811,"x_min":76,"x_max":754,"o":"m 394 1001 q 510 988 467 1001 q 597 947 553 974 q 624 933 613 939 q 644 928 636 928 q 664 942 657 928 q 675 989 671 957 l 707 989 q 700 672 700 896 l 668 672 q 634 815 663 747 q 553 926 606 883 q 432 968 501 968 q 322 930 364 968 q 279 826 279 892 q 300 742 279 778 q 358 676 321 706 q 474 594 396 646 l 518 564 q 647 469 600 510 q 724 376 694 429 q 754 251 754 322 q 708 102 754 163 q 584 11 663 42 q 410 -19 506 -19 q 281 -6 332 -19 q 186 32 229 8 q 139 51 156 51 q 119 37 126 51 q 108 -10 113 22 l 76 -10 q 82 365 82 78 l 114 365 q 183 113 124 210 q 367 17 243 17 q 490 57 442 17 q 539 172 539 97 q 489 306 539 250 q 331 431 439 361 q 197 525 247 485 q 115 620 147 565 q 83 747 83 675 q 126 888 83 831 q 239 974 168 946 q 394 1001 310 1001 m 538 1297 q 581 1308 557 1308 q 622 1297 603 1308 q 650 1267 640 1286 q 658 1235 658 1253 q 646 1195 658 1214 q 611 1164 633 1176 q 563 1144 590 1153 q 503 1128 535 1135 q 441 1111 493 1125 q 322 1072 389 1097 l 313 1089 q 450 1221 381 1146 q 499 1269 481 1253 q 538 1297 517 1285 z "},"Š":{"ha":811,"x_min":76,"x_max":754,"o":"m 394 1001 q 510 988 467 1001 q 597 947 553 974 q 624 933 613 939 q 644 928 636 928 q 664 942 657 928 q 675 989 671 957 l 707 989 q 700 672 700 896 l 668 672 q 634 815 663 747 q 553 926 606 883 q 432 968 501 968 q 322 930 364 968 q 279 826 279 892 q 300 742 279 778 q 358 676 321 706 q 474 594 396 646 l 518 564 q 647 469 600 510 q 724 376 694 429 q 754 251 754 322 q 708 102 754 163 q 584 11 663 42 q 410 -19 506 -19 q 281 -6 332 -19 q 186 32 229 8 q 139 51 156 51 q 119 37 126 51 q 108 -10 113 22 l 76 -10 q 82 365 82 78 l 114 365 q 183 113 124 210 q 367 17 243 17 q 490 57 442 17 q 539 172 539 97 q 489 306 539 250 q 331 431 439 361 q 197 525 247 485 q 115 620 147 565 q 83 747 83 675 q 126 888 83 831 q 239 974 168 946 q 394 1001 310 1001 m 707 1282 q 542 1188 618 1246 q 422 1065 467 1129 l 397 1065 q 278 1186 354 1128 q 113 1282 203 1244 l 119 1303 q 298 1263 210 1288 q 438 1213 386 1238 q 553 1263 481 1238 q 700 1303 626 1288 l 707 1282 z "},"Ş":{"ha":811,"x_min":76,"x_max":754,"o":"m 394 1001 q 510 988 467 1001 q 597 947 553 974 q 624 933 613 939 q 644 928 636 928 q 664 942 657 928 q 675 989 671 957 l 707 989 q 700 672 700 896 l 668 672 q 634 815 663 747 q 553 926 606 883 q 432 968 501 968 q 322 930 364 968 q 279 826 279 892 q 300 742 279 778 q 358 676 321 706 q 474 594 396 646 l 518 564 q 647 469 600 510 q 724 376 694 429 q 754 251 754 322 q 708 102 754 163 q 584 11 663 42 q 410 -19 506 -19 q 281 -6 332 -19 q 186 32 229 8 q 139 51 156 51 q 119 37 126 51 q 108 -10 113 22 l 76 -10 q 82 365 82 78 l 114 365 q 183 113 124 210 q 367 17 243 17 q 490 57 442 17 q 539 172 539 97 q 489 306 539 250 q 331 431 439 361 q 197 525 247 485 q 115 620 147 565 q 83 747 83 675 q 126 888 83 831 q 239 974 168 946 q 394 1001 310 1001 m 407 -90 q 514 -74 454 -74 q 591 -94 564 -74 q 618 -149 618 -114 q 556 -233 618 -204 q 399 -261 493 -261 q 269 -244 319 -261 l 276 -219 q 346 -225 326 -225 q 435 -211 397 -225 q 472 -168 472 -197 q 408 -132 472 -132 q 354 -142 375 -132 l 400 7 l 438 7 l 407 -90 z "},"Ŝ":{"ha":811,"x_min":76,"x_max":754,"o":"m 394 1001 q 510 988 467 1001 q 597 947 553 974 q 624 933 613 939 q 644 928 636 928 q 664 942 657 928 q 675 989 671 957 l 707 989 q 700 672 700 896 l 668 672 q 634 815 663 747 q 553 926 606 883 q 432 968 501 968 q 322 930 364 968 q 279 826 279 892 q 300 742 279 778 q 358 676 321 706 q 474 594 396 646 l 518 564 q 647 469 600 510 q 724 376 694 429 q 754 251 754 322 q 708 102 754 163 q 584 11 663 42 q 410 -19 506 -19 q 281 -6 332 -19 q 186 32 229 8 q 139 51 156 51 q 119 37 126 51 q 108 -10 113 22 l 76 -10 q 82 365 82 78 l 114 365 q 183 113 124 210 q 367 17 243 17 q 490 57 442 17 q 539 172 539 97 q 489 306 539 250 q 331 431 439 361 q 197 525 247 485 q 115 620 147 565 q 83 747 83 675 q 126 888 83 831 q 239 974 168 946 q 394 1001 310 1001 m 426 1306 q 547 1185 471 1243 q 711 1089 622 1126 l 704 1068 q 526 1110 614 1085 q 386 1158 438 1135 q 270 1110 343 1135 q 124 1068 197 1085 l 117 1089 q 281 1185 206 1126 q 401 1306 357 1243 l 426 1306 z "},"Ș":{"ha":811,"x_min":76,"x_max":754,"o":"m 394 1001 q 510 988 467 1001 q 597 947 553 974 q 624 933 613 939 q 644 928 636 928 q 664 942 657 928 q 675 989 671 957 l 707 989 q 700 672 700 896 l 668 672 q 634 815 663 747 q 553 926 606 883 q 432 968 501 968 q 322 930 364 968 q 279 826 279 892 q 300 742 279 778 q 358 676 321 706 q 474 594 396 646 l 518 564 q 647 469 600 510 q 724 376 694 429 q 754 251 754 322 q 708 102 754 163 q 584 11 663 42 q 410 -19 506 -19 q 281 -6 332 -19 q 186 32 229 8 q 139 51 156 51 q 119 37 126 51 q 108 -10 113 22 l 76 -10 q 82 365 82 78 l 114 365 q 183 113 124 210 q 367 17 243 17 q 490 57 442 17 q 539 172 539 97 q 489 306 539 250 q 331 431 439 361 q 197 525 247 485 q 115 620 147 565 q 83 747 83 675 q 126 888 83 831 q 239 974 168 946 q 394 1001 310 1001 m 414 -76 q 496 -106 464 -76 q 528 -183 528 -135 q 489 -287 528 -247 q 369 -337 450 -326 l 364 -308 q 475 -232 467 -293 q 407 -254 450 -254 q 335 -231 361 -254 q 308 -167 308 -208 q 337 -100 308 -124 q 414 -76 365 -76 z "},"ẞ":{"ha":1050,"x_min":13,"x_max":1015,"o":"m 574 1003 q 776 974 682 1003 q 942 896 869 946 l 700 564 q 935 453 854 529 q 1015 271 1015 376 q 967 120 1015 186 q 832 17 918 54 q 640 -19 746 -19 q 490 7 547 -19 q 430 60 450 26 q 410 138 410 94 q 440 223 410 190 q 515 256 469 256 q 588 225 560 256 q 617 146 617 194 q 594 70 617 101 q 533 24 571 39 q 563 13 544 17 q 597 10 582 10 q 732 75 679 10 q 785 254 785 140 q 708 472 785 386 q 482 599 632 557 l 724 953 q 668 972 703 965 q 600 978 633 978 q 407 894 476 978 q 338 600 338 810 l 338 147 q 342 74 338 99 q 358 39 346 49 q 397 28 371 29 l 397 0 l 338 1 q 211 4 276 4 q 13 0 83 4 l 13 28 q 80 39 58 31 q 109 71 101 47 q 117 147 117 94 l 117 515 q 235 883 117 763 q 574 1003 353 1003 z "},"Ə":{"ha":1036,"x_min":58,"x_max":976,"o":"m 488 1004 q 741 946 631 1004 q 914 773 851 888 q 976 493 976 658 q 915 214 976 329 q 744 40 853 99 q 497 -19 636 -19 q 273 28 372 -19 q 116 175 174 76 q 60 418 58 274 l 747 418 q 750 483 750 460 q 703 753 750 647 q 581 908 657 860 q 413 957 504 957 q 315 942 361 957 q 235 899 269 928 q 163 806 185 864 q 131 647 142 749 l 99 647 q 93 983 99 889 l 125 983 q 137 920 129 939 q 158 901 144 901 q 188 913 169 901 q 234 943 193 917 q 342 987 275 969 q 488 1004 410 1004 m 518 10 q 749 392 721 10 l 290 392 q 289 344 289 376 q 316 175 289 251 q 395 54 343 99 q 518 10 447 10 z "},"T":{"ha":928,"x_min":35,"x_max":892,"o":"m 892 983 q 882 747 882 851 q 886 642 882 682 l 854 642 q 763 882 821 813 q 606 951 706 951 l 574 951 l 574 158 q 585 74 574 100 q 627 38 597 47 q 722 28 657 29 l 722 0 q 458 4 547 4 q 204 0 371 4 l 204 28 q 299 38 269 29 q 341 74 329 47 q 353 158 353 100 l 353 951 l 322 951 q 209 922 256 951 q 129 826 163 893 q 72 642 96 758 l 40 642 q 44 747 44 682 q 35 983 44 851 q 464 979 161 979 q 892 983 767 979 z "},"Ŧ":{"ha":928,"x_min":35,"x_max":892,"o":"m 892 983 q 882 747 882 851 q 886 642 882 682 l 854 642 q 763 882 821 813 q 606 951 706 951 l 574 951 l 574 158 q 585 74 574 100 q 627 38 597 47 q 722 28 657 29 l 722 0 q 458 4 547 4 q 204 0 371 4 l 204 28 q 299 38 269 29 q 341 74 329 47 q 353 158 353 100 l 353 951 l 322 951 q 209 922 256 951 q 129 826 163 893 q 72 642 96 758 l 40 642 q 44 747 44 682 q 35 983 44 851 q 464 979 161 979 q 892 983 767 979 m 767 478 l 159 478 l 159 506 l 767 506 l 767 478 z "},"Ť":{"ha":928,"x_min":35,"x_max":892,"o":"m 892 983 q 882 747 882 851 q 886 642 882 682 l 854 642 q 763 882 821 813 q 606 951 706 951 l 574 951 l 574 158 q 585 74 574 100 q 627 38 597 47 q 722 28 657 29 l 722 0 q 458 4 547 4 q 204 0 371 4 l 204 28 q 299 38 269 29 q 341 74 329 47 q 353 158 353 100 l 353 951 l 322 951 q 209 922 256 951 q 129 826 163 893 q 72 642 96 758 l 40 642 q 44 747 44 682 q 35 983 44 851 q 464 979 161 979 q 892 983 767 979 m 757 1282 q 592 1188 668 1246 q 472 1065 517 1129 l 447 1065 q 328 1186 404 1128 q 163 1282 253 1244 l 169 1303 q 348 1263 260 1288 q 488 1213 436 1238 q 603 1263 531 1238 q 750 1303 676 1288 l 757 1282 z "},"Ţ":{"ha":928,"x_min":35,"x_max":892,"o":"m 892 983 q 882 747 882 851 q 886 642 882 682 l 854 642 q 763 882 821 813 q 606 951 706 951 l 574 951 l 574 158 q 585 74 574 100 q 627 38 597 47 q 722 28 657 29 l 722 0 q 458 4 547 4 q 204 0 371 4 l 204 28 q 299 38 269 29 q 341 74 329 47 q 353 158 353 100 l 353 951 l 322 951 q 209 922 256 951 q 129 826 163 893 q 72 642 96 758 l 40 642 q 44 747 44 682 q 35 983 44 851 q 464 979 161 979 q 892 983 767 979 m 449 -90 q 556 -74 496 -74 q 633 -94 606 -74 q 660 -149 660 -114 q 597 -233 660 -204 q 440 -261 535 -261 q 311 -244 361 -261 l 318 -219 q 388 -225 368 -225 q 476 -211 439 -225 q 514 -168 514 -197 q 450 -132 514 -132 q 396 -142 417 -132 l 442 7 l 479 7 l 449 -90 z "},"Ț":{"ha":928,"x_min":35,"x_max":892,"o":"m 892 983 q 882 747 882 851 q 886 642 882 682 l 854 642 q 763 882 821 813 q 606 951 706 951 l 574 951 l 574 158 q 585 74 574 100 q 627 38 597 47 q 722 28 657 29 l 722 0 q 458 4 547 4 q 204 0 371 4 l 204 28 q 299 38 269 29 q 341 74 329 47 q 353 158 353 100 l 353 951 l 322 951 q 209 922 256 951 q 129 826 163 893 q 72 642 96 758 l 40 642 q 44 747 44 682 q 35 983 44 851 q 464 979 161 979 q 892 983 767 979 m 456 -76 q 538 -106 506 -76 q 569 -183 569 -135 q 531 -287 569 -247 q 411 -337 492 -326 l 406 -308 q 517 -232 508 -293 q 449 -254 492 -254 q 376 -231 403 -254 q 350 -167 350 -208 q 378 -100 350 -124 q 456 -76 407 -76 z "},"U":{"ha":957,"x_min":26,"x_max":932,"o":"m 932 956 q 865 932 886 949 q 835 879 843 915 q 828 772 828 843 l 828 404 q 771 110 828 206 q 663 15 733 49 q 489 -19 592 -19 q 239 50 328 -19 q 153 180 175 101 q 131 400 131 258 l 131 836 q 123 913 131 889 q 94 944 115 936 q 26 956 72 953 l 26 983 q 243 979 97 979 q 464 983 388 979 l 464 956 q 391 944 414 953 q 360 913 368 936 q 351 836 351 889 l 351 313 q 394 98 351 167 q 543 29 436 29 q 739 123 682 29 q 796 389 796 217 l 796 756 q 786 875 796 836 q 749 931 776 914 q 661 956 721 949 l 661 983 q 811 979 714 979 q 932 983 889 979 l 932 956 z "},"Ú":{"ha":957,"x_min":26,"x_max":932,"o":"m 932 956 q 865 932 886 949 q 835 879 843 915 q 828 772 828 843 l 828 404 q 771 110 828 206 q 663 15 733 49 q 489 -19 592 -19 q 239 50 328 -19 q 153 180 175 101 q 131 400 131 258 l 131 836 q 123 913 131 889 q 94 944 115 936 q 26 956 72 953 l 26 983 q 243 979 97 979 q 464 983 388 979 l 464 956 q 391 944 414 953 q 360 913 368 936 q 351 836 351 889 l 351 313 q 394 98 351 167 q 543 29 436 29 q 739 123 682 29 q 796 389 796 217 l 796 756 q 786 875 796 836 q 749 931 776 914 q 661 956 721 949 l 661 983 q 811 979 714 979 q 932 983 889 979 l 932 956 m 619 1297 q 663 1308 639 1308 q 703 1297 685 1308 q 732 1267 722 1286 q 740 1235 740 1253 q 728 1195 740 1214 q 693 1164 715 1176 q 644 1144 672 1153 q 585 1128 617 1135 q 523 1111 575 1125 q 404 1072 471 1097 l 394 1089 q 532 1221 463 1146 q 581 1269 563 1253 q 619 1297 599 1285 z "},"Ŭ":{"ha":957,"x_min":26,"x_max":932,"o":"m 932 956 q 865 932 886 949 q 835 879 843 915 q 828 772 828 843 l 828 404 q 771 110 828 206 q 663 15 733 49 q 489 -19 592 -19 q 239 50 328 -19 q 153 180 175 101 q 131 400 131 258 l 131 836 q 123 913 131 889 q 94 944 115 936 q 26 956 72 953 l 26 983 q 243 979 97 979 q 464 983 388 979 l 464 956 q 391 944 414 953 q 360 913 368 936 q 351 836 351 889 l 351 313 q 394 98 351 167 q 543 29 436 29 q 739 123 682 29 q 796 389 796 217 l 796 756 q 786 875 796 836 q 749 931 776 914 q 661 956 721 949 l 661 983 q 811 979 714 979 q 932 983 889 979 l 932 956 m 797 1257 q 683 1126 763 1182 q 488 1071 604 1071 q 292 1126 371 1071 q 178 1257 213 1182 l 194 1271 q 313 1212 240 1236 q 488 1188 386 1188 q 661 1213 589 1188 q 781 1272 733 1238 l 797 1257 z "},"Ǔ":{"ha":957,"x_min":26,"x_max":932,"o":"m 932 956 q 865 932 886 949 q 835 879 843 915 q 828 772 828 843 l 828 404 q 771 110 828 206 q 663 15 733 49 q 489 -19 592 -19 q 239 50 328 -19 q 153 180 175 101 q 131 400 131 258 l 131 836 q 123 913 131 889 q 94 944 115 936 q 26 956 72 953 l 26 983 q 243 979 97 979 q 464 983 388 979 l 464 956 q 391 944 414 953 q 360 913 368 936 q 351 836 351 889 l 351 313 q 394 98 351 167 q 543 29 436 29 q 739 123 682 29 q 796 389 796 217 l 796 756 q 786 875 796 836 q 749 931 776 914 q 661 956 721 949 l 661 983 q 811 979 714 979 q 932 983 889 979 l 932 956 m 789 1282 q 624 1188 700 1246 q 504 1065 549 1129 l 479 1065 q 360 1186 436 1128 q 194 1282 285 1244 l 201 1303 q 380 1263 292 1288 q 519 1213 468 1238 q 635 1263 563 1238 q 782 1303 708 1288 l 789 1282 z "},"Û":{"ha":957,"x_min":26,"x_max":932,"o":"m 932 956 q 865 932 886 949 q 835 879 843 915 q 828 772 828 843 l 828 404 q 771 110 828 206 q 663 15 733 49 q 489 -19 592 -19 q 239 50 328 -19 q 153 180 175 101 q 131 400 131 258 l 131 836 q 123 913 131 889 q 94 944 115 936 q 26 956 72 953 l 26 983 q 243 979 97 979 q 464 983 388 979 l 464 956 q 391 944 414 953 q 360 913 368 936 q 351 836 351 889 l 351 313 q 394 98 351 167 q 543 29 436 29 q 739 123 682 29 q 796 389 796 217 l 796 756 q 786 875 796 836 q 749 931 776 914 q 661 956 721 949 l 661 983 q 811 979 714 979 q 932 983 889 979 l 932 956 m 508 1306 q 628 1185 553 1243 q 793 1089 704 1126 l 786 1068 q 608 1110 696 1085 q 468 1158 519 1135 q 352 1110 425 1135 q 206 1068 279 1085 l 199 1089 q 363 1185 288 1126 q 483 1306 439 1243 l 508 1306 z "},"Ü":{"ha":957,"x_min":26,"x_max":932,"o":"m 932 956 q 865 932 886 949 q 835 879 843 915 q 828 772 828 843 l 828 404 q 771 110 828 206 q 663 15 733 49 q 489 -19 592 -19 q 239 50 328 -19 q 153 180 175 101 q 131 400 131 258 l 131 836 q 123 913 131 889 q 94 944 115 936 q 26 956 72 953 l 26 983 q 243 979 97 979 q 464 983 388 979 l 464 956 q 391 944 414 953 q 360 913 368 936 q 351 836 351 889 l 351 313 q 394 98 351 167 q 543 29 436 29 q 739 123 682 29 q 796 389 796 217 l 796 756 q 786 875 796 836 q 749 931 776 914 q 661 956 721 949 l 661 983 q 811 979 714 979 q 932 983 889 979 l 932 956 m 329 1274 q 403 1242 371 1274 q 435 1168 435 1210 q 403 1095 435 1126 q 329 1064 371 1064 q 256 1094 286 1064 q 225 1168 225 1125 q 256 1242 225 1210 q 329 1274 288 1274 m 663 1274 q 735 1242 704 1274 q 767 1168 767 1210 q 735 1094 767 1125 q 663 1064 704 1064 q 588 1094 619 1064 q 557 1168 557 1125 q 588 1242 557 1210 q 663 1274 619 1274 z "},"Ụ":{"ha":957,"x_min":26,"x_max":932,"o":"m 932 956 q 865 932 886 949 q 835 879 843 915 q 828 772 828 843 l 828 404 q 771 110 828 206 q 663 15 733 49 q 489 -19 592 -19 q 239 50 328 -19 q 153 180 175 101 q 131 400 131 258 l 131 836 q 123 913 131 889 q 94 944 115 936 q 26 956 72 953 l 26 983 q 243 979 97 979 q 464 983 388 979 l 464 956 q 391 944 414 953 q 360 913 368 936 q 351 836 351 889 l 351 313 q 394 98 351 167 q 543 29 436 29 q 739 123 682 29 q 796 389 796 217 l 796 756 q 786 875 796 836 q 749 931 776 914 q 661 956 721 949 l 661 983 q 811 979 714 979 q 932 983 889 979 l 932 956 m 528 -260 q 453 -235 481 -260 q 425 -168 425 -211 q 453 -101 425 -126 q 531 -76 481 -76 q 606 -101 579 -76 q 633 -168 633 -125 q 605 -235 633 -211 q 528 -260 576 -260 z "},"Ù":{"ha":957,"x_min":26,"x_max":932,"o":"m 932 956 q 865 932 886 949 q 835 879 843 915 q 828 772 828 843 l 828 404 q 771 110 828 206 q 663 15 733 49 q 489 -19 592 -19 q 239 50 328 -19 q 153 180 175 101 q 131 400 131 258 l 131 836 q 123 913 131 889 q 94 944 115 936 q 26 956 72 953 l 26 983 q 243 979 97 979 q 464 983 388 979 l 464 956 q 391 944 414 953 q 360 913 368 936 q 351 836 351 889 l 351 313 q 394 98 351 167 q 543 29 436 29 q 739 123 682 29 q 796 389 796 217 l 796 756 q 786 875 796 836 q 749 931 776 914 q 661 956 721 949 l 661 983 q 811 979 714 979 q 932 983 889 979 l 932 956 m 364 1297 q 403 1269 385 1285 q 451 1221 421 1253 q 589 1089 521 1146 l 579 1072 q 460 1111 513 1097 q 399 1128 408 1125 q 339 1144 367 1135 q 290 1164 311 1153 q 256 1195 268 1176 q 243 1235 243 1214 q 251 1267 243 1253 q 280 1297 261 1286 q 321 1308 299 1308 q 364 1297 344 1308 z "},"Ủ":{"ha":957,"x_min":26,"x_max":932,"o":"m 932 956 q 865 932 886 949 q 835 879 843 915 q 828 772 828 843 l 828 404 q 771 110 828 206 q 663 15 733 49 q 489 -19 592 -19 q 239 50 328 -19 q 153 180 175 101 q 131 400 131 258 l 131 836 q 123 913 131 889 q 94 944 115 936 q 26 956 72 953 l 26 983 q 243 979 97 979 q 464 983 388 979 l 464 956 q 391 944 414 953 q 360 913 368 936 q 351 836 351 889 l 351 313 q 394 98 351 167 q 543 29 436 29 q 739 123 682 29 q 796 389 796 217 l 796 756 q 786 875 796 836 q 749 931 776 914 q 661 956 721 949 l 661 983 q 811 979 714 979 q 932 983 889 979 l 932 956 m 474 1135 q 565 1243 565 1174 q 535 1306 565 1285 q 460 1328 506 1328 q 394 1310 413 1328 q 439 1284 424 1303 q 454 1238 454 1265 q 433 1185 454 1206 q 379 1165 411 1165 q 326 1185 346 1165 q 306 1238 306 1206 q 321 1289 306 1267 q 361 1325 336 1311 q 496 1356 414 1356 q 638 1328 581 1356 q 694 1250 694 1300 q 641 1169 694 1203 q 501 1122 588 1136 l 501 1058 l 474 1058 l 474 1135 z "},"Ư":{"ha":957,"x_min":26,"x_max":1044,"o":"m 946 1215 q 1016 1188 988 1215 q 1044 1117 1044 1160 q 1021 1047 1044 1078 q 957 994 997 1015 q 828 953 890 960 l 828 404 q 771 110 828 206 q 663 15 733 49 q 489 -19 592 -19 q 239 50 328 -19 q 153 180 175 101 q 131 400 131 258 l 131 836 q 123 913 131 889 q 94 944 115 936 q 26 956 72 953 l 26 983 q 243 979 97 979 q 464 983 388 979 l 464 956 q 391 944 414 953 q 360 913 368 936 q 351 836 351 889 l 351 313 q 394 98 351 167 q 543 29 436 29 q 739 123 682 29 q 796 389 796 217 l 796 951 l 750 950 q 658 956 697 950 l 665 983 q 768 978 738 978 q 855 984 819 978 q 922 1010 890 990 q 871 1056 892 1028 q 850 1118 850 1083 q 877 1188 850 1161 q 946 1215 904 1215 z "},"Ứ":{"ha":957,"x_min":26,"x_max":1044,"o":"m 946 1215 q 1016 1188 988 1215 q 1044 1117 1044 1160 q 1021 1047 1044 1078 q 957 994 997 1015 q 828 953 890 960 l 828 404 q 771 110 828 206 q 663 15 733 49 q 489 -19 592 -19 q 239 50 328 -19 q 153 180 175 101 q 131 400 131 258 l 131 836 q 123 913 131 889 q 94 944 115 936 q 26 956 72 953 l 26 983 q 243 979 97 979 q 464 983 388 979 l 464 956 q 391 944 414 953 q 360 913 368 936 q 351 836 351 889 l 351 313 q 394 98 351 167 q 543 29 436 29 q 739 123 682 29 q 796 389 796 217 l 796 951 l 750 950 q 658 956 697 950 l 665 983 q 768 978 738 978 q 855 984 819 978 q 922 1010 890 990 q 871 1056 892 1028 q 850 1118 850 1083 q 877 1188 850 1161 q 946 1215 904 1215 m 619 1297 q 663 1308 639 1308 q 703 1297 685 1308 q 732 1267 722 1286 q 740 1235 740 1253 q 728 1195 740 1214 q 693 1164 715 1176 q 644 1144 672 1153 q 585 1128 617 1135 q 523 1111 575 1125 q 404 1072 471 1097 l 394 1089 q 532 1221 463 1146 q 581 1269 563 1253 q 619 1297 599 1285 z "},"Ự":{"ha":957,"x_min":26,"x_max":1044,"o":"m 946 1215 q 1016 1188 988 1215 q 1044 1117 1044 1160 q 1021 1047 1044 1078 q 957 994 997 1015 q 828 953 890 960 l 828 404 q 771 110 828 206 q 663 15 733 49 q 489 -19 592 -19 q 239 50 328 -19 q 153 180 175 101 q 131 400 131 258 l 131 836 q 123 913 131 889 q 94 944 115 936 q 26 956 72 953 l 26 983 q 243 979 97 979 q 464 983 388 979 l 464 956 q 391 944 414 953 q 360 913 368 936 q 351 836 351 889 l 351 313 q 394 98 351 167 q 543 29 436 29 q 739 123 682 29 q 796 389 796 217 l 796 951 l 750 950 q 658 956 697 950 l 665 983 q 768 978 738 978 q 855 984 819 978 q 922 1010 890 990 q 871 1056 892 1028 q 850 1118 850 1083 q 877 1188 850 1161 q 946 1215 904 1215 m 528 -260 q 453 -235 481 -260 q 425 -168 425 -211 q 453 -101 425 -126 q 531 -76 481 -76 q 606 -101 579 -76 q 633 -168 633 -125 q 605 -235 633 -211 q 528 -260 576 -260 z "},"Ừ":{"ha":957,"x_min":26,"x_max":1044,"o":"m 946 1215 q 1016 1188 988 1215 q 1044 1117 1044 1160 q 1021 1047 1044 1078 q 957 994 997 1015 q 828 953 890 960 l 828 404 q 771 110 828 206 q 663 15 733 49 q 489 -19 592 -19 q 239 50 328 -19 q 153 180 175 101 q 131 400 131 258 l 131 836 q 123 913 131 889 q 94 944 115 936 q 26 956 72 953 l 26 983 q 243 979 97 979 q 464 983 388 979 l 464 956 q 391 944 414 953 q 360 913 368 936 q 351 836 351 889 l 351 313 q 394 98 351 167 q 543 29 436 29 q 739 123 682 29 q 796 389 796 217 l 796 951 l 750 950 q 658 956 697 950 l 665 983 q 768 978 738 978 q 855 984 819 978 q 922 1010 890 990 q 871 1056 892 1028 q 850 1118 850 1083 q 877 1188 850 1161 q 946 1215 904 1215 m 364 1297 q 403 1269 385 1285 q 451 1221 421 1253 q 589 1089 521 1146 l 579 1072 q 460 1111 513 1097 q 399 1128 408 1125 q 339 1144 367 1135 q 290 1164 311 1153 q 256 1195 268 1176 q 243 1235 243 1214 q 251 1267 243 1253 q 280 1297 261 1286 q 321 1308 299 1308 q 364 1297 344 1308 z "},"Ử":{"ha":957,"x_min":26,"x_max":1044,"o":"m 946 1215 q 1016 1188 988 1215 q 1044 1117 1044 1160 q 1021 1047 1044 1078 q 957 994 997 1015 q 828 953 890 960 l 828 404 q 771 110 828 206 q 663 15 733 49 q 489 -19 592 -19 q 239 50 328 -19 q 153 180 175 101 q 131 400 131 258 l 131 836 q 123 913 131 889 q 94 944 115 936 q 26 956 72 953 l 26 983 q 243 979 97 979 q 464 983 388 979 l 464 956 q 391 944 414 953 q 360 913 368 936 q 351 836 351 889 l 351 313 q 394 98 351 167 q 543 29 436 29 q 739 123 682 29 q 796 389 796 217 l 796 951 l 750 950 q 658 956 697 950 l 665 983 q 768 978 738 978 q 855 984 819 978 q 922 1010 890 990 q 871 1056 892 1028 q 850 1118 850 1083 q 877 1188 850 1161 q 946 1215 904 1215 m 474 1135 q 565 1243 565 1174 q 535 1306 565 1285 q 460 1328 506 1328 q 394 1310 413 1328 q 439 1284 424 1303 q 454 1238 454 1265 q 433 1185 454 1206 q 379 1165 411 1165 q 326 1185 346 1165 q 306 1238 306 1206 q 321 1289 306 1267 q 361 1325 336 1311 q 496 1356 414 1356 q 638 1328 581 1356 q 694 1250 694 1300 q 641 1169 694 1203 q 501 1122 588 1136 l 501 1058 l 474 1058 l 474 1135 z "},"Ữ":{"ha":957,"x_min":26,"x_max":1044,"o":"m 946 1215 q 1016 1188 988 1215 q 1044 1117 1044 1160 q 1021 1047 1044 1078 q 957 994 997 1015 q 828 953 890 960 l 828 404 q 771 110 828 206 q 663 15 733 49 q 489 -19 592 -19 q 239 50 328 -19 q 153 180 175 101 q 131 400 131 258 l 131 836 q 123 913 131 889 q 94 944 115 936 q 26 956 72 953 l 26 983 q 243 979 97 979 q 464 983 388 979 l 464 956 q 391 944 414 953 q 360 913 368 936 q 351 836 351 889 l 351 313 q 394 98 351 167 q 543 29 436 29 q 739 123 682 29 q 796 389 796 217 l 796 951 l 750 950 q 658 956 697 950 l 665 983 q 768 978 738 978 q 855 984 819 978 q 922 1010 890 990 q 871 1056 892 1028 q 850 1118 850 1083 q 877 1188 850 1161 q 946 1215 904 1215 m 374 1283 q 455 1269 419 1283 q 533 1231 490 1256 q 601 1196 572 1207 q 665 1185 631 1185 q 781 1260 739 1185 l 800 1253 q 732 1114 782 1161 q 615 1067 682 1067 q 535 1080 569 1067 q 457 1119 501 1093 q 387 1154 417 1143 q 322 1165 357 1165 q 207 1089 251 1165 l 188 1096 q 258 1235 207 1188 q 374 1283 308 1283 z "},"Ű":{"ha":957,"x_min":26,"x_max":932,"o":"m 932 956 q 865 932 886 949 q 835 879 843 915 q 828 772 828 843 l 828 404 q 771 110 828 206 q 663 15 733 49 q 489 -19 592 -19 q 239 50 328 -19 q 153 180 175 101 q 131 400 131 258 l 131 836 q 123 913 131 889 q 94 944 115 936 q 26 956 72 953 l 26 983 q 243 979 97 979 q 464 983 388 979 l 464 956 q 391 944 414 953 q 360 913 368 936 q 351 836 351 889 l 351 313 q 394 98 351 167 q 543 29 436 29 q 739 123 682 29 q 796 389 796 217 l 796 756 q 786 875 796 836 q 749 931 776 914 q 661 956 721 949 l 661 983 q 811 979 714 979 q 932 983 889 979 l 932 956 m 435 1299 q 486 1317 458 1317 q 549 1283 524 1317 q 564 1242 564 1261 q 525 1175 564 1206 q 464 1144 501 1158 q 418 1126 426 1129 q 286 1072 338 1097 l 272 1088 q 363 1208 308 1128 q 401 1264 385 1243 q 435 1299 417 1285 m 728 1299 q 779 1317 751 1317 q 842 1283 817 1317 q 857 1242 857 1261 q 818 1175 857 1206 q 757 1144 794 1158 q 711 1126 719 1129 q 579 1072 631 1097 l 565 1088 q 656 1208 601 1128 q 694 1264 678 1243 q 728 1299 710 1285 z "},"Ū":{"ha":957,"x_min":26,"x_max":932,"o":"m 932 956 q 865 932 886 949 q 835 879 843 915 q 828 772 828 843 l 828 404 q 771 110 828 206 q 663 15 733 49 q 489 -19 592 -19 q 239 50 328 -19 q 153 180 175 101 q 131 400 131 258 l 131 836 q 123 913 131 889 q 94 944 115 936 q 26 956 72 953 l 26 983 q 243 979 97 979 q 464 983 388 979 l 464 956 q 391 944 414 953 q 360 913 368 936 q 351 836 351 889 l 351 313 q 394 98 351 167 q 543 29 436 29 q 739 123 682 29 q 796 389 796 217 l 796 756 q 786 875 796 836 q 749 931 776 914 q 661 956 721 949 l 661 983 q 811 979 714 979 q 932 983 889 979 l 932 956 m 774 1138 l 218 1138 l 218 1172 l 774 1172 l 774 1138 z "},"Ų":{"ha":957,"x_min":26,"x_max":932,"o":"m 932 956 q 865 932 886 949 q 835 879 843 915 q 828 772 828 843 l 828 404 q 771 110 828 206 q 663 15 733 49 q 489 -19 592 -19 q 239 50 328 -19 q 153 180 175 101 q 131 400 131 258 l 131 836 q 123 913 131 889 q 94 944 115 936 q 26 956 72 953 l 26 983 q 243 979 97 979 q 464 983 388 979 l 464 956 q 391 944 414 953 q 360 913 368 936 q 351 836 351 889 l 351 313 q 394 98 351 167 q 543 29 436 29 q 739 123 682 29 q 796 389 796 217 l 796 756 q 786 875 796 836 q 749 931 776 914 q 661 956 721 949 l 661 983 q 811 979 714 979 q 932 983 889 979 l 932 956 m 638 4 q 523 -56 560 -19 q 486 -128 486 -92 q 544 -185 486 -185 q 592 -174 568 -185 q 633 -147 617 -164 l 651 -167 q 569 -239 615 -217 q 461 -261 524 -261 q 368 -235 401 -261 q 335 -165 335 -210 q 400 -65 335 -108 q 585 4 465 -21 l 638 4 z "},"Ů":{"ha":957,"x_min":26,"x_max":932,"o":"m 932 956 q 865 932 886 949 q 835 879 843 915 q 828 772 828 843 l 828 404 q 771 110 828 206 q 663 15 733 49 q 489 -19 592 -19 q 239 50 328 -19 q 153 180 175 101 q 131 400 131 258 l 131 836 q 123 913 131 889 q 94 944 115 936 q 26 956 72 953 l 26 983 q 243 979 97 979 q 464 983 388 979 l 464 956 q 391 944 414 953 q 360 913 368 936 q 351 836 351 889 l 351 313 q 394 98 351 167 q 543 29 436 29 q 739 123 682 29 q 796 389 796 217 l 796 756 q 786 875 796 836 q 749 931 776 914 q 661 956 721 949 l 661 983 q 811 979 714 979 q 932 983 889 979 l 932 956 m 496 1372 q 603 1335 558 1372 q 647 1238 647 1299 q 603 1139 647 1176 q 496 1101 558 1101 q 390 1139 433 1101 q 346 1238 346 1176 q 390 1335 346 1299 q 496 1372 433 1372 m 496 1343 q 419 1314 453 1343 q 385 1236 385 1285 q 419 1158 385 1186 q 496 1131 453 1131 q 574 1158 540 1131 q 608 1236 608 1186 q 574 1314 608 1285 q 496 1343 540 1343 z "},"Ũ":{"ha":957,"x_min":26,"x_max":932,"o":"m 932 956 q 865 932 886 949 q 835 879 843 915 q 828 772 828 843 l 828 404 q 771 110 828 206 q 663 15 733 49 q 489 -19 592 -19 q 239 50 328 -19 q 153 180 175 101 q 131 400 131 258 l 131 836 q 123 913 131 889 q 94 944 115 936 q 26 956 72 953 l 26 983 q 243 979 97 979 q 464 983 388 979 l 464 956 q 391 944 414 953 q 360 913 368 936 q 351 836 351 889 l 351 313 q 394 98 351 167 q 543 29 436 29 q 739 123 682 29 q 796 389 796 217 l 796 756 q 786 875 796 836 q 749 931 776 914 q 661 956 721 949 l 661 983 q 811 979 714 979 q 932 983 889 979 l 932 956 m 374 1283 q 455 1269 419 1283 q 533 1231 490 1256 q 601 1196 572 1207 q 665 1185 631 1185 q 781 1260 739 1185 l 800 1253 q 732 1114 782 1161 q 615 1067 682 1067 q 535 1080 569 1067 q 457 1119 501 1093 q 387 1154 417 1143 q 322 1165 357 1165 q 207 1089 251 1165 l 188 1096 q 258 1235 207 1188 q 374 1283 308 1283 z "},"V":{"ha":928,"x_min":-17,"x_max":942,"o":"m 836 979 q 942 983 900 979 l 942 956 q 874 903 907 943 q 814 790 840 863 l 521 -3 q 472 -1 506 -1 q 425 -3 440 -1 l 71 867 q 29 933 53 913 q -17 956 6 954 l -17 983 q 194 979 67 979 q 406 983 338 979 l 406 956 q 331 943 353 953 q 308 904 308 933 q 325 839 308 881 l 569 217 l 740 678 q 779 847 779 785 q 749 928 779 903 q 663 956 719 953 l 663 983 q 836 979 757 979 z "},"W":{"ha":1344,"x_min":-17,"x_max":1353,"o":"m 1246 979 q 1353 983 1311 979 l 1353 956 q 1285 902 1318 942 q 1231 790 1253 863 l 986 -3 q 938 -1 971 -1 q 889 -3 904 -1 l 685 617 l 479 -3 q 431 -1 464 -1 q 382 -3 397 -1 l 71 867 q 31 933 54 913 q -17 956 7 954 l -17 983 q 190 979 67 979 q 361 983 307 979 l 361 956 q 313 901 313 949 q 325 839 313 879 l 528 251 l 668 665 l 597 881 q 565 937 583 921 q 521 956 546 953 l 521 983 q 719 979 599 979 q 919 983 856 979 l 919 956 q 847 944 869 954 q 825 904 825 933 q 839 839 825 879 l 1029 258 l 1161 678 q 1193 839 1193 782 q 1163 926 1193 899 q 1074 956 1133 953 l 1074 983 q 1246 979 1168 979 z "},"Ẃ":{"ha":1344,"x_min":-17,"x_max":1353,"o":"m 1246 979 q 1353 983 1311 979 l 1353 956 q 1285 902 1318 942 q 1231 790 1253 863 l 986 -3 q 938 -1 971 -1 q 889 -3 904 -1 l 685 617 l 479 -3 q 431 -1 464 -1 q 382 -3 397 -1 l 71 867 q 31 933 54 913 q -17 956 7 954 l -17 983 q 190 979 67 979 q 361 983 307 979 l 361 956 q 313 901 313 949 q 325 839 313 879 l 528 251 l 668 665 l 597 881 q 565 937 583 921 q 521 956 546 953 l 521 983 q 719 979 599 979 q 919 983 856 979 l 919 956 q 847 944 869 954 q 825 904 825 933 q 839 839 825 879 l 1029 258 l 1161 678 q 1193 839 1193 782 q 1163 926 1193 899 q 1074 956 1133 953 l 1074 983 q 1246 979 1168 979 m 819 1297 q 863 1308 839 1308 q 903 1297 885 1308 q 932 1267 922 1286 q 940 1235 940 1253 q 928 1195 940 1214 q 893 1164 915 1176 q 844 1144 872 1153 q 785 1128 817 1135 q 723 1111 775 1125 q 604 1072 671 1097 l 594 1089 q 732 1221 663 1146 q 781 1269 763 1253 q 819 1297 799 1285 z "},"Ŵ":{"ha":1344,"x_min":-17,"x_max":1353,"o":"m 1246 979 q 1353 983 1311 979 l 1353 956 q 1285 902 1318 942 q 1231 790 1253 863 l 986 -3 q 938 -1 971 -1 q 889 -3 904 -1 l 685 617 l 479 -3 q 431 -1 464 -1 q 382 -3 397 -1 l 71 867 q 31 933 54 913 q -17 956 7 954 l -17 983 q 190 979 67 979 q 361 983 307 979 l 361 956 q 313 901 313 949 q 325 839 313 879 l 528 251 l 668 665 l 597 881 q 565 937 583 921 q 521 956 546 953 l 521 983 q 719 979 599 979 q 919 983 856 979 l 919 956 q 847 944 869 954 q 825 904 825 933 q 839 839 825 879 l 1029 258 l 1161 678 q 1193 839 1193 782 q 1163 926 1193 899 q 1074 956 1133 953 l 1074 983 q 1246 979 1168 979 m 708 1306 q 828 1185 753 1243 q 993 1089 904 1126 l 986 1068 q 808 1110 896 1085 q 668 1158 719 1135 q 552 1110 625 1135 q 406 1068 479 1085 l 399 1089 q 563 1185 488 1126 q 683 1306 639 1243 l 708 1306 z "},"Ẅ":{"ha":1344,"x_min":-17,"x_max":1353,"o":"m 1246 979 q 1353 983 1311 979 l 1353 956 q 1285 902 1318 942 q 1231 790 1253 863 l 986 -3 q 938 -1 971 -1 q 889 -3 904 -1 l 685 617 l 479 -3 q 431 -1 464 -1 q 382 -3 397 -1 l 71 867 q 31 933 54 913 q -17 956 7 954 l -17 983 q 190 979 67 979 q 361 983 307 979 l 361 956 q 313 901 313 949 q 325 839 313 879 l 528 251 l 668 665 l 597 881 q 565 937 583 921 q 521 956 546 953 l 521 983 q 719 979 599 979 q 919 983 856 979 l 919 956 q 847 944 869 954 q 825 904 825 933 q 839 839 825 879 l 1029 258 l 1161 678 q 1193 839 1193 782 q 1163 926 1193 899 q 1074 956 1133 953 l 1074 983 q 1246 979 1168 979 m 529 1274 q 603 1242 571 1274 q 635 1168 635 1210 q 603 1095 635 1126 q 529 1064 571 1064 q 456 1094 486 1064 q 425 1168 425 1125 q 456 1242 425 1210 q 529 1274 488 1274 m 863 1274 q 935 1242 904 1274 q 967 1168 967 1210 q 935 1094 967 1125 q 863 1064 904 1064 q 788 1094 819 1064 q 757 1168 757 1125 q 788 1242 757 1210 q 863 1274 819 1274 z "},"Ẁ":{"ha":1344,"x_min":-17,"x_max":1353,"o":"m 1246 979 q 1353 983 1311 979 l 1353 956 q 1285 902 1318 942 q 1231 790 1253 863 l 986 -3 q 938 -1 971 -1 q 889 -3 904 -1 l 685 617 l 479 -3 q 431 -1 464 -1 q 382 -3 397 -1 l 71 867 q 31 933 54 913 q -17 956 7 954 l -17 983 q 190 979 67 979 q 361 983 307 979 l 361 956 q 313 901 313 949 q 325 839 313 879 l 528 251 l 668 665 l 597 881 q 565 937 583 921 q 521 956 546 953 l 521 983 q 719 979 599 979 q 919 983 856 979 l 919 956 q 847 944 869 954 q 825 904 825 933 q 839 839 825 879 l 1029 258 l 1161 678 q 1193 839 1193 782 q 1163 926 1193 899 q 1074 956 1133 953 l 1074 983 q 1246 979 1168 979 m 564 1297 q 603 1269 585 1285 q 651 1221 621 1253 q 789 1089 721 1146 l 779 1072 q 660 1111 713 1097 q 599 1128 608 1125 q 539 1144 567 1135 q 490 1164 511 1153 q 456 1195 468 1176 q 443 1235 443 1214 q 451 1267 443 1253 q 480 1297 461 1286 q 521 1308 499 1308 q 564 1297 544 1308 z "},"X":{"ha":960,"x_min":4,"x_max":976,"o":"m 888 99 q 932 44 915 58 q 976 29 949 31 l 976 0 q 786 6 832 6 q 592 1 742 6 q 563 0 581 0 l 563 29 q 633 34 613 29 q 654 53 654 39 q 644 76 654 63 l 411 419 l 300 268 q 236 122 236 182 q 267 55 236 79 q 354 28 299 31 l 354 0 q 135 4 275 4 q 7 0 51 4 l 7 28 q 208 197 103 58 l 393 446 l 93 886 q 49 941 65 928 q 4 956 32 954 l 4 985 q 32 983 21 985 q 203 979 165 979 q 415 985 324 979 l 415 956 q 347 949 368 956 q 326 929 326 943 q 338 903 326 918 l 544 600 l 647 739 q 713 879 713 825 q 686 933 713 914 q 611 956 660 953 l 611 983 q 786 979 690 979 q 914 983 869 979 l 914 956 q 824 904 869 943 q 739 810 779 865 l 563 574 l 888 99 z "},"Y":{"ha":865,"x_min":-10,"x_max":857,"o":"m 751 981 q 857 985 815 981 l 857 957 q 724 796 793 931 l 560 471 l 560 147 q 567 71 560 94 q 596 39 575 47 q 664 28 617 31 l 664 0 q 450 4 589 4 q 235 0 301 4 l 235 28 q 302 39 281 31 q 331 71 324 47 q 339 147 339 94 l 339 382 l 71 878 q -10 956 28 956 l -10 985 q 154 978 51 978 q 415 985 283 978 l 415 956 q 338 947 367 956 q 310 914 310 938 q 319 883 310 901 l 531 476 l 639 693 q 693 865 693 803 q 663 933 693 913 q 578 957 633 954 l 578 985 q 751 981 672 981 z "},"Ý":{"ha":865,"x_min":-10,"x_max":857,"o":"m 751 981 q 857 985 815 981 l 857 957 q 724 796 793 931 l 560 471 l 560 147 q 567 71 560 94 q 596 39 575 47 q 664 28 617 31 l 664 0 q 450 4 589 4 q 235 0 301 4 l 235 28 q 302 39 281 31 q 331 71 324 47 q 339 147 339 94 l 339 382 l 71 878 q -10 956 28 956 l -10 985 q 154 978 51 978 q 415 985 283 978 l 415 956 q 338 947 367 956 q 310 914 310 938 q 319 883 310 901 l 531 476 l 639 693 q 693 865 693 803 q 663 933 693 913 q 578 957 633 954 l 578 985 q 751 981 672 981 m 582 1297 q 625 1308 601 1308 q 666 1297 647 1308 q 694 1267 685 1286 q 703 1235 703 1253 q 690 1195 703 1214 q 656 1164 678 1176 q 607 1144 635 1153 q 547 1128 579 1135 q 485 1111 538 1125 q 367 1072 433 1097 l 357 1089 q 494 1221 425 1146 q 543 1269 525 1253 q 582 1297 561 1285 z "},"Ŷ":{"ha":865,"x_min":-10,"x_max":857,"o":"m 751 981 q 857 985 815 981 l 857 957 q 724 796 793 931 l 560 471 l 560 147 q 567 71 560 94 q 596 39 575 47 q 664 28 617 31 l 664 0 q 450 4 589 4 q 235 0 301 4 l 235 28 q 302 39 281 31 q 331 71 324 47 q 339 147 339 94 l 339 382 l 71 878 q -10 956 28 956 l -10 985 q 154 978 51 978 q 415 985 283 978 l 415 956 q 338 947 367 956 q 310 914 310 938 q 319 883 310 901 l 531 476 l 639 693 q 693 865 693 803 q 663 933 693 913 q 578 957 633 954 l 578 985 q 751 981 672 981 m 471 1306 q 591 1185 515 1243 q 756 1089 667 1126 l 749 1068 q 570 1110 658 1085 q 431 1158 482 1135 q 315 1110 388 1135 q 168 1068 242 1085 l 161 1089 q 326 1185 250 1126 q 446 1306 401 1243 l 471 1306 z "},"Ÿ":{"ha":865,"x_min":-10,"x_max":857,"o":"m 751 981 q 857 985 815 981 l 857 957 q 724 796 793 931 l 560 471 l 560 147 q 567 71 560 94 q 596 39 575 47 q 664 28 617 31 l 664 0 q 450 4 589 4 q 235 0 301 4 l 235 28 q 302 39 281 31 q 331 71 324 47 q 339 147 339 94 l 339 382 l 71 878 q -10 956 28 956 l -10 985 q 154 978 51 978 q 415 985 283 978 l 415 956 q 338 947 367 956 q 310 914 310 938 q 319 883 310 901 l 531 476 l 639 693 q 693 865 693 803 q 663 933 693 913 q 578 957 633 954 l 578 985 q 751 981 672 981 m 292 1274 q 365 1242 333 1274 q 397 1168 397 1210 q 365 1095 397 1126 q 292 1064 333 1064 q 218 1094 249 1064 q 188 1168 188 1125 q 219 1242 188 1210 q 292 1274 250 1274 m 625 1274 q 698 1242 667 1274 q 729 1168 729 1210 q 698 1094 729 1125 q 625 1064 667 1064 q 551 1094 582 1064 q 519 1168 519 1125 q 551 1242 519 1210 q 625 1274 582 1274 z "},"Ỵ":{"ha":865,"x_min":-10,"x_max":857,"o":"m 751 981 q 857 985 815 981 l 857 957 q 724 796 793 931 l 560 471 l 560 147 q 567 71 560 94 q 596 39 575 47 q 664 28 617 31 l 664 0 q 450 4 589 4 q 235 0 301 4 l 235 28 q 302 39 281 31 q 331 71 324 47 q 339 147 339 94 l 339 382 l 71 878 q -10 956 28 956 l -10 985 q 154 978 51 978 q 415 985 283 978 l 415 956 q 338 947 367 956 q 310 914 310 938 q 319 883 310 901 l 531 476 l 639 693 q 693 865 693 803 q 663 933 693 913 q 578 957 633 954 l 578 985 q 751 981 672 981 m 431 -260 q 356 -235 383 -260 q 328 -168 328 -211 q 356 -101 328 -126 q 433 -76 383 -76 q 509 -101 482 -76 q 536 -168 536 -125 q 508 -235 536 -211 q 431 -260 479 -260 z "},"Ỳ":{"ha":865,"x_min":-10,"x_max":857,"o":"m 751 981 q 857 985 815 981 l 857 957 q 724 796 793 931 l 560 471 l 560 147 q 567 71 560 94 q 596 39 575 47 q 664 28 617 31 l 664 0 q 450 4 589 4 q 235 0 301 4 l 235 28 q 302 39 281 31 q 331 71 324 47 q 339 147 339 94 l 339 382 l 71 878 q -10 956 28 956 l -10 985 q 154 978 51 978 q 415 985 283 978 l 415 956 q 338 947 367 956 q 310 914 310 938 q 319 883 310 901 l 531 476 l 639 693 q 693 865 693 803 q 663 933 693 913 q 578 957 633 954 l 578 985 q 751 981 672 981 m 326 1297 q 365 1269 347 1285 q 414 1221 383 1253 q 551 1089 483 1146 l 542 1072 q 423 1111 475 1097 q 361 1128 371 1125 q 301 1144 329 1135 q 253 1164 274 1153 q 218 1195 231 1176 q 206 1235 206 1214 q 214 1267 206 1253 q 242 1297 224 1286 q 283 1308 261 1308 q 326 1297 307 1308 z "},"Ỷ":{"ha":865,"x_min":-10,"x_max":857,"o":"m 751 981 q 857 985 815 981 l 857 957 q 724 796 793 931 l 560 471 l 560 147 q 567 71 560 94 q 596 39 575 47 q 664 28 617 31 l 664 0 q 450 4 589 4 q 235 0 301 4 l 235 28 q 302 39 281 31 q 331 71 324 47 q 339 147 339 94 l 339 382 l 71 878 q -10 956 28 956 l -10 985 q 154 978 51 978 q 415 985 283 978 l 415 956 q 338 947 367 956 q 310 914 310 938 q 319 883 310 901 l 531 476 l 639 693 q 693 865 693 803 q 663 933 693 913 q 578 957 633 954 l 578 985 q 751 981 672 981 m 436 1135 q 528 1243 528 1174 q 498 1306 528 1285 q 422 1328 468 1328 q 357 1310 375 1328 q 401 1284 386 1303 q 417 1238 417 1265 q 395 1185 417 1206 q 342 1165 374 1165 q 288 1185 308 1165 q 268 1238 268 1206 q 283 1289 268 1267 q 324 1325 299 1311 q 458 1356 376 1356 q 600 1328 543 1356 q 657 1250 657 1300 q 603 1169 657 1203 q 464 1122 550 1136 l 464 1058 l 436 1058 l 436 1135 z "},"Ỹ":{"ha":865,"x_min":-10,"x_max":857,"o":"m 751 981 q 857 985 815 981 l 857 957 q 724 796 793 931 l 560 471 l 560 147 q 567 71 560 94 q 596 39 575 47 q 664 28 617 31 l 664 0 q 450 4 589 4 q 235 0 301 4 l 235 28 q 302 39 281 31 q 331 71 324 47 q 339 147 339 94 l 339 382 l 71 878 q -10 956 28 956 l -10 985 q 154 978 51 978 q 415 985 283 978 l 415 956 q 338 947 367 956 q 310 914 310 938 q 319 883 310 901 l 531 476 l 639 693 q 693 865 693 803 q 663 933 693 913 q 578 957 633 954 l 578 985 q 751 981 672 981 m 336 1283 q 417 1269 382 1283 q 496 1231 453 1256 q 564 1196 535 1207 q 628 1185 593 1185 q 743 1260 701 1185 l 763 1253 q 694 1114 744 1161 q 578 1067 644 1067 q 498 1080 532 1067 q 419 1119 464 1093 q 349 1154 379 1143 q 285 1165 319 1165 q 169 1089 214 1165 l 150 1096 q 220 1235 169 1188 q 336 1283 271 1283 z "},"Z":{"ha":836,"x_min":54,"x_max":774,"o":"m 774 956 l 299 32 l 443 32 q 635 104 551 32 q 736 333 719 176 l 768 333 q 764 211 764 286 q 774 0 764 83 q 428 4 671 4 q 54 0 169 4 l 54 28 l 531 951 l 381 951 q 194 886 267 951 q 103 667 121 821 l 71 667 q 75 772 75 707 q 65 983 75 865 q 378 979 157 979 q 774 983 651 979 l 774 956 z "},"Ź":{"ha":836,"x_min":54,"x_max":774,"o":"m 774 956 l 299 32 l 443 32 q 635 104 551 32 q 736 333 719 176 l 768 333 q 764 211 764 286 q 774 0 764 83 q 428 4 671 4 q 54 0 169 4 l 54 28 l 531 951 l 381 951 q 194 886 267 951 q 103 667 121 821 l 71 667 q 75 772 75 707 q 65 983 75 865 q 378 979 157 979 q 774 983 651 979 l 774 956 m 543 1297 q 586 1308 563 1308 q 627 1297 608 1308 q 656 1267 646 1286 q 664 1235 664 1253 q 651 1195 664 1214 q 617 1164 639 1176 q 568 1144 596 1153 q 508 1128 540 1135 q 447 1111 499 1125 q 328 1072 394 1097 l 318 1089 q 456 1221 386 1146 q 504 1269 486 1253 q 543 1297 522 1285 z "},"Ž":{"ha":836,"x_min":54,"x_max":774,"o":"m 774 956 l 299 32 l 443 32 q 635 104 551 32 q 736 333 719 176 l 768 333 q 764 211 764 286 q 774 0 764 83 q 428 4 671 4 q 54 0 169 4 l 54 28 l 531 951 l 381 951 q 194 886 267 951 q 103 667 121 821 l 71 667 q 75 772 75 707 q 65 983 75 865 q 378 979 157 979 q 774 983 651 979 l 774 956 m 713 1282 q 548 1188 624 1246 q 428 1065 472 1129 l 403 1065 q 284 1186 360 1128 q 118 1282 208 1244 l 125 1303 q 303 1263 215 1288 q 443 1213 392 1238 q 559 1263 486 1238 q 706 1303 632 1288 l 713 1282 z "},"Ż":{"ha":836,"x_min":54,"x_max":774,"o":"m 774 956 l 299 32 l 443 32 q 635 104 551 32 q 736 333 719 176 l 768 333 q 764 211 764 286 q 774 0 764 83 q 428 4 671 4 q 54 0 169 4 l 54 28 l 531 951 l 381 951 q 194 886 267 951 q 103 667 121 821 l 71 667 q 75 772 75 707 q 65 983 75 865 q 378 979 157 979 q 774 983 651 979 l 774 956 m 419 1342 q 512 1313 478 1342 q 546 1235 546 1285 q 512 1156 546 1185 q 419 1128 478 1128 q 327 1156 361 1128 q 293 1235 293 1185 q 327 1313 293 1285 q 419 1342 361 1342 z "},"a":{"ha":719,"x_min":40,"x_max":713,"o":"m 217 -10 q 84 36 128 -10 q 40 157 40 82 q 73 260 40 219 q 152 324 106 301 q 271 371 199 346 q 383 419 347 397 q 418 478 418 440 l 418 586 q 391 677 418 644 q 307 710 364 710 q 206 676 240 710 q 266 635 244 663 q 288 569 288 607 q 256 494 288 522 q 178 467 224 467 q 103 497 129 467 q 76 574 76 528 q 95 640 76 613 q 153 690 114 667 q 245 725 190 713 q 365 738 300 738 q 483 724 433 738 q 567 676 533 710 q 608 601 597 646 q 618 481 618 557 l 618 103 q 624 56 618 69 q 649 42 631 42 q 699 65 669 42 l 713 42 q 560 -10 650 -10 q 453 21 483 -10 q 421 103 422 51 q 217 -10 351 -10 m 324 79 q 418 136 378 79 l 418 421 q 347 360 401 393 q 265 290 293 325 q 238 190 238 256 q 261 106 238 133 q 324 79 285 79 z "},"á":{"ha":719,"x_min":40,"x_max":713,"o":"m 217 -10 q 84 36 128 -10 q 40 157 40 82 q 73 260 40 219 q 152 324 106 301 q 271 371 199 346 q 383 419 347 397 q 418 478 418 440 l 418 586 q 391 677 418 644 q 307 710 364 710 q 206 676 240 710 q 266 635 244 663 q 288 569 288 607 q 256 494 288 522 q 178 467 224 467 q 103 497 129 467 q 76 574 76 528 q 95 640 76 613 q 153 690 114 667 q 245 725 190 713 q 365 738 300 738 q 483 724 433 738 q 567 676 533 710 q 608 601 597 646 q 618 481 618 557 l 618 103 q 624 56 618 69 q 649 42 631 42 q 699 65 669 42 l 713 42 q 560 -10 650 -10 q 453 21 483 -10 q 421 103 422 51 q 217 -10 351 -10 m 324 79 q 418 136 378 79 l 418 421 q 347 360 401 393 q 265 290 293 325 q 238 190 238 256 q 261 106 238 133 q 324 79 285 79 m 513 1135 q 538 1082 538 1117 q 517 1025 538 1053 q 478 988 501 1007 q 429 950 456 969 q 282 832 346 892 l 267 844 q 344 1015 304 913 q 373 1080 363 1058 q 399 1119 383 1101 q 464 1153 425 1153 q 513 1135 493 1153 z "},"ă":{"ha":719,"x_min":40,"x_max":713,"o":"m 217 -10 q 84 36 128 -10 q 40 157 40 82 q 73 260 40 219 q 152 324 106 301 q 271 371 199 346 q 383 419 347 397 q 418 478 418 440 l 418 586 q 391 677 418 644 q 307 710 364 710 q 206 676 240 710 q 266 635 244 663 q 288 569 288 607 q 256 494 288 522 q 178 467 224 467 q 103 497 129 467 q 76 574 76 528 q 95 640 76 613 q 153 690 114 667 q 245 725 190 713 q 365 738 300 738 q 483 724 433 738 q 567 676 533 710 q 608 601 597 646 q 618 481 618 557 l 618 103 q 624 56 618 69 q 649 42 631 42 q 699 65 669 42 l 713 42 q 560 -10 650 -10 q 453 21 483 -10 q 421 103 422 51 q 217 -10 351 -10 m 324 79 q 418 136 378 79 l 418 421 q 347 360 401 393 q 265 290 293 325 q 238 190 238 256 q 261 106 238 133 q 324 79 285 79 m 625 1082 q 529 926 594 990 q 360 863 464 863 q 190 926 256 863 q 94 1082 125 990 l 118 1094 q 360 994 206 994 q 601 1094 514 994 l 625 1082 z "},"ắ":{"ha":719,"x_min":40,"x_max":713,"o":"m 217 -10 q 84 36 128 -10 q 40 157 40 82 q 73 260 40 219 q 152 324 106 301 q 271 371 199 346 q 383 419 347 397 q 418 478 418 440 l 418 586 q 391 677 418 644 q 307 710 364 710 q 206 676 240 710 q 266 635 244 663 q 288 569 288 607 q 256 494 288 522 q 178 467 224 467 q 103 497 129 467 q 76 574 76 528 q 95 640 76 613 q 153 690 114 667 q 245 725 190 713 q 365 738 300 738 q 483 724 433 738 q 567 676 533 710 q 608 601 597 646 q 618 481 618 557 l 618 103 q 624 56 618 69 q 649 42 631 42 q 699 65 669 42 l 713 42 q 560 -10 650 -10 q 453 21 483 -10 q 421 103 422 51 q 217 -10 351 -10 m 324 79 q 418 136 378 79 l 418 421 q 347 360 401 393 q 265 290 293 325 q 238 190 238 256 q 261 106 238 133 q 324 79 285 79 m 625 1082 q 529 926 594 990 q 360 863 464 863 q 190 926 256 863 q 94 1082 125 990 l 118 1094 q 360 994 206 994 q 601 1094 514 994 l 625 1082 m 511 1400 q 536 1347 536 1382 q 515 1290 536 1318 q 477 1253 500 1272 q 428 1215 454 1235 q 281 1097 344 1157 l 265 1110 q 343 1281 303 1178 q 372 1345 361 1324 q 397 1385 382 1367 q 463 1418 424 1418 q 511 1400 492 1418 z "},"ặ":{"ha":719,"x_min":40,"x_max":713,"o":"m 217 -10 q 84 36 128 -10 q 40 157 40 82 q 73 260 40 219 q 152 324 106 301 q 271 371 199 346 q 383 419 347 397 q 418 478 418 440 l 418 586 q 391 677 418 644 q 307 710 364 710 q 206 676 240 710 q 266 635 244 663 q 288 569 288 607 q 256 494 288 522 q 178 467 224 467 q 103 497 129 467 q 76 574 76 528 q 95 640 76 613 q 153 690 114 667 q 245 725 190 713 q 365 738 300 738 q 483 724 433 738 q 567 676 533 710 q 608 601 597 646 q 618 481 618 557 l 618 103 q 624 56 618 69 q 649 42 631 42 q 699 65 669 42 l 713 42 q 560 -10 650 -10 q 453 21 483 -10 q 421 103 422 51 q 217 -10 351 -10 m 324 79 q 418 136 378 79 l 418 421 q 347 360 401 393 q 265 290 293 325 q 238 190 238 256 q 261 106 238 133 q 324 79 285 79 m 625 1082 q 529 926 594 990 q 360 863 464 863 q 190 926 256 863 q 94 1082 125 990 l 118 1094 q 360 994 206 994 q 601 1094 514 994 l 625 1082 m 357 -260 q 282 -235 310 -260 q 254 -168 254 -211 q 282 -101 254 -126 q 360 -76 310 -76 q 435 -101 408 -76 q 463 -168 463 -125 q 434 -235 463 -211 q 357 -260 406 -260 z "},"ằ":{"ha":719,"x_min":40,"x_max":713,"o":"m 217 -10 q 84 36 128 -10 q 40 157 40 82 q 73 260 40 219 q 152 324 106 301 q 271 371 199 346 q 383 419 347 397 q 418 478 418 440 l 418 586 q 391 677 418 644 q 307 710 364 710 q 206 676 240 710 q 266 635 244 663 q 288 569 288 607 q 256 494 288 522 q 178 467 224 467 q 103 497 129 467 q 76 574 76 528 q 95 640 76 613 q 153 690 114 667 q 245 725 190 713 q 365 738 300 738 q 483 724 433 738 q 567 676 533 710 q 608 601 597 646 q 618 481 618 557 l 618 103 q 624 56 618 69 q 649 42 631 42 q 699 65 669 42 l 713 42 q 560 -10 650 -10 q 453 21 483 -10 q 421 103 422 51 q 217 -10 351 -10 m 324 79 q 418 136 378 79 l 418 421 q 347 360 401 393 q 265 290 293 325 q 238 190 238 256 q 261 106 238 133 q 324 79 285 79 m 625 1082 q 529 926 594 990 q 360 863 464 863 q 190 926 256 863 q 94 1082 125 990 l 118 1094 q 360 994 206 994 q 601 1094 514 994 l 625 1082 m 186 1400 q 233 1418 206 1418 q 269 1409 251 1418 q 300 1385 288 1400 q 326 1345 315 1367 q 354 1281 336 1324 q 432 1110 394 1178 l 417 1097 q 269 1215 353 1157 q 220 1253 243 1235 q 182 1290 197 1272 q 161 1346 161 1318 q 186 1400 161 1379 z "},"ẳ":{"ha":719,"x_min":40,"x_max":713,"o":"m 217 -10 q 84 36 128 -10 q 40 157 40 82 q 73 260 40 219 q 152 324 106 301 q 271 371 199 346 q 383 419 347 397 q 418 478 418 440 l 418 586 q 391 677 418 644 q 307 710 364 710 q 206 676 240 710 q 266 635 244 663 q 288 569 288 607 q 256 494 288 522 q 178 467 224 467 q 103 497 129 467 q 76 574 76 528 q 95 640 76 613 q 153 690 114 667 q 245 725 190 713 q 365 738 300 738 q 483 724 433 738 q 567 676 533 710 q 608 601 597 646 q 618 481 618 557 l 618 103 q 624 56 618 69 q 649 42 631 42 q 699 65 669 42 l 713 42 q 560 -10 650 -10 q 453 21 483 -10 q 421 103 422 51 q 217 -10 351 -10 m 324 79 q 418 136 378 79 l 418 421 q 347 360 401 393 q 265 290 293 325 q 238 190 238 256 q 261 106 238 133 q 324 79 285 79 m 625 1082 q 529 926 594 990 q 360 863 464 863 q 190 926 256 863 q 94 1082 125 990 l 118 1094 q 360 994 206 994 q 601 1094 514 994 l 625 1082 m 346 1171 q 426 1224 401 1194 q 451 1296 451 1254 q 425 1367 451 1342 q 356 1392 399 1392 q 317 1388 336 1392 q 290 1375 299 1383 q 354 1301 354 1357 q 333 1249 354 1269 q 279 1229 311 1229 q 226 1249 246 1229 q 206 1301 206 1269 q 221 1353 206 1331 q 261 1389 236 1375 q 393 1419 313 1419 q 528 1388 476 1419 q 581 1303 581 1356 q 524 1213 581 1249 q 374 1158 467 1176 l 374 1094 l 346 1094 l 346 1171 z "},"ẵ":{"ha":719,"x_min":40,"x_max":713,"o":"m 217 -10 q 84 36 128 -10 q 40 157 40 82 q 73 260 40 219 q 152 324 106 301 q 271 371 199 346 q 383 419 347 397 q 418 478 418 440 l 418 586 q 391 677 418 644 q 307 710 364 710 q 206 676 240 710 q 266 635 244 663 q 288 569 288 607 q 256 494 288 522 q 178 467 224 467 q 103 497 129 467 q 76 574 76 528 q 95 640 76 613 q 153 690 114 667 q 245 725 190 713 q 365 738 300 738 q 483 724 433 738 q 567 676 533 710 q 608 601 597 646 q 618 481 618 557 l 618 103 q 624 56 618 69 q 649 42 631 42 q 699 65 669 42 l 713 42 q 560 -10 650 -10 q 453 21 483 -10 q 421 103 422 51 q 217 -10 351 -10 m 324 79 q 418 136 378 79 l 418 421 q 347 360 401 393 q 265 290 293 325 q 238 190 238 256 q 261 106 238 133 q 324 79 285 79 m 625 1082 q 529 926 594 990 q 360 863 464 863 q 190 926 256 863 q 94 1082 125 990 l 118 1094 q 360 994 206 994 q 601 1094 514 994 l 625 1082 m 256 1357 q 324 1344 296 1357 q 386 1307 351 1332 q 440 1275 419 1285 q 490 1265 461 1265 q 597 1339 553 1265 l 617 1329 q 549 1183 594 1231 q 444 1136 503 1136 q 378 1149 406 1136 q 311 1186 350 1161 q 260 1219 282 1208 q 208 1229 238 1229 q 101 1154 147 1229 l 82 1164 q 151 1310 104 1263 q 256 1357 197 1357 z "},"ǎ":{"ha":719,"x_min":40,"x_max":713,"o":"m 217 -10 q 84 36 128 -10 q 40 157 40 82 q 73 260 40 219 q 152 324 106 301 q 271 371 199 346 q 383 419 347 397 q 418 478 418 440 l 418 586 q 391 677 418 644 q 307 710 364 710 q 206 676 240 710 q 266 635 244 663 q 288 569 288 607 q 256 494 288 522 q 178 467 224 467 q 103 497 129 467 q 76 574 76 528 q 95 640 76 613 q 153 690 114 667 q 245 725 190 713 q 365 738 300 738 q 483 724 433 738 q 567 676 533 710 q 608 601 597 646 q 618 481 618 557 l 618 103 q 624 56 618 69 q 649 42 631 42 q 699 65 669 42 l 713 42 q 560 -10 650 -10 q 453 21 483 -10 q 421 103 422 51 q 217 -10 351 -10 m 324 79 q 418 136 378 79 l 418 421 q 347 360 401 393 q 265 290 293 325 q 238 190 238 256 q 261 106 238 133 q 324 79 285 79 m 608 1119 q 465 1001 531 1074 q 360 847 399 928 l 335 847 q 231 999 297 925 q 86 1119 164 1074 l 97 1139 q 253 1091 178 1119 q 375 1033 329 1063 q 473 1092 413 1063 q 597 1139 533 1121 l 608 1119 z "},"â":{"ha":719,"x_min":40,"x_max":713,"o":"m 217 -10 q 84 36 128 -10 q 40 157 40 82 q 73 260 40 219 q 152 324 106 301 q 271 371 199 346 q 383 419 347 397 q 418 478 418 440 l 418 586 q 391 677 418 644 q 307 710 364 710 q 206 676 240 710 q 266 635 244 663 q 288 569 288 607 q 256 494 288 522 q 178 467 224 467 q 103 497 129 467 q 76 574 76 528 q 95 640 76 613 q 153 690 114 667 q 245 725 190 713 q 365 738 300 738 q 483 724 433 738 q 567 676 533 710 q 608 601 597 646 q 618 481 618 557 l 618 103 q 624 56 618 69 q 649 42 631 42 q 699 65 669 42 l 713 42 q 560 -10 650 -10 q 453 21 483 -10 q 421 103 422 51 q 217 -10 351 -10 m 324 79 q 418 136 378 79 l 418 421 q 347 360 401 393 q 265 290 293 325 q 238 190 238 256 q 261 106 238 133 q 324 79 285 79 m 374 1139 q 478 987 411 1061 q 622 867 544 913 l 611 847 q 455 895 531 867 q 333 953 379 924 q 235 894 296 924 q 111 847 175 865 l 100 867 q 244 985 178 913 q 349 1139 310 1058 l 374 1139 z "},"ấ":{"ha":719,"x_min":40,"x_max":713,"o":"m 217 -10 q 84 36 128 -10 q 40 157 40 82 q 73 260 40 219 q 152 324 106 301 q 271 371 199 346 q 383 419 347 397 q 418 478 418 440 l 418 586 q 391 677 418 644 q 307 710 364 710 q 206 676 240 710 q 266 635 244 663 q 288 569 288 607 q 256 494 288 522 q 178 467 224 467 q 103 497 129 467 q 76 574 76 528 q 95 640 76 613 q 153 690 114 667 q 245 725 190 713 q 365 738 300 738 q 483 724 433 738 q 567 676 533 710 q 608 601 597 646 q 618 481 618 557 l 618 103 q 624 56 618 69 q 649 42 631 42 q 699 65 669 42 l 713 42 q 560 -10 650 -10 q 453 21 483 -10 q 421 103 422 51 q 217 -10 351 -10 m 324 79 q 418 136 378 79 l 418 421 q 347 360 401 393 q 265 290 293 325 q 238 190 238 256 q 261 106 238 133 q 324 79 285 79 m 374 1139 q 478 987 411 1061 q 622 867 544 913 l 611 847 q 455 895 531 867 q 333 953 379 924 q 235 894 296 924 q 111 847 175 865 l 100 867 q 244 985 178 913 q 349 1139 310 1058 l 374 1139 m 500 1469 q 525 1417 525 1451 q 504 1360 525 1388 q 466 1323 489 1342 q 417 1285 443 1304 q 269 1167 333 1226 l 254 1179 q 332 1350 292 1247 q 360 1415 350 1393 q 386 1454 371 1436 q 451 1488 413 1488 q 500 1469 481 1488 z "},"ậ":{"ha":719,"x_min":40,"x_max":713,"o":"m 217 -10 q 84 36 128 -10 q 40 157 40 82 q 73 260 40 219 q 152 324 106 301 q 271 371 199 346 q 383 419 347 397 q 418 478 418 440 l 418 586 q 391 677 418 644 q 307 710 364 710 q 206 676 240 710 q 266 635 244 663 q 288 569 288 607 q 256 494 288 522 q 178 467 224 467 q 103 497 129 467 q 76 574 76 528 q 95 640 76 613 q 153 690 114 667 q 245 725 190 713 q 365 738 300 738 q 483 724 433 738 q 567 676 533 710 q 608 601 597 646 q 618 481 618 557 l 618 103 q 624 56 618 69 q 649 42 631 42 q 699 65 669 42 l 713 42 q 560 -10 650 -10 q 453 21 483 -10 q 421 103 422 51 q 217 -10 351 -10 m 324 79 q 418 136 378 79 l 418 421 q 347 360 401 393 q 265 290 293 325 q 238 190 238 256 q 261 106 238 133 q 324 79 285 79 m 374 1139 q 478 987 411 1061 q 622 867 544 913 l 611 847 q 455 895 531 867 q 333 953 379 924 q 235 894 296 924 q 111 847 175 865 l 100 867 q 244 985 178 913 q 349 1139 310 1058 l 374 1139 m 357 -260 q 282 -235 310 -260 q 254 -168 254 -211 q 282 -101 254 -126 q 360 -76 310 -76 q 435 -101 408 -76 q 463 -168 463 -125 q 434 -235 463 -211 q 357 -260 406 -260 z "},"ầ":{"ha":719,"x_min":40,"x_max":713,"o":"m 217 -10 q 84 36 128 -10 q 40 157 40 82 q 73 260 40 219 q 152 324 106 301 q 271 371 199 346 q 383 419 347 397 q 418 478 418 440 l 418 586 q 391 677 418 644 q 307 710 364 710 q 206 676 240 710 q 266 635 244 663 q 288 569 288 607 q 256 494 288 522 q 178 467 224 467 q 103 497 129 467 q 76 574 76 528 q 95 640 76 613 q 153 690 114 667 q 245 725 190 713 q 365 738 300 738 q 483 724 433 738 q 567 676 533 710 q 608 601 597 646 q 618 481 618 557 l 618 103 q 624 56 618 69 q 649 42 631 42 q 699 65 669 42 l 713 42 q 560 -10 650 -10 q 453 21 483 -10 q 421 103 422 51 q 217 -10 351 -10 m 324 79 q 418 136 378 79 l 418 421 q 347 360 401 393 q 265 290 293 325 q 238 190 238 256 q 261 106 238 133 q 324 79 285 79 m 374 1139 q 478 987 411 1061 q 622 867 544 913 l 611 847 q 455 895 531 867 q 333 953 379 924 q 235 894 296 924 q 111 847 175 865 l 100 867 q 244 985 178 913 q 349 1139 310 1058 l 374 1139 m 175 1469 q 222 1488 194 1488 q 258 1478 240 1488 q 289 1454 276 1469 q 315 1415 304 1436 q 343 1350 325 1393 q 421 1179 383 1247 l 406 1167 q 258 1285 342 1226 q 209 1323 232 1304 q 171 1360 186 1342 q 150 1415 150 1388 q 175 1469 150 1449 z "},"ẩ":{"ha":719,"x_min":40,"x_max":826,"o":"m 217 -10 q 84 36 128 -10 q 40 157 40 82 q 73 260 40 219 q 152 324 106 301 q 271 371 199 346 q 383 419 347 397 q 418 478 418 440 l 418 586 q 391 677 418 644 q 307 710 364 710 q 206 676 240 710 q 266 635 244 663 q 288 569 288 607 q 256 494 288 522 q 178 467 224 467 q 103 497 129 467 q 76 574 76 528 q 95 640 76 613 q 153 690 114 667 q 245 725 190 713 q 365 738 300 738 q 483 724 433 738 q 567 676 533 710 q 608 601 597 646 q 618 481 618 557 l 618 103 q 624 56 618 69 q 649 42 631 42 q 699 65 669 42 l 713 42 q 560 -10 650 -10 q 453 21 483 -10 q 421 103 422 51 q 217 -10 351 -10 m 324 79 q 418 136 378 79 l 418 421 q 347 360 401 393 q 265 290 293 325 q 238 190 238 256 q 261 106 238 133 q 324 79 285 79 m 374 1139 q 478 987 411 1061 q 622 867 544 913 l 611 847 q 455 895 531 867 q 333 953 379 924 q 235 894 296 924 q 111 847 175 865 l 100 867 q 244 985 178 913 q 349 1139 310 1058 l 374 1139 m 592 1133 q 672 1187 647 1157 q 697 1258 697 1217 q 671 1329 697 1304 q 601 1354 644 1354 q 563 1350 582 1354 q 536 1338 544 1346 q 600 1264 600 1319 q 578 1212 600 1232 q 525 1192 557 1192 q 472 1212 492 1192 q 451 1264 451 1232 q 467 1315 451 1293 q 507 1351 482 1338 q 639 1382 558 1382 q 774 1350 722 1382 q 826 1265 826 1318 q 769 1175 826 1211 q 619 1121 713 1139 l 619 1057 l 592 1057 l 592 1133 z "},"ẫ":{"ha":719,"x_min":40,"x_max":713,"o":"m 217 -10 q 84 36 128 -10 q 40 157 40 82 q 73 260 40 219 q 152 324 106 301 q 271 371 199 346 q 383 419 347 397 q 418 478 418 440 l 418 586 q 391 677 418 644 q 307 710 364 710 q 206 676 240 710 q 266 635 244 663 q 288 569 288 607 q 256 494 288 522 q 178 467 224 467 q 103 497 129 467 q 76 574 76 528 q 95 640 76 613 q 153 690 114 667 q 245 725 190 713 q 365 738 300 738 q 483 724 433 738 q 567 676 533 710 q 608 601 597 646 q 618 481 618 557 l 618 103 q 624 56 618 69 q 649 42 631 42 q 699 65 669 42 l 713 42 q 560 -10 650 -10 q 453 21 483 -10 q 421 103 422 51 q 217 -10 351 -10 m 324 79 q 418 136 378 79 l 418 421 q 347 360 401 393 q 265 290 293 325 q 238 190 238 256 q 261 106 238 133 q 324 79 285 79 m 374 1139 q 478 987 411 1061 q 622 867 544 913 l 611 847 q 455 895 531 867 q 333 953 379 924 q 235 894 296 924 q 111 847 175 865 l 100 867 q 244 985 178 913 q 349 1139 310 1058 l 374 1139 m 244 1426 q 313 1414 285 1426 q 375 1376 340 1401 q 429 1344 408 1354 q 479 1335 450 1335 q 586 1408 542 1335 l 606 1399 q 538 1253 583 1300 q 433 1206 492 1206 q 367 1218 394 1206 q 300 1256 339 1231 q 249 1288 271 1278 q 197 1299 226 1299 q 90 1224 136 1299 l 71 1233 q 140 1379 93 1332 q 244 1426 186 1426 z "},"ä":{"ha":719,"x_min":40,"x_max":713,"o":"m 217 -10 q 84 36 128 -10 q 40 157 40 82 q 73 260 40 219 q 152 324 106 301 q 271 371 199 346 q 383 419 347 397 q 418 478 418 440 l 418 586 q 391 677 418 644 q 307 710 364 710 q 206 676 240 710 q 266 635 244 663 q 288 569 288 607 q 256 494 288 522 q 178 467 224 467 q 103 497 129 467 q 76 574 76 528 q 95 640 76 613 q 153 690 114 667 q 245 725 190 713 q 365 738 300 738 q 483 724 433 738 q 567 676 533 710 q 608 601 597 646 q 618 481 618 557 l 618 103 q 624 56 618 69 q 649 42 631 42 q 699 65 669 42 l 713 42 q 560 -10 650 -10 q 453 21 483 -10 q 421 103 422 51 q 217 -10 351 -10 m 324 79 q 418 136 378 79 l 418 421 q 347 360 401 393 q 265 290 293 325 q 238 190 238 256 q 261 106 238 133 q 324 79 285 79 m 204 1056 q 278 1024 246 1056 q 310 951 310 993 q 278 878 310 908 q 204 847 246 847 q 131 878 161 847 q 100 951 100 908 q 131 1024 100 993 q 204 1056 161 1056 m 521 1056 q 594 1024 563 1056 q 625 951 625 993 q 594 878 625 908 q 521 847 563 847 q 446 878 476 847 q 415 951 415 908 q 447 1024 415 993 q 521 1056 478 1056 z "},"ạ":{"ha":719,"x_min":40,"x_max":713,"o":"m 217 -10 q 84 36 128 -10 q 40 157 40 82 q 73 260 40 219 q 152 324 106 301 q 271 371 199 346 q 383 419 347 397 q 418 478 418 440 l 418 586 q 391 677 418 644 q 307 710 364 710 q 206 676 240 710 q 266 635 244 663 q 288 569 288 607 q 256 494 288 522 q 178 467 224 467 q 103 497 129 467 q 76 574 76 528 q 95 640 76 613 q 153 690 114 667 q 245 725 190 713 q 365 738 300 738 q 483 724 433 738 q 567 676 533 710 q 608 601 597 646 q 618 481 618 557 l 618 103 q 624 56 618 69 q 649 42 631 42 q 699 65 669 42 l 713 42 q 560 -10 650 -10 q 453 21 483 -10 q 421 103 422 51 q 217 -10 351 -10 m 324 79 q 418 136 378 79 l 418 421 q 347 360 401 393 q 265 290 293 325 q 238 190 238 256 q 261 106 238 133 q 324 79 285 79 m 357 -260 q 282 -235 310 -260 q 254 -168 254 -211 q 282 -101 254 -126 q 360 -76 310 -76 q 435 -101 408 -76 q 463 -168 463 -125 q 434 -235 463 -211 q 357 -260 406 -260 z "},"à":{"ha":719,"x_min":40,"x_max":713,"o":"m 217 -10 q 84 36 128 -10 q 40 157 40 82 q 73 260 40 219 q 152 324 106 301 q 271 371 199 346 q 383 419 347 397 q 418 478 418 440 l 418 586 q 391 677 418 644 q 307 710 364 710 q 206 676 240 710 q 266 635 244 663 q 288 569 288 607 q 256 494 288 522 q 178 467 224 467 q 103 497 129 467 q 76 574 76 528 q 95 640 76 613 q 153 690 114 667 q 245 725 190 713 q 365 738 300 738 q 483 724 433 738 q 567 676 533 710 q 608 601 597 646 q 618 481 618 557 l 618 103 q 624 56 618 69 q 649 42 631 42 q 699 65 669 42 l 713 42 q 560 -10 650 -10 q 453 21 483 -10 q 421 103 422 51 q 217 -10 351 -10 m 324 79 q 418 136 378 79 l 418 421 q 347 360 401 393 q 265 290 293 325 q 238 190 238 256 q 261 106 238 133 q 324 79 285 79 m 188 1135 q 235 1153 207 1153 q 271 1144 253 1153 q 301 1119 289 1135 q 327 1080 317 1101 q 356 1015 338 1058 q 433 844 396 913 l 418 832 q 271 950 354 892 q 222 988 244 969 q 183 1025 199 1007 q 163 1081 163 1053 q 188 1135 163 1114 z "},"ả":{"ha":719,"x_min":40,"x_max":713,"o":"m 217 -10 q 84 36 128 -10 q 40 157 40 82 q 73 260 40 219 q 152 324 106 301 q 271 371 199 346 q 383 419 347 397 q 418 478 418 440 l 418 586 q 391 677 418 644 q 307 710 364 710 q 206 676 240 710 q 266 635 244 663 q 288 569 288 607 q 256 494 288 522 q 178 467 224 467 q 103 497 129 467 q 76 574 76 528 q 95 640 76 613 q 153 690 114 667 q 245 725 190 713 q 365 738 300 738 q 483 724 433 738 q 567 676 533 710 q 608 601 597 646 q 618 481 618 557 l 618 103 q 624 56 618 69 q 649 42 631 42 q 699 65 669 42 l 713 42 q 560 -10 650 -10 q 453 21 483 -10 q 421 103 422 51 q 217 -10 351 -10 m 324 79 q 418 136 378 79 l 418 421 q 347 360 401 393 q 265 290 293 325 q 238 190 238 256 q 261 106 238 133 q 324 79 285 79 m 347 906 q 428 959 403 929 q 453 1031 453 989 q 426 1101 453 1076 q 357 1126 400 1126 q 319 1122 338 1126 q 292 1110 300 1118 q 356 1036 356 1092 q 334 984 356 1004 q 281 964 313 964 q 227 984 247 964 q 207 1036 207 1004 q 222 1088 207 1065 q 263 1124 238 1110 q 394 1154 314 1154 q 530 1122 478 1154 q 582 1038 582 1090 q 525 947 582 983 q 375 893 468 911 l 375 829 l 347 829 l 347 906 z "},"ā":{"ha":719,"x_min":40,"x_max":713,"o":"m 217 -10 q 84 36 128 -10 q 40 157 40 82 q 73 260 40 219 q 152 324 106 301 q 271 371 199 346 q 383 419 347 397 q 418 478 418 440 l 418 586 q 391 677 418 644 q 307 710 364 710 q 206 676 240 710 q 266 635 244 663 q 288 569 288 607 q 256 494 288 522 q 178 467 224 467 q 103 497 129 467 q 76 574 76 528 q 95 640 76 613 q 153 690 114 667 q 245 725 190 713 q 365 738 300 738 q 483 724 433 738 q 567 676 533 710 q 608 601 597 646 q 618 481 618 557 l 618 103 q 624 56 618 69 q 649 42 631 42 q 699 65 669 42 l 713 42 q 560 -10 650 -10 q 453 21 483 -10 q 421 103 422 51 q 217 -10 351 -10 m 324 79 q 418 136 378 79 l 418 421 q 347 360 401 393 q 265 290 293 325 q 238 190 238 256 q 261 106 238 133 q 324 79 285 79 m 590 954 l 124 954 l 124 989 l 590 989 l 590 954 z "},"ą":{"ha":719,"x_min":40,"x_max":713,"o":"m 217 -10 q 84 36 128 -10 q 40 157 40 82 q 73 260 40 219 q 152 324 106 301 q 271 371 199 346 q 383 419 347 397 q 418 478 418 440 l 418 586 q 391 677 418 644 q 307 710 364 710 q 206 676 240 710 q 266 635 244 663 q 288 569 288 607 q 256 494 288 522 q 178 467 224 467 q 103 497 129 467 q 76 574 76 528 q 95 640 76 613 q 153 690 114 667 q 245 725 190 713 q 365 738 300 738 q 483 724 433 738 q 567 676 533 710 q 608 601 597 646 q 618 481 618 557 l 618 103 q 624 56 618 69 q 649 42 631 42 q 699 65 669 42 l 713 42 q 560 -10 650 -10 q 453 21 483 -10 q 421 103 422 51 q 217 -10 351 -10 m 324 79 q 418 136 378 79 l 418 421 q 347 360 401 393 q 265 290 293 325 q 238 190 238 256 q 261 106 238 133 q 324 79 285 79 m 660 13 q 633 -4 653 4 q 553 -62 578 -31 q 529 -128 529 -94 q 586 -185 529 -185 q 635 -174 610 -185 q 675 -147 660 -162 l 694 -167 q 612 -239 657 -217 q 504 -261 567 -261 q 410 -236 443 -261 q 378 -165 378 -211 q 436 -65 378 -108 q 603 4 494 -21 l 660 13 z "},"å":{"ha":719,"x_min":40,"x_max":713,"o":"m 217 -10 q 84 36 128 -10 q 40 157 40 82 q 73 260 40 219 q 152 324 106 301 q 271 371 199 346 q 383 419 347 397 q 418 478 418 440 l 418 586 q 391 677 418 644 q 307 710 364 710 q 206 676 240 710 q 266 635 244 663 q 288 569 288 607 q 256 494 288 522 q 178 467 224 467 q 103 497 129 467 q 76 574 76 528 q 95 640 76 613 q 153 690 114 667 q 245 725 190 713 q 365 738 300 738 q 483 724 433 738 q 567 676 533 710 q 608 601 597 646 q 618 481 618 557 l 618 103 q 624 56 618 69 q 649 42 631 42 q 699 65 669 42 l 713 42 q 560 -10 650 -10 q 453 21 483 -10 q 421 103 422 51 q 217 -10 351 -10 m 324 79 q 418 136 378 79 l 418 421 q 347 360 401 393 q 265 290 293 325 q 238 190 238 256 q 261 106 238 133 q 324 79 285 79 m 361 1107 q 468 1070 424 1107 q 513 972 513 1033 q 468 874 513 911 q 361 836 424 836 q 255 874 299 836 q 211 972 211 911 q 255 1070 211 1033 q 361 1107 299 1107 m 361 1078 q 284 1049 318 1078 q 250 971 250 1019 q 284 893 250 921 q 361 865 318 865 q 440 893 406 865 q 474 971 474 921 q 440 1049 474 1019 q 361 1078 406 1078 z "},"ã":{"ha":719,"x_min":40,"x_max":713,"o":"m 217 -10 q 84 36 128 -10 q 40 157 40 82 q 73 260 40 219 q 152 324 106 301 q 271 371 199 346 q 383 419 347 397 q 418 478 418 440 l 418 586 q 391 677 418 644 q 307 710 364 710 q 206 676 240 710 q 266 635 244 663 q 288 569 288 607 q 256 494 288 522 q 178 467 224 467 q 103 497 129 467 q 76 574 76 528 q 95 640 76 613 q 153 690 114 667 q 245 725 190 713 q 365 738 300 738 q 483 724 433 738 q 567 676 533 710 q 608 601 597 646 q 618 481 618 557 l 618 103 q 624 56 618 69 q 649 42 631 42 q 699 65 669 42 l 713 42 q 560 -10 650 -10 q 453 21 483 -10 q 421 103 422 51 q 217 -10 351 -10 m 324 79 q 418 136 378 79 l 418 421 q 347 360 401 393 q 265 290 293 325 q 238 190 238 256 q 261 106 238 133 q 324 79 285 79 m 257 1092 q 325 1079 297 1092 q 388 1042 353 1067 q 442 1010 421 1019 q 492 1000 463 1000 q 599 1074 554 1000 l 618 1064 q 550 918 596 965 q 446 871 504 871 q 379 883 407 871 q 313 921 351 896 q 261 953 283 943 q 210 964 239 964 q 103 889 149 964 l 83 899 q 152 1044 106 997 q 257 1092 199 1092 z "},"æ":{"ha":1029,"x_min":40,"x_max":983,"o":"m 786 94 q 950 206 888 94 l 975 197 q 883 44 949 107 q 717 -19 817 -19 q 557 22 625 -19 q 453 147 489 63 q 346 25 404 60 q 217 -10 288 -10 q 84 36 128 -10 q 40 157 40 82 q 73 260 40 219 q 152 324 106 301 q 271 371 199 346 q 383 419 347 397 q 418 478 418 440 l 418 586 q 391 677 418 644 q 307 710 364 710 q 206 676 240 710 q 266 635 244 663 q 288 569 288 607 q 256 494 288 522 q 178 467 224 467 q 103 497 129 467 q 76 574 76 528 q 95 640 76 613 q 153 690 114 667 q 245 725 190 713 q 365 738 300 738 q 557 685 497 738 q 736 738 631 738 q 983 429 983 738 l 622 429 q 621 364 621 408 q 644 211 621 272 q 706 122 668 150 q 786 94 743 94 m 728 708 q 655 647 683 708 q 619 456 626 585 l 808 456 q 790 636 811 564 q 728 708 769 708 m 442 181 q 418 351 418 254 q 422 424 418 390 q 393 392 410 406 q 349 361 376 379 q 266 290 294 325 q 238 190 238 254 q 260 106 238 133 q 322 79 283 79 q 386 101 357 79 q 442 175 415 124 l 442 181 z "},"b":{"ha":814,"x_min":8,"x_max":761,"o":"m 510 738 q 692 645 622 738 q 761 378 761 553 q 672 77 761 174 q 443 -19 583 -19 q 288 29 347 -19 q 188 18 238 33 q 108 -22 138 3 l 88 -10 q 97 68 97 25 l 97 919 q 77 1013 97 983 q 8 1042 57 1042 l 8 1071 q 94 1067 51 1067 q 297 1086 215 1067 l 297 606 q 382 703 326 669 q 510 738 438 738 m 400 10 q 514 96 476 10 q 551 358 551 182 q 519 603 551 529 q 428 678 488 678 q 347 645 383 678 q 297 557 310 613 l 297 47 q 400 10 343 10 z "},"c":{"ha":689,"x_min":50,"x_max":650,"o":"m 394 738 q 492 726 446 738 q 568 696 538 715 q 624 640 604 674 q 644 565 644 606 q 614 485 644 517 q 535 454 583 454 q 457 482 486 454 q 428 557 428 510 q 454 629 428 599 q 519 671 481 660 q 485 695 508 686 q 436 704 463 704 q 306 613 353 704 q 260 375 260 522 q 313 161 260 226 q 444 96 365 96 q 540 121 492 96 q 626 208 588 146 l 650 200 q 553 45 622 110 q 374 -19 483 -19 q 140 75 231 -19 q 50 356 50 169 q 94 564 50 478 q 217 694 139 650 q 394 738 294 738 z "},"ć":{"ha":689,"x_min":50,"x_max":650,"o":"m 394 738 q 492 726 446 738 q 568 696 538 715 q 624 640 604 674 q 644 565 644 606 q 614 485 644 517 q 535 454 583 454 q 457 482 486 454 q 428 557 428 510 q 454 629 428 599 q 519 671 481 660 q 485 695 508 686 q 436 704 463 704 q 306 613 353 704 q 260 375 260 522 q 313 161 260 226 q 444 96 365 96 q 540 121 492 96 q 626 208 588 146 l 650 200 q 553 45 622 110 q 374 -19 483 -19 q 140 75 231 -19 q 50 356 50 169 q 94 564 50 478 q 217 694 139 650 q 394 738 294 738 m 524 1135 q 549 1082 549 1117 q 528 1025 549 1053 q 490 988 513 1007 q 440 950 467 969 q 293 832 357 892 l 278 844 q 356 1015 315 913 q 384 1080 374 1058 q 410 1119 394 1101 q 475 1153 436 1153 q 524 1135 504 1153 z "},"č":{"ha":689,"x_min":50,"x_max":650,"o":"m 394 738 q 492 726 446 738 q 568 696 538 715 q 624 640 604 674 q 644 565 644 606 q 614 485 644 517 q 535 454 583 454 q 457 482 486 454 q 428 557 428 510 q 454 629 428 599 q 519 671 481 660 q 485 695 508 686 q 436 704 463 704 q 306 613 353 704 q 260 375 260 522 q 313 161 260 226 q 444 96 365 96 q 540 121 492 96 q 626 208 588 146 l 650 200 q 553 45 622 110 q 374 -19 483 -19 q 140 75 231 -19 q 50 356 50 169 q 94 564 50 478 q 217 694 139 650 q 394 738 294 738 m 619 1119 q 476 1001 542 1074 q 371 847 410 928 l 346 847 q 242 999 308 925 q 97 1119 175 1074 l 108 1139 q 265 1091 189 1119 q 386 1033 340 1063 q 484 1092 424 1063 q 608 1139 544 1121 l 619 1119 z "},"ç":{"ha":689,"x_min":50,"x_max":650,"o":"m 394 738 q 492 726 446 738 q 568 696 538 715 q 624 640 604 674 q 644 565 644 606 q 614 485 644 517 q 535 454 583 454 q 457 482 486 454 q 428 557 428 510 q 454 629 428 599 q 519 671 481 660 q 485 695 508 686 q 436 704 463 704 q 306 613 353 704 q 260 375 260 522 q 313 161 260 226 q 444 96 365 96 q 540 121 492 96 q 626 208 588 146 l 650 200 q 553 45 622 110 q 374 -19 483 -19 q 140 75 231 -19 q 50 356 50 169 q 94 564 50 478 q 217 694 139 650 q 394 738 294 738 m 335 -90 q 433 -74 378 -74 q 504 -94 479 -74 q 529 -149 529 -114 q 474 -233 529 -204 q 335 -261 418 -261 q 214 -244 261 -261 l 221 -219 q 282 -225 265 -225 q 353 -211 322 -225 q 383 -168 383 -197 q 338 -132 383 -132 q 282 -142 306 -132 l 326 3 l 364 3 l 335 -90 z "},"ĉ":{"ha":689,"x_min":50,"x_max":650,"o":"m 394 738 q 492 726 446 738 q 568 696 538 715 q 624 640 604 674 q 644 565 644 606 q 614 485 644 517 q 535 454 583 454 q 457 482 486 454 q 428 557 428 510 q 454 629 428 599 q 519 671 481 660 q 485 695 508 686 q 436 704 463 704 q 306 613 353 704 q 260 375 260 522 q 313 161 260 226 q 444 96 365 96 q 540 121 492 96 q 626 208 588 146 l 650 200 q 553 45 622 110 q 374 -19 483 -19 q 140 75 231 -19 q 50 356 50 169 q 94 564 50 478 q 217 694 139 650 q 394 738 294 738 m 385 1139 q 489 987 422 1061 q 633 867 556 913 l 622 847 q 466 895 542 867 q 344 953 390 924 q 247 894 307 924 q 122 847 186 865 l 111 867 q 255 985 189 913 q 360 1139 321 1058 l 385 1139 z "},"ċ":{"ha":689,"x_min":50,"x_max":650,"o":"m 394 738 q 492 726 446 738 q 568 696 538 715 q 624 640 604 674 q 644 565 644 606 q 614 485 644 517 q 535 454 583 454 q 457 482 486 454 q 428 557 428 510 q 454 629 428 599 q 519 671 481 660 q 485 695 508 686 q 436 704 463 704 q 306 613 353 704 q 260 375 260 522 q 313 161 260 226 q 444 96 365 96 q 540 121 492 96 q 626 208 588 146 l 650 200 q 553 45 622 110 q 374 -19 483 -19 q 140 75 231 -19 q 50 356 50 169 q 94 564 50 478 q 217 694 139 650 q 394 738 294 738 m 379 1076 q 472 1048 438 1076 q 506 969 506 1019 q 472 891 506 919 q 379 863 438 863 q 287 891 321 863 q 253 969 253 919 q 287 1048 253 1019 q 379 1076 321 1076 z "},"d":{"ha":831,"x_min":51,"x_max":806,"o":"m 717 153 q 736 60 717 89 q 806 31 756 31 l 806 1 q 719 6 763 6 q 517 -14 596 6 l 517 106 q 336 -19 469 -19 q 128 76 206 -19 q 53 363 51 171 q 92 569 53 485 q 202 695 132 653 q 363 738 272 738 q 517 685 464 738 l 517 921 q 497 1014 517 985 q 428 1043 476 1043 l 428 1072 q 514 1068 472 1068 q 717 1088 635 1068 l 717 153 m 393 40 q 474 74 439 40 q 517 164 510 107 l 517 650 q 415 697 482 697 q 301 613 342 697 q 263 360 261 528 q 295 115 261 190 q 393 40 329 40 z "},"ð":{"ha":788,"x_min":53,"x_max":729,"o":"m 451 954 q 656 727 582 861 q 729 422 729 593 q 636 91 729 203 q 390 -21 543 -21 q 142 69 232 -21 q 53 349 53 158 q 93 560 53 472 q 205 692 133 647 q 368 738 276 738 q 490 699 446 738 q 376 918 456 829 l 154 810 l 142 835 l 357 939 q 179 1063 285 1013 l 190 1086 q 425 972 325 1039 l 624 1069 l 636 1044 l 451 954 m 388 7 q 486 103 449 7 q 524 417 524 199 q 499 668 524 560 q 410 706 467 706 q 263 357 263 706 q 297 94 263 181 q 388 7 332 7 z "},"ď":{"ha":831,"x_min":53,"x_max":938,"o":"m 717 153 q 736 60 717 89 q 806 31 756 31 l 806 1 q 719 6 763 6 q 517 -14 596 6 l 517 106 q 336 -19 469 -19 q 128 76 206 -19 q 53 363 51 171 q 92 569 53 485 q 202 695 132 653 q 363 738 272 738 q 517 685 464 738 l 517 921 q 497 1014 517 985 q 428 1043 476 1043 l 428 1072 q 514 1068 472 1068 q 717 1088 635 1068 l 717 153 m 393 40 q 474 74 439 40 q 517 164 510 107 l 517 650 q 415 697 482 697 q 301 613 342 697 q 263 360 261 528 q 295 115 261 190 q 393 40 329 40 m 931 1089 q 935 1065 933 1082 q 938 1032 938 1047 q 908 944 938 996 q 803 782 878 892 l 783 788 q 811 989 811 944 q 806 1031 811 1018 q 783 1044 800 1044 l 783 1074 l 815 1072 q 874 1076 850 1072 q 931 1089 899 1081 z "},"đ":{"ha":831,"x_min":53,"x_max":818,"o":"m 717 153 q 736 60 717 89 q 806 31 756 31 l 806 1 q 719 6 763 6 q 517 -14 596 6 l 517 106 q 336 -19 469 -19 q 128 76 206 -19 q 53 363 51 171 q 92 569 53 485 q 202 695 132 653 q 363 738 272 738 q 517 685 464 738 l 517 921 q 497 1014 517 985 q 428 1043 476 1043 l 428 1072 q 514 1068 472 1068 q 717 1088 635 1068 l 717 153 m 393 40 q 474 74 439 40 q 517 164 510 107 l 517 650 q 415 697 482 697 q 301 613 342 697 q 263 360 261 528 q 295 115 261 190 q 393 40 329 40 m 818 844 l 285 844 l 285 872 l 818 872 l 818 844 z "},"e":{"ha":700,"x_min":51,"x_max":653,"o":"m 442 94 q 625 206 556 94 l 650 197 q 551 44 622 107 q 372 -19 479 -19 q 138 74 225 -19 q 51 351 51 168 q 144 638 51 539 q 392 738 238 738 q 653 429 653 738 l 263 429 q 261 364 261 408 q 287 211 261 272 q 353 122 313 150 q 442 94 394 94 m 383 708 q 301 647 333 708 q 260 456 268 585 l 478 456 q 456 637 481 565 q 383 708 432 708 z "},"é":{"ha":700,"x_min":51,"x_max":653,"o":"m 442 94 q 625 206 556 94 l 650 197 q 551 44 622 107 q 372 -19 479 -19 q 138 74 225 -19 q 51 351 51 168 q 144 638 51 539 q 392 738 238 738 q 653 429 653 738 l 263 429 q 261 364 261 408 q 287 211 261 272 q 353 122 313 150 q 442 94 394 94 m 383 708 q 301 647 333 708 q 260 456 268 585 l 478 456 q 456 637 481 565 q 383 708 432 708 m 535 1135 q 560 1082 560 1117 q 539 1025 560 1053 q 501 988 524 1007 q 451 950 478 969 q 304 832 368 892 l 289 844 q 367 1015 326 913 q 395 1080 385 1058 q 421 1119 406 1101 q 486 1153 447 1153 q 535 1135 515 1153 z "},"ĕ":{"ha":700,"x_min":51,"x_max":653,"o":"m 442 94 q 625 206 556 94 l 650 197 q 551 44 622 107 q 372 -19 479 -19 q 138 74 225 -19 q 51 351 51 168 q 144 638 51 539 q 392 738 238 738 q 653 429 653 738 l 263 429 q 261 364 261 408 q 287 211 261 272 q 353 122 313 150 q 442 94 394 94 m 383 708 q 301 647 333 708 q 260 456 268 585 l 478 456 q 456 637 481 565 q 383 708 432 708 m 647 1082 q 551 926 617 990 q 382 863 486 863 q 213 926 278 863 q 117 1082 147 990 l 140 1094 q 382 994 228 994 q 624 1094 536 994 l 647 1082 z "},"ě":{"ha":700,"x_min":51,"x_max":653,"o":"m 442 94 q 625 206 556 94 l 650 197 q 551 44 622 107 q 372 -19 479 -19 q 138 74 225 -19 q 51 351 51 168 q 144 638 51 539 q 392 738 238 738 q 653 429 653 738 l 263 429 q 261 364 261 408 q 287 211 261 272 q 353 122 313 150 q 442 94 394 94 m 383 708 q 301 647 333 708 q 260 456 268 585 l 478 456 q 456 637 481 565 q 383 708 432 708 m 631 1119 q 487 1001 553 1074 q 382 847 421 928 l 357 847 q 253 999 319 925 q 108 1119 186 1074 l 119 1139 q 276 1091 200 1119 q 397 1033 351 1063 q 495 1092 435 1063 q 619 1139 556 1121 l 631 1119 z "},"ê":{"ha":700,"x_min":51,"x_max":653,"o":"m 442 94 q 625 206 556 94 l 650 197 q 551 44 622 107 q 372 -19 479 -19 q 138 74 225 -19 q 51 351 51 168 q 144 638 51 539 q 392 738 238 738 q 653 429 653 738 l 263 429 q 261 364 261 408 q 287 211 261 272 q 353 122 313 150 q 442 94 394 94 m 383 708 q 301 647 333 708 q 260 456 268 585 l 478 456 q 456 637 481 565 q 383 708 432 708 m 396 1139 q 500 987 433 1061 q 644 867 567 913 l 633 847 q 477 895 553 867 q 356 953 401 924 q 258 894 318 924 q 133 847 197 865 l 122 867 q 266 985 200 913 q 371 1139 332 1058 l 396 1139 z "},"ế":{"ha":700,"x_min":51,"x_max":653,"o":"m 442 94 q 625 206 556 94 l 650 197 q 551 44 622 107 q 372 -19 479 -19 q 138 74 225 -19 q 51 351 51 168 q 144 638 51 539 q 392 738 238 738 q 653 429 653 738 l 263 429 q 261 364 261 408 q 287 211 261 272 q 353 122 313 150 q 442 94 394 94 m 383 708 q 301 647 333 708 q 260 456 268 585 l 478 456 q 456 637 481 565 q 383 708 432 708 m 396 1139 q 500 987 433 1061 q 644 867 567 913 l 633 847 q 477 895 553 867 q 356 953 401 924 q 258 894 318 924 q 133 847 197 865 l 122 867 q 266 985 200 913 q 371 1139 332 1058 l 396 1139 m 522 1469 q 547 1417 547 1451 q 526 1360 547 1388 q 488 1323 511 1342 q 439 1285 465 1304 q 292 1167 356 1226 l 276 1179 q 354 1350 314 1247 q 383 1415 372 1393 q 408 1454 393 1436 q 474 1488 435 1488 q 522 1469 503 1488 z "},"ệ":{"ha":700,"x_min":51,"x_max":653,"o":"m 442 94 q 625 206 556 94 l 650 197 q 551 44 622 107 q 372 -19 479 -19 q 138 74 225 -19 q 51 351 51 168 q 144 638 51 539 q 392 738 238 738 q 653 429 653 738 l 263 429 q 261 364 261 408 q 287 211 261 272 q 353 122 313 150 q 442 94 394 94 m 383 708 q 301 647 333 708 q 260 456 268 585 l 478 456 q 456 637 481 565 q 383 708 432 708 m 396 1139 q 500 987 433 1061 q 644 867 567 913 l 633 847 q 477 895 553 867 q 356 953 401 924 q 258 894 318 924 q 133 847 197 865 l 122 867 q 266 985 200 913 q 371 1139 332 1058 l 396 1139 m 371 -260 q 296 -235 324 -260 q 268 -168 268 -211 q 296 -101 268 -126 q 374 -76 324 -76 q 449 -101 422 -76 q 476 -168 476 -125 q 448 -235 476 -211 q 371 -260 419 -260 z "},"ề":{"ha":700,"x_min":51,"x_max":653,"o":"m 442 94 q 625 206 556 94 l 650 197 q 551 44 622 107 q 372 -19 479 -19 q 138 74 225 -19 q 51 351 51 168 q 144 638 51 539 q 392 738 238 738 q 653 429 653 738 l 263 429 q 261 364 261 408 q 287 211 261 272 q 353 122 313 150 q 442 94 394 94 m 383 708 q 301 647 333 708 q 260 456 268 585 l 478 456 q 456 637 481 565 q 383 708 432 708 m 396 1139 q 500 987 433 1061 q 644 867 567 913 l 633 847 q 477 895 553 867 q 356 953 401 924 q 258 894 318 924 q 133 847 197 865 l 122 867 q 266 985 200 913 q 371 1139 332 1058 l 396 1139 m 197 1469 q 244 1488 217 1488 q 281 1478 263 1488 q 311 1454 299 1469 q 337 1415 326 1436 q 365 1350 347 1393 q 443 1179 406 1247 l 428 1167 q 281 1285 364 1226 q 231 1323 254 1304 q 193 1360 208 1342 q 172 1415 172 1388 q 197 1469 172 1449 z "},"ể":{"ha":700,"x_min":51,"x_max":849,"o":"m 442 94 q 625 206 556 94 l 650 197 q 551 44 622 107 q 372 -19 479 -19 q 138 74 225 -19 q 51 351 51 168 q 144 638 51 539 q 392 738 238 738 q 653 429 653 738 l 263 429 q 261 364 261 408 q 287 211 261 272 q 353 122 313 150 q 442 94 394 94 m 383 708 q 301 647 333 708 q 260 456 268 585 l 478 456 q 456 637 481 565 q 383 708 432 708 m 396 1139 q 500 987 433 1061 q 644 867 567 913 l 633 847 q 477 895 553 867 q 356 953 401 924 q 258 894 318 924 q 133 847 197 865 l 122 867 q 266 985 200 913 q 371 1139 332 1058 l 396 1139 m 614 1133 q 694 1187 669 1157 q 719 1258 719 1217 q 693 1329 719 1304 q 624 1354 667 1354 q 585 1350 604 1354 q 558 1338 567 1346 q 622 1264 622 1319 q 601 1212 622 1232 q 547 1192 579 1192 q 494 1212 514 1192 q 474 1264 474 1232 q 489 1315 474 1293 q 529 1351 504 1338 q 661 1382 581 1382 q 797 1350 744 1382 q 849 1265 849 1318 q 792 1175 849 1211 q 642 1121 735 1139 l 642 1057 l 614 1057 l 614 1133 z "},"ễ":{"ha":700,"x_min":51,"x_max":653,"o":"m 442 94 q 625 206 556 94 l 650 197 q 551 44 622 107 q 372 -19 479 -19 q 138 74 225 -19 q 51 351 51 168 q 144 638 51 539 q 392 738 238 738 q 653 429 653 738 l 263 429 q 261 364 261 408 q 287 211 261 272 q 353 122 313 150 q 442 94 394 94 m 383 708 q 301 647 333 708 q 260 456 268 585 l 478 456 q 456 637 481 565 q 383 708 432 708 m 396 1139 q 500 987 433 1061 q 644 867 567 913 l 633 847 q 477 895 553 867 q 356 953 401 924 q 258 894 318 924 q 133 847 197 865 l 122 867 q 266 985 200 913 q 371 1139 332 1058 l 396 1139 m 267 1426 q 335 1414 307 1426 q 397 1376 363 1401 q 451 1344 431 1354 q 501 1335 472 1335 q 608 1408 564 1335 l 628 1399 q 560 1253 606 1300 q 456 1206 514 1206 q 389 1218 417 1206 q 322 1256 361 1231 q 271 1288 293 1278 q 219 1299 249 1299 q 113 1224 158 1299 l 93 1233 q 162 1379 115 1332 q 267 1426 208 1426 z "},"ë":{"ha":700,"x_min":51,"x_max":653,"o":"m 442 94 q 625 206 556 94 l 650 197 q 551 44 622 107 q 372 -19 479 -19 q 138 74 225 -19 q 51 351 51 168 q 144 638 51 539 q 392 738 238 738 q 653 429 653 738 l 263 429 q 261 364 261 408 q 287 211 261 272 q 353 122 313 150 q 442 94 394 94 m 383 708 q 301 647 333 708 q 260 456 268 585 l 478 456 q 456 637 481 565 q 383 708 432 708 m 226 1056 q 300 1024 268 1056 q 332 951 332 993 q 300 878 332 908 q 226 847 268 847 q 153 878 183 847 q 122 951 122 908 q 153 1024 122 993 q 226 1056 183 1056 m 543 1056 q 616 1024 585 1056 q 647 951 647 993 q 616 878 647 908 q 543 847 585 847 q 468 878 499 847 q 438 951 438 908 q 469 1024 438 993 q 543 1056 500 1056 z "},"ė":{"ha":700,"x_min":51,"x_max":653,"o":"m 442 94 q 625 206 556 94 l 650 197 q 551 44 622 107 q 372 -19 479 -19 q 138 74 225 -19 q 51 351 51 168 q 144 638 51 539 q 392 738 238 738 q 653 429 653 738 l 263 429 q 261 364 261 408 q 287 211 261 272 q 353 122 313 150 q 442 94 394 94 m 383 708 q 301 647 333 708 q 260 456 268 585 l 478 456 q 456 637 481 565 q 383 708 432 708 m 383 1076 q 476 1048 442 1076 q 510 969 510 1019 q 476 891 510 919 q 383 863 442 863 q 291 891 325 863 q 257 969 257 919 q 291 1048 257 1019 q 383 1076 325 1076 z "},"ẹ":{"ha":700,"x_min":51,"x_max":653,"o":"m 442 94 q 625 206 556 94 l 650 197 q 551 44 622 107 q 372 -19 479 -19 q 138 74 225 -19 q 51 351 51 168 q 144 638 51 539 q 392 738 238 738 q 653 429 653 738 l 263 429 q 261 364 261 408 q 287 211 261 272 q 353 122 313 150 q 442 94 394 94 m 383 708 q 301 647 333 708 q 260 456 268 585 l 478 456 q 456 637 481 565 q 383 708 432 708 m 371 -260 q 296 -235 324 -260 q 268 -168 268 -211 q 296 -101 268 -126 q 374 -76 324 -76 q 449 -101 422 -76 q 476 -168 476 -125 q 448 -235 476 -211 q 371 -260 419 -260 z "},"è":{"ha":700,"x_min":51,"x_max":653,"o":"m 442 94 q 625 206 556 94 l 650 197 q 551 44 622 107 q 372 -19 479 -19 q 138 74 225 -19 q 51 351 51 168 q 144 638 51 539 q 392 738 238 738 q 653 429 653 738 l 263 429 q 261 364 261 408 q 287 211 261 272 q 353 122 313 150 q 442 94 394 94 m 383 708 q 301 647 333 708 q 260 456 268 585 l 478 456 q 456 637 481 565 q 383 708 432 708 m 210 1135 q 257 1153 229 1153 q 293 1144 275 1153 q 324 1119 311 1135 q 349 1080 339 1101 q 378 1015 360 1058 q 456 844 418 913 l 440 832 q 293 950 376 892 q 244 988 267 969 q 206 1025 221 1007 q 185 1081 185 1053 q 210 1135 185 1114 z "},"ẻ":{"ha":700,"x_min":51,"x_max":653,"o":"m 442 94 q 625 206 556 94 l 650 197 q 551 44 622 107 q 372 -19 479 -19 q 138 74 225 -19 q 51 351 51 168 q 144 638 51 539 q 392 738 238 738 q 653 429 653 738 l 263 429 q 261 364 261 408 q 287 211 261 272 q 353 122 313 150 q 442 94 394 94 m 383 708 q 301 647 333 708 q 260 456 268 585 l 478 456 q 456 637 481 565 q 383 708 432 708 m 369 906 q 450 959 425 929 q 475 1031 475 989 q 449 1101 475 1076 q 379 1126 422 1126 q 341 1122 360 1126 q 314 1110 322 1118 q 378 1036 378 1092 q 356 984 378 1004 q 303 964 335 964 q 249 984 269 964 q 229 1036 229 1004 q 244 1088 229 1065 q 285 1124 260 1110 q 417 1154 336 1154 q 552 1122 500 1154 q 604 1038 604 1090 q 547 947 604 983 q 397 893 490 911 l 397 829 l 369 829 l 369 906 z "},"ē":{"ha":700,"x_min":51,"x_max":653,"o":"m 442 94 q 625 206 556 94 l 650 197 q 551 44 622 107 q 372 -19 479 -19 q 138 74 225 -19 q 51 351 51 168 q 144 638 51 539 q 392 738 238 738 q 653 429 653 738 l 263 429 q 261 364 261 408 q 287 211 261 272 q 353 122 313 150 q 442 94 394 94 m 383 708 q 301 647 333 708 q 260 456 268 585 l 478 456 q 456 637 481 565 q 383 708 432 708 m 613 954 l 146 954 l 146 989 l 613 989 l 613 954 z "},"ę":{"ha":700,"x_min":51,"x_max":653,"o":"m 442 94 q 625 206 556 94 l 650 197 q 551 44 622 107 q 372 -19 479 -19 q 138 74 225 -19 q 51 351 51 168 q 144 638 51 539 q 392 738 238 738 q 653 429 653 738 l 263 429 q 261 364 261 408 q 287 211 261 272 q 353 122 313 150 q 442 94 394 94 m 383 708 q 301 647 333 708 q 260 456 268 585 l 478 456 q 456 637 481 565 q 383 708 432 708 m 496 13 q 469 -4 489 4 q 390 -62 414 -31 q 365 -128 365 -94 q 422 -185 365 -185 q 471 -174 446 -185 q 511 -147 496 -162 l 531 -167 q 448 -239 493 -217 q 340 -261 403 -261 q 247 -236 279 -261 q 214 -165 214 -211 q 272 -65 214 -108 q 439 4 331 -21 l 496 13 z "},"ẽ":{"ha":700,"x_min":51,"x_max":653,"o":"m 442 94 q 625 206 556 94 l 650 197 q 551 44 622 107 q 372 -19 479 -19 q 138 74 225 -19 q 51 351 51 168 q 144 638 51 539 q 392 738 238 738 q 653 429 653 738 l 263 429 q 261 364 261 408 q 287 211 261 272 q 353 122 313 150 q 442 94 394 94 m 383 708 q 301 647 333 708 q 260 456 268 585 l 478 456 q 456 637 481 565 q 383 708 432 708 m 279 1092 q 347 1079 319 1092 q 410 1042 375 1067 q 464 1010 443 1019 q 514 1000 485 1000 q 621 1074 576 1000 l 640 1064 q 572 918 618 965 q 468 871 526 871 q 401 883 429 871 q 335 921 374 896 q 283 953 306 943 q 232 964 261 964 q 125 889 171 964 l 106 899 q 174 1044 128 997 q 279 1092 221 1092 z "},"ə":{"ha":700,"x_min":47,"x_max":649,"o":"m 328 738 q 562 644 475 738 q 649 367 649 550 q 556 80 649 179 q 308 -19 463 -19 q 47 289 47 -19 l 438 289 q 439 354 439 310 q 413 507 439 446 q 347 596 388 568 q 258 624 306 624 q 75 513 144 624 l 50 521 q 149 674 78 611 q 328 738 221 738 m 317 10 q 399 72 367 10 q 440 263 432 133 l 222 263 q 244 81 219 153 q 317 10 268 10 z "},"ʒ":{"ha":650,"x_min":7,"x_max":608,"o":"m 179 288 q 381 101 381 283 q 326 -74 381 -1 q 185 -183 271 -146 q 7 -224 99 -219 l 7 -251 q 281 -208 146 -251 q 501 -85 415 -165 q 588 96 588 -6 q 536 224 588 174 q 397 294 485 275 l 608 725 q 314 718 456 718 q 53 724 165 718 q 58 449 58 646 l 88 449 q 304 697 106 697 l 382 697 l 179 288 z "},"ǯ":{"ha":650,"x_min":7,"x_max":608,"o":"m 179 288 q 381 101 381 283 q 326 -74 381 -1 q 185 -183 271 -146 q 7 -224 99 -219 l 7 -251 q 281 -208 146 -251 q 501 -85 415 -165 q 588 96 588 -6 q 536 224 588 174 q 397 294 485 275 l 608 725 q 314 718 456 718 q 53 724 165 718 q 58 449 58 646 l 88 449 q 304 697 106 697 l 382 697 l 179 288 m 590 1119 q 447 1001 513 1074 q 342 847 381 928 l 317 847 q 213 999 279 925 q 68 1119 146 1074 l 79 1139 q 235 1091 160 1119 q 357 1033 311 1063 q 455 1092 394 1063 q 579 1139 515 1121 l 590 1119 z "},"f":{"ha":489,"x_min":28,"x_max":596,"o":"m 400 1086 q 549 1040 486 1086 q 583 997 569 1024 q 596 936 596 969 q 568 869 596 897 q 497 840 540 840 q 421 867 450 840 q 392 939 392 893 q 413 1003 392 975 q 474 1042 433 1031 q 456 1056 469 1050 q 424 1061 443 1061 q 349 1025 371 1061 q 328 964 333 1004 q 322 843 322 924 l 322 717 l 471 717 l 471 689 l 322 689 l 322 143 q 355 54 322 79 q 453 29 388 29 l 453 0 l 414 1 q 214 6 260 6 q 33 0 172 6 l 33 29 q 103 51 83 29 q 122 129 122 72 l 122 689 l 28 689 l 28 717 l 122 717 q 142 903 122 838 q 210 1017 161 969 q 292 1067 240 1047 q 400 1086 343 1086 z "},"g":{"ha":768,"x_min":6,"x_max":764,"o":"m 692 585 q 644 603 664 585 q 625 657 625 622 q 642 725 625 690 q 587 694 608 711 q 550 650 565 676 q 593 517 593 599 q 517 351 593 407 q 317 296 442 296 l 292 296 q 235 222 235 263 q 290 178 235 178 l 442 178 q 637 133 564 178 q 710 -6 710 88 q 665 -134 710 -76 q 528 -226 619 -192 q 303 -261 436 -261 q 87 -227 168 -261 q 6 -129 6 -193 q 44 -52 6 -86 q 160 1 83 -18 l 172 -21 q 122 -117 122 -62 q 175 -206 122 -175 q 321 -237 228 -237 q 478 -199 418 -237 q 539 -89 539 -160 q 505 -17 539 -43 q 386 10 471 10 l 300 10 q 161 40 211 10 q 111 131 111 69 q 147 222 111 182 q 257 300 183 263 q 99 367 157 313 q 40 517 40 421 q 116 682 40 626 q 317 738 192 738 q 529 672 456 738 q 594 732 556 710 q 674 754 633 754 q 740 730 715 754 q 764 667 764 706 q 742 606 764 628 q 692 585 721 585 m 317 321 q 376 365 356 321 q 396 517 396 410 q 376 668 396 624 q 317 713 356 713 q 258 668 278 713 q 238 517 238 624 q 258 365 238 410 q 317 321 278 321 z "},"ǵ":{"ha":768,"x_min":6,"x_max":764,"o":"m 692 585 q 644 603 664 585 q 625 657 625 622 q 642 725 625 690 q 587 694 608 711 q 550 650 565 676 q 593 517 593 599 q 517 351 593 407 q 317 296 442 296 l 292 296 q 235 222 235 263 q 290 178 235 178 l 442 178 q 637 133 564 178 q 710 -6 710 88 q 665 -134 710 -76 q 528 -226 619 -192 q 303 -261 436 -261 q 87 -227 168 -261 q 6 -129 6 -193 q 44 -52 6 -86 q 160 1 83 -18 l 172 -21 q 122 -117 122 -62 q 175 -206 122 -175 q 321 -237 228 -237 q 478 -199 418 -237 q 539 -89 539 -160 q 505 -17 539 -43 q 386 10 471 10 l 300 10 q 161 40 211 10 q 111 131 111 69 q 147 222 111 182 q 257 300 183 263 q 99 367 157 313 q 40 517 40 421 q 116 682 40 626 q 317 738 192 738 q 529 672 456 738 q 594 732 556 710 q 674 754 633 754 q 740 730 715 754 q 764 667 764 706 q 742 606 764 628 q 692 585 721 585 m 317 321 q 376 365 356 321 q 396 517 396 410 q 376 668 396 624 q 317 713 356 713 q 258 668 278 713 q 238 517 238 624 q 258 365 238 410 q 317 321 278 321 m 497 1135 q 522 1082 522 1117 q 501 1025 522 1053 q 463 988 486 1007 q 414 950 440 969 q 267 832 331 892 l 251 844 q 329 1015 289 913 q 358 1080 347 1058 q 383 1119 368 1101 q 449 1153 410 1153 q 497 1135 478 1153 z "},"ğ":{"ha":768,"x_min":6,"x_max":764,"o":"m 692 585 q 644 603 664 585 q 625 657 625 622 q 642 725 625 690 q 587 694 608 711 q 550 650 565 676 q 593 517 593 599 q 517 351 593 407 q 317 296 442 296 l 292 296 q 235 222 235 263 q 290 178 235 178 l 442 178 q 637 133 564 178 q 710 -6 710 88 q 665 -134 710 -76 q 528 -226 619 -192 q 303 -261 436 -261 q 87 -227 168 -261 q 6 -129 6 -193 q 44 -52 6 -86 q 160 1 83 -18 l 172 -21 q 122 -117 122 -62 q 175 -206 122 -175 q 321 -237 228 -237 q 478 -199 418 -237 q 539 -89 539 -160 q 505 -17 539 -43 q 386 10 471 10 l 300 10 q 161 40 211 10 q 111 131 111 69 q 147 222 111 182 q 257 300 183 263 q 99 367 157 313 q 40 517 40 421 q 116 682 40 626 q 317 738 192 738 q 529 672 456 738 q 594 732 556 710 q 674 754 633 754 q 740 730 715 754 q 764 667 764 706 q 742 606 764 628 q 692 585 721 585 m 317 321 q 376 365 356 321 q 396 517 396 410 q 376 668 396 624 q 317 713 356 713 q 258 668 278 713 q 238 517 238 624 q 258 365 238 410 q 317 321 278 321 m 610 1082 q 514 926 579 990 q 344 863 449 863 q 175 926 240 863 q 79 1082 110 990 l 103 1094 q 344 994 190 994 q 586 1094 499 994 l 610 1082 z "}}}
